<?xml version="1.0" encoding="UTF-8"?>
<svg id="Layer_2" data-name="Layer 2" xmlns="http://www.w3.org/2000/svg" xmlns:xlink="http://www.w3.org/1999/xlink" viewBox="0 0 2408.83 645.81">
  <defs>
    <style>
      .cls-1 {
        fill-rule: evenodd;
      }

      .cls-1, .cls-2 {
        fill: #166cb4;
        stroke-width: 0px;
      }

      .cls-3 {
        fill: url(#linear-gradient);
      }

      .cls-3, .cls-4, .cls-5, .cls-6, .cls-7, .cls-8 {
        stroke: #231f20;
        stroke-miterlimit: 10;
      }

      .cls-4 {
        fill: url(#linear-gradient-6);
      }

      .cls-5 {
        fill: url(#linear-gradient-3);
      }

      .cls-6 {
        fill: url(#linear-gradient-4);
      }

      .cls-7 {
        fill: url(#linear-gradient-2);
      }

      .cls-8 {
        fill: url(#linear-gradient-5);
      }
    </style>
    <linearGradient id="linear-gradient" x1=".5" y1="456.99" x2="450.37" y2="456.99" gradientUnits="userSpaceOnUse">
      <stop offset="0" stop-color="#5080b1"/>
      <stop offset=".01" stop-color="#467cae"/>
      <stop offset=".04" stop-color="#2d73a7"/>
      <stop offset=".07" stop-color="#04649c"/>
      <stop offset=".07" stop-color="#00639b"/>
      <stop offset=".52" stop-color="#004e8c"/>
      <stop offset=".93" stop-color="#00639b"/>
      <stop offset="1" stop-color="#5080b1"/>
    </linearGradient>
    <linearGradient id="linear-gradient-2" x1="141.78" y1="280.72" x2="329.42" y2="280.72" gradientUnits="userSpaceOnUse">
      <stop offset=".17" stop-color="#8ad0c3"/>
      <stop offset=".56" stop-color="#00b6a9"/>
      <stop offset=".75" stop-color="#00a185"/>
    </linearGradient>
    <linearGradient id="linear-gradient-3" x1="87.25" y1="337.07" x2="226.27" y2="337.07" gradientUnits="userSpaceOnUse">
      <stop offset=".23" stop-color="#2bc4f3"/>
      <stop offset=".59" stop-color="#00aeee"/>
      <stop offset="1" stop-color="#0095da"/>
    </linearGradient>
    <linearGradient id="linear-gradient-4" x1="89.71" y1="363.39" x2="153.77" y2="363.39" gradientUnits="userSpaceOnUse">
      <stop offset=".24" stop-color="#64c08a"/>
      <stop offset=".57" stop-color="#00a550"/>
      <stop offset="1" stop-color="#00914c"/>
    </linearGradient>
    <linearGradient id="linear-gradient-5" x1="308.27" y1="241.88" x2="412.93" y2="241.88" gradientUnits="userSpaceOnUse">
      <stop offset="0" stop-color="#00914c"/>
      <stop offset=".45" stop-color="#00a550"/>
      <stop offset=".89" stop-color="#64c08a"/>
    </linearGradient>
    <linearGradient id="linear-gradient-6" x1="308.56" y1="219.94" x2="389.58" y2="219.94" gradientUnits="userSpaceOnUse">
      <stop offset="0" stop-color="#76b83f"/>
      <stop offset=".32" stop-color="#acd479"/>
      <stop offset="1" stop-color="#d1e4a5"/>
    </linearGradient>
  </defs>
  <g id="Layer_1-2" data-name="Layer 1">
    <g id="_2034058872928" data-name=" 2034058872928">
      <g>
        <path class="cls-2" d="M688.5,303.44c71,0,117.91-35.5,117.91-88.33,0-47.33-32.12-76.07-101.01-95.09-43.95-12.68-56.21-21.56-56.21-35.92s15.21-23.25,39.3-23.25c27.47,0,58.32,10.57,78.6,26.2l31.7-50.71C767.95,13.53,728.65,0,685.96,0c-68.47,0-108.62,35.08-108.62,84.95s30.85,75.65,95.94,92.98c44.37,12.25,60.01,21.97,60.01,37.61,0,16.48-16.9,25.78-46.49,25.78-32.12,0-61.28-9.72-90.44-30.01l-31.27,52.41c33.39,25.36,77.76,39.73,123.41,39.73h0Z"/>
        <polygon class="cls-2" points="1352.33 178.77 1220.48 3.8 1161.73 3.8 1161.73 299.64 1231.46 299.64 1231.46 125.1 1362.9 299.64 1422.07 299.64 1422.07 3.8 1352.33 3.8 1352.33 178.77"/>
        <polygon class="cls-2" points="1557.25 299.64 1557.25 3.8 1484.56 3.8 1484.56 299.64 1557.25 299.64"/>
        <polygon class="cls-2" points="1873.32 299.64 1777.81 148.76 1869.94 3.8 1785.41 3.8 1715.68 117.91 1692.44 117.91 1692.44 3.8 1619.75 3.8 1619.75 299.64 1692.44 299.64 1692.44 182.57 1715.68 182.57 1787.95 299.64 1873.32 299.64"/>
        <polygon class="cls-2" points="1981.04 178.77 2100.21 178.77 2100.21 121.72 1981.04 121.72 1981.04 61.7 2111.2 61.7 2111.2 3.8 1910.04 3.8 1910.04 299.64 2116.27 299.64 2116.27 240.89 1981.04 240.89 1981.04 178.77"/>
        <polygon class="cls-2" points="2164.14 3.8 2164.14 70.58 2249.93 70.58 2249.93 299.64 2322.62 299.64 2322.62 70.58 2408.83 70.58 2408.83 3.8 2164.14 3.8"/>
        <path class="cls-1" d="M1120.48,299.63L1007.22,3.79h-77.76l-114.53,295.85h76.07l17.33-69.62,60.44,30.11,59.17-30.11,17.75,69.62h74.81ZM1012.71,177.62l-43.95,30.11-44.8-30.11,44.8-99.86,43.95,99.86Z"/>
      </g>
      <path class="cls-2" d="M871.95,526.63h83.26v38.46c-19.44,11.41-41.84,16.9-64.24,16.9-55.79,0-90.44-36.35-90.44-89.59s35.08-89.59,87.06-89.59c27.89,0,56.63,10.14,76.91,29.58l38.88-47.75c-33.39-30.43-74.38-45.64-119.18-45.64-92.13,0-155.95,65.08-155.95,153.41s63.81,153.41,159.33,153.41c48.18,0,95.51-16.06,128.9-47.75v-126.79h-144.54v55.36h0ZM1315.64,640.31l-65.51-106.5c35.92-15.64,56.21-46.91,56.21-89.17,0-60.01-44.8-100.16-113.26-100.16h-124.25v295.84h72.69v-95.51h39.3l55.79,95.51h79.03,0ZM1233.65,447.17c0,27.05-16.9,42.68-47.75,42.68h-45.64v-85.79h45.64c30.85,0,47.75,16.06,47.75,43.11ZM1496.04,645.8c91.71,0,157.64-64.66,157.64-153.41s-65.93-153.41-157.64-153.41-157.64,64.66-157.64,153.41,66.78,153.41,157.64,153.41ZM1496.04,579.45c-48.6,0-83.26-35.92-83.26-87.06s34.66-87.06,83.26-87.06,83.68,35.92,83.68,87.06-34.66,87.06-83.68,87.06ZM1826.47,645.38c78.19,0,126.79-45.22,126.79-121.72v-179.19h-72.69v173.27c0,40.15-19.02,61.28-54.1,61.28s-54.1-21.13-54.1-61.28v-173.27h-72.69v179.19c0,76.49,48.18,121.72,126.79,121.72ZM2013.21,344.48v295.84h72.69v-83.68h45.22c71.42,0,114.53-41.84,114.53-106.08s-43.11-106.08-114.53-106.08h-117.91ZM2084.63,496.62v-90.44h38.88c30.85,0,49.03,16.48,49.03,45.22s-18.17,45.22-49.03,45.22h-38.88Z"/>
    </g>
    <g>
      <path class="cls-3" d="M.5,285.16c2.43-.22,4.09,1.27,5.84,2.61,21.84,16.59,43.62,33.28,65.59,49.7,6.48,4.84,9.52,10.35,9.22,18.82-.62,17.54-.05,35.12-.07,52.68,0,1.83.94,4.28-1.38,5.29-1.85.8-3.1-1.17-4.6-1.96-2.38-1.25-4.53-5.04-7.18-3.1-2.49,1.82-1.17,5.78-.91,8.75,2.93,33.45,15.99,62.88,37.37,88.33,23.76,28.3,53.23,49.03,89.92,56.11,64.82,12.5,118.14-8.15,158.93-59.98,20.04-25.46,31.59-54.52,32.97-87.2.09-2.03,1.24-4.84-1.25-5.94-1.91-.84-3.54,1.28-5.09,2.4-21.17,15.29-42.3,30.62-63.5,45.86-1.86,1.33-3.73,4-6.22,2.81-2.56-1.24-1.46-4.33-1.47-6.62-.02-19.54.26-39.08,0-58.61-.08-5.88,1.77-9.87,6.49-13.32,25.13-18.42,50.08-37.08,75.15-55.58,17.66-13.03,35.39-25.96,53.12-38.89,1.69-1.23,3.37-3.67,5.65-2.33,1.79,1.06.97,3.63.97,5.54-.02,40.39.98,80.82-.39,121.16-1.84,54.52-21.33,102.75-57.45,143.78-39.51,44.87-89.89,69.27-149.05,73.35-60.41,4.16-114.29-14.39-160.6-53.77C35.06,534.66,10.2,482.33,1.82,421.36c-.63-4.55.33-9.25-1.32-13.7v-122.5Z"/>
      <path class="cls-7" d="M298.54,323.24c0,63.2-.12,126.4.15,189.6.03,6.83-2.34,10.78-7.86,14.4-12.68,8.33-26.79,12.94-41.07,17.3-4.93,1.5-6.15-.65-6.1-5.21.17-15.14.11-30.28.11-45.43.01-74.61,0-149.22.02-223.84,0-38.6.07-77.2.02-115.8-.03-18.83-.24-37.66-.42-56.49-.05-4.87-4.04-7.58-6.5-11.09-.87-1.25-2.42-.83-3.38.36-3.59,4.39-7.54,8.43-7.41,14.88.25,12.06-.16,24.14.14,36.2.13,4.99-1.61,8.33-5.68,10.94-14.41,9.23-28.75,18.54-43.13,27.82-4.74,3.06-6,1.05-5.95-3.81.13-12.95.1-25.9-.02-38.84-.1-10.19-.85-10.83-10.78-10.86-4.83-.01-9.66.02-14.48-.06-1.46-.03-3.38.57-4.17-1.07-.86-1.78,1.03-2.69,2.03-3.71,27.7-28.47,52.83-59.22,78.83-89.2,3.02-3.48,6.03-6.96,8.93-10.53,3.24-3.99,5.77-2.44,8.45.7,9.55,11.17,19.07,22.35,28.79,33.37,16.09,18.25,32.33,36.38,48.51,54.56,3.5,3.93,7.07,7.8,10.52,11.76.67.77,1.49,1.95,1.34,2.78-.3,1.64-2.01,1.38-3.26,1.39-6.58.05-13.2.43-19.74-.09-6.66-.52-7.99,2.34-7.97,8.39.18,63.86.11,127.72.11,191.58Z"/>
      <path class="cls-5" d="M226.16,391.64c0,48.49,0,96.98,0,145.47,0,9.65-.12,9.63-9.68,8.08-13.98-2.28-27.01-7.43-40.05-12.68-5.52-2.22-6.39-6.24-6.38-11.53.16-77.67.07-155.34.41-233.01.03-7.68-2.39-12.39-8.54-16.82-24.19-17.4-48.08-35.21-71.26-53.96-2.49-2.01-3.42-4.39-3.42-7.41.03-25.45.03-50.9.09-76.35,0-1.69-.5-3.89,1.21-4.85,2.21-1.24,3.58.98,4.99,2.16,40.44,33.65,82.15,65.7,123.14,98.67,6.33,5.09,9.67,10.62,9.58,19.42-.48,47.61-.23,95.22-.23,142.83h.12Z"/>
      <path class="cls-6" d="M89.88,342.24c-.07-25.08.32-50.25-.13-75.29-.04-1.57,1.16-3.05,2.72-3.17,2.1-.09,3.62,1.86,5.19,2.96,17.31,13.25,34.52,26.62,51.84,39.87,1.49,1.09,2.92,2.54,3.53,4.23,1.59,49.03.02,98.4.65,147.53.03,3.86-.97,6.17-4.98,3.44-18.13-12.65-36.3-25.46-54.58-37.99-3.75-2.15-4.59-5.94-4.38-10.13.13-23.75-.16-47.54.11-71.27l.03-.17Z"/>
      <path class="cls-8" d="M308.39,301.59c0-7.24.29-14.5-.09-21.72-.28-5.24,1.68-7.9,6.62-9.69,13.23-4.82,25.62-11.33,37.22-19.42,21.67-15.12,33.81-37.01,43.16-60.75,4.17-10.58,7.17-21.63,10.76-32.44.58-1.76.6-4.45,3.26-4.18,2.17.23,2.07,2.57,2.16,4.26,1.27,23.42,3.12,46.99-1.64,70.13-7.04,34.25-25.41,61.17-55.2,80.03-12.82,8.12-26.54,14.52-40.01,21.4-4.5,2.3-6.42,1.31-6.29-3.93.19-7.89.05-15.8.05-23.69Z"/>
      <path class="cls-4" d="M308.57,256.13c1.23-31.95,17.72-53.95,44.79-69.35,9.9-5.63,20.75-8.05,31.46-11.14,4.07-1.17,5.39-.04,4.49,3.99-3.95,17.76-11.42,33.85-22.4,48.41-12.63,16.76-30,26.64-48.84,34.46-9.04,3.76-9.62,3.23-9.51-6.38Z"/>
    </g>
  </g>
</svg>