<?xml version="1.0" encoding="UTF-8"?>
<svg id="Layer_2" data-name="Layer 2" xmlns="http://www.w3.org/2000/svg" xmlns:xlink="http://www.w3.org/1999/xlink" viewBox="0 0 3000 3000">
  <defs>
    <style>
      .cls-1 {
        fill: url(#linear-gradient);
      }

      .cls-1, .cls-2, .cls-3, .cls-4, .cls-5, .cls-6 {
        stroke: #231f20;
        stroke-miterlimit: 10;
      }

      .cls-2 {
        fill: url(#linear-gradient-6);
      }

      .cls-7 {
        fill: none;
        stroke-width: 0px;
      }

      .cls-3 {
        fill: url(#linear-gradient-3);
      }

      .cls-4 {
        fill: url(#linear-gradient-4);
      }

      .cls-5 {
        fill: url(#linear-gradient-2);
      }

      .cls-6 {
        fill: url(#linear-gradient-5);
      }
    </style>
    <linearGradient id="linear-gradient" x1="490.87" y1="2101.56" x2="2509.13" y2="2101.56" gradientUnits="userSpaceOnUse">
      <stop offset="0" stop-color="#5080b1"/>
      <stop offset=".01" stop-color="#467cae"/>
      <stop offset=".04" stop-color="#2d73a7"/>
      <stop offset=".07" stop-color="#04649c"/>
      <stop offset=".07" stop-color="#00639b"/>
      <stop offset=".52" stop-color="#004e8c"/>
      <stop offset=".93" stop-color="#00639b"/>
      <stop offset="1" stop-color="#5080b1"/>
    </linearGradient>
    <linearGradient id="linear-gradient-2" x1="1124.71" y1="1310.74" x2="1966.51" y2="1310.74" gradientUnits="userSpaceOnUse">
      <stop offset=".17" stop-color="#8ad0c3"/>
      <stop offset=".56" stop-color="#00b6a9"/>
      <stop offset=".75" stop-color="#00a185"/>
    </linearGradient>
    <linearGradient id="linear-gradient-3" x1="880.08" y1="1563.57" x2="1503.74" y2="1563.57" gradientUnits="userSpaceOnUse">
      <stop offset=".23" stop-color="#2bc4f3"/>
      <stop offset=".59" stop-color="#00aeee"/>
      <stop offset="1" stop-color="#0095da"/>
    </linearGradient>
    <linearGradient id="linear-gradient-4" x1="891.08" y1="1681.62" x2="1178.48" y2="1681.62" gradientUnits="userSpaceOnUse">
      <stop offset=".24" stop-color="#64c08a"/>
      <stop offset=".57" stop-color="#00a550"/>
      <stop offset="1" stop-color="#00914c"/>
    </linearGradient>
    <linearGradient id="linear-gradient-5" x1="1871.64" y1="1136.49" x2="2341.14" y2="1136.49" gradientUnits="userSpaceOnUse">
      <stop offset="0" stop-color="#00914c"/>
      <stop offset=".45" stop-color="#00a550"/>
      <stop offset=".89" stop-color="#64c08a"/>
    </linearGradient>
    <linearGradient id="linear-gradient-6" x1="1872.92" y1="1038.09" x2="2236.42" y2="1038.09" gradientUnits="userSpaceOnUse">
      <stop offset="0" stop-color="#76b83f"/>
      <stop offset=".32" stop-color="#acd479"/>
      <stop offset="1" stop-color="#d1e4a5"/>
    </linearGradient>
  </defs>
  <g id="Layer_1-2" data-name="Layer 1">
    <g>
      <rect class="cls-7" width="3000" height="3000" rx="600" ry="600"/>
      <g>
        <path class="cls-1" d="M490.87,1330.68c10.92-.99,18.33,5.72,26.19,11.69,97.99,74.45,195.67,149.31,294.26,222.96,29.08,21.72,42.7,46.42,41.37,84.41-2.77,78.68-.24,157.54-.3,236.32,0,8.2,4.23,19.22-6.2,23.74-8.28,3.59-13.89-5.25-20.62-8.79-10.67-5.62-20.31-22.62-32.22-13.9-11.19,8.19-5.23,25.95-4.07,39.24,13.17,150.08,71.75,282.11,167.63,396.29,106.61,126.94,238.82,219.96,403.39,251.71,290.78,56.09,529.99-36.57,713-269.1,89.89-114.22,141.72-244.58,147.92-391.23.39-9.12,5.56-21.71-5.61-26.63-8.57-3.77-15.86,5.74-22.85,10.78-94.97,68.57-189.78,137.38-284.89,205.76-8.33,5.99-16.75,17.95-27.89,12.59-11.5-5.54-6.57-19.45-6.58-29.71-.1-87.65,1.17-175.31,0-262.94-.35-26.36,7.96-44.26,29.1-59.76,112.73-82.63,224.68-166.34,337.14-249.34,79.21-58.46,158.76-116.44,238.3-174.45,7.57-5.52,15.13-16.48,25.34-10.44,8.03,4.74,4.34,16.3,4.34,24.86-.08,181.21,4.38,362.57-1.73,543.58-8.26,244.61-95.68,460.97-257.74,645.03-177.24,201.31-403.28,310.77-668.69,329.06-271.04,18.67-512.73-64.54-720.51-241.24-213.03-181.17-324.6-415.94-362.16-689.48-2.81-20.43,1.47-41.5-5.94-61.45v-549.58Z"/>
        <path class="cls-5" d="M1827.95,1501.51c-.03,283.54-.52,567.08.68,850.62.13,30.65-10.5,48.35-35.26,64.61-56.9,37.36-120.18,58.07-184.27,77.62-22.14,6.75-27.6-2.93-27.38-23.38.75-67.92.47-135.86.48-203.79.05-334.73.04-669.47.09-1004.2.02-173.17.31-346.34.07-519.51-.12-84.48-1.08-168.96-1.89-253.43-.21-21.85-18.13-33.99-29.15-49.74-3.92-5.61-10.84-3.7-15.18,1.61-16.11,19.68-33.83,37.84-33.22,66.76,1.13,54.12-.72,108.31.64,162.43.56,22.38-7.24,37.39-25.49,49.08-64.63,41.39-128.99,83.19-193.48,124.8-21.29,13.73-26.92,4.69-26.71-17.1.57-58.08.47-116.17-.11-174.26-.45-45.7-3.83-48.59-48.36-48.72-21.66-.06-43.32.1-64.98-.28-6.53-.11-15.16,2.56-18.72-4.8-3.86-7.99,4.61-12.05,9.09-16.66,124.28-127.75,237.02-265.69,353.66-400.17,13.53-15.6,27.06-31.21,40.06-47.24,14.52-17.9,25.89-10.94,37.92,3.13,42.82,50.09,85.55,100.28,129.14,149.7,72.21,81.88,145.03,163.22,217.64,244.75,15.7,17.63,31.7,34.97,47.21,52.76,3.01,3.45,6.68,8.74,6.01,12.46-1.32,7.38-9.04,6.19-14.63,6.23-29.53.22-59.21,1.92-88.57-.39-29.87-2.35-35.84,10.49-35.76,37.66.81,286.49.5,572.99.47,859.48Z"/>
        <path class="cls-3" d="M1503.24,1808.37c0,217.54.02,435.08-.02,652.61,0,43.27-.55,43.22-43.41,36.24-62.72-10.22-121.18-33.33-179.66-56.9-24.76-9.98-28.65-28-28.6-51.75.71-348.45.31-696.91,1.86-1045.35.15-34.47-10.71-55.59-38.33-75.46-108.51-78.06-215.7-157.97-319.67-242.1-11.16-9.03-15.34-19.68-15.33-33.23.14-114.18.14-228.36.38-342.55.02-7.6-2.25-17.44,5.45-21.77,9.91-5.58,16.06,4.4,22.4,9.67,181.43,150.95,368.56,294.77,552.44,442.67,28.38,22.83,43.39,47.64,42.99,87.12-2.14,213.58-1.01,427.19-1.01,640.79h.52Z"/>
        <path class="cls-4" d="M891.84,1586.74c-.31-112.53,1.46-225.43-.57-337.78-.19-7.04,5.2-13.69,12.2-14.2,9.44-.39,16.22,8.33,23.28,13.26,77.65,59.43,154.88,119.43,232.56,178.86,6.68,4.89,13.11,11.39,15.85,19,7.14,219.96.11,441.44,2.9,661.84.14,17.32-4.34,27.66-22.34,15.43-81.33-56.75-162.86-114.24-244.85-170.45-16.84-9.64-20.61-26.66-19.66-45.45.57-106.56-.71-213.27.5-319.76l.13-.74Z"/>
        <path class="cls-6" d="M1872.17,1404.38c0-32.48,1.28-65.03-.43-97.42-1.24-23.5,7.56-35.43,29.68-43.49,59.36-21.62,114.96-50.83,166.97-87.12,97.23-67.84,151.66-166.05,193.65-272.53,18.72-47.48,32.19-97.02,48.28-145.55,2.61-7.88,2.67-19.99,14.64-18.74,9.73,1.01,9.29,11.54,9.7,19.12,5.68,105.09,14.01,210.83-7.34,314.63-31.59,153.66-114,274.41-247.64,359.02-57.54,36.43-119.07,65.13-179.51,96-20.18,10.31-28.8,5.89-28.24-17.62.85-35.41.22-70.86.22-106.3Z"/>
        <path class="cls-2" d="M1872.97,1200.44c5.53-143.33,79.51-242.06,200.93-311.11,44.4-25.25,93.1-36.09,141.16-49.96,18.25-5.26,24.19-.18,20.16,17.91-17.74,79.69-51.24,151.84-100.48,217.19-56.66,75.19-134.61,119.5-219.1,154.58-40.58,16.85-43.17,14.5-42.66-28.61Z"/>
      </g>
    </g>
  </g>
</svg>