<?xml version="1.0" encoding="UTF-8"?>
<svg id="Layer_2" data-name="Layer 2" xmlns="http://www.w3.org/2000/svg" viewBox="0 0 1843.74 645.81">
  <defs>
    <style>
      .cls-1 {
        fill-rule: evenodd;
      }

      .cls-1, .cls-2 {
        fill: #166cb4;
        stroke-width: 0px;
      }
    </style>
  </defs>
  <g id="Layer_1-2" data-name="Layer 1">
    <g id="_2034058872928" data-name=" 2034058872928">
      <g>
        <path class="cls-2" d="M123.41,303.44c71,0,117.91-35.5,117.91-88.33,0-47.33-32.12-76.07-101.01-95.09-43.95-12.68-56.21-21.56-56.21-35.92s15.21-23.25,39.3-23.25c27.47,0,58.32,10.57,78.6,26.2l31.7-50.71C202.86,13.53,163.55,0,120.87,0,52.4,0,12.25,35.08,12.25,84.95s30.85,75.65,95.94,92.98c44.37,12.25,60.01,21.97,60.01,37.61,0,16.48-16.9,25.78-46.49,25.78-32.12,0-61.28-9.72-90.44-30.01L0,263.72c33.39,25.36,77.76,39.73,123.41,39.73h0Z"/>
        <polygon class="cls-2" points="787.24 178.77 655.38 3.8 596.63 3.8 596.63 299.64 666.37 299.64 666.37 125.1 797.8 299.64 856.97 299.64 856.97 3.8 787.24 3.8 787.24 178.77"/>
        <polygon class="cls-2" points="992.16 299.64 992.16 3.8 919.47 3.8 919.47 299.64 992.16 299.64"/>
        <polygon class="cls-2" points="1308.22 299.64 1212.71 148.76 1304.84 3.8 1220.32 3.8 1150.59 117.91 1127.35 117.91 1127.35 3.8 1054.65 3.8 1054.65 299.64 1127.35 299.64 1127.35 182.57 1150.59 182.57 1222.85 299.64 1308.22 299.64"/>
        <polygon class="cls-2" points="1415.94 178.77 1535.12 178.77 1535.12 121.72 1415.94 121.72 1415.94 61.7 1546.11 61.7 1546.11 3.8 1344.94 3.8 1344.94 299.64 1551.18 299.64 1551.18 240.89 1415.94 240.89 1415.94 178.77"/>
        <polygon class="cls-2" points="1599.04 3.8 1599.04 70.58 1684.83 70.58 1684.83 299.64 1757.53 299.64 1757.53 70.58 1843.74 70.58 1843.74 3.8 1599.04 3.8"/>
        <path class="cls-1" d="M555.39,299.63L442.12,3.79h-77.76l-114.53,295.85h76.07l17.33-69.62,60.44,30.11,59.17-30.11,17.75,69.62h74.81ZM447.62,177.62l-43.95,30.11-44.8-30.11,44.8-99.86,43.95,99.86Z"/>
      </g>
      <path class="cls-2" d="M306.85,526.63h83.26v38.46c-19.44,11.41-41.84,16.9-64.24,16.9-55.79,0-90.44-36.35-90.44-89.59s35.08-89.59,87.06-89.59c27.89,0,56.63,10.14,76.91,29.58l38.88-47.75c-33.39-30.43-74.38-45.64-119.18-45.64-92.13,0-155.95,65.08-155.95,153.41s63.81,153.41,159.33,153.41c48.18,0,95.51-16.06,128.9-47.75v-126.79h-144.54v55.36h0ZM750.54,640.31l-65.51-106.5c35.92-15.64,56.21-46.91,56.21-89.17,0-60.01-44.8-100.16-113.26-100.16h-124.25v295.84h72.69v-95.51h39.3l55.79,95.51h79.03,0ZM668.55,447.17c0,27.05-16.9,42.68-47.75,42.68h-45.64v-85.79h45.64c30.85,0,47.75,16.06,47.75,43.11ZM930.94,645.8c91.71,0,157.64-64.66,157.64-153.41s-65.93-153.41-157.64-153.41-157.64,64.66-157.64,153.41,66.78,153.41,157.64,153.41ZM930.94,579.45c-48.6,0-83.26-35.92-83.26-87.06s34.66-87.06,83.26-87.06,83.68,35.92,83.68,87.06-34.66,87.06-83.68,87.06ZM1261.37,645.38c78.19,0,126.79-45.22,126.79-121.72v-179.19h-72.69v173.27c0,40.15-19.02,61.28-54.1,61.28s-54.1-21.13-54.1-61.28v-173.27h-72.69v179.19c0,76.49,48.18,121.72,126.79,121.72ZM1448.12,344.48v295.84h72.69v-83.68h45.22c71.42,0,114.53-41.84,114.53-106.08s-43.11-106.08-114.53-106.08h-117.91ZM1519.54,496.62v-90.44h38.88c30.85,0,49.03,16.48,49.03,45.22s-18.17,45.22-49.03,45.22h-38.88Z"/>
    </g>
  </g>
</svg>