<?xml version="1.0" encoding="UTF-8"?>
<!DOCTYPE svg PUBLIC "-//W3C//DTD SVG 1.1//EN" "http://www.w3.org/Graphics/SVG/1.1/DTD/svg11.dtd">
<!-- Creator: CorelDRAW 2021.5 -->
<svg xmlns="http://www.w3.org/2000/svg" xml:space="preserve" width="3.62228in" height="1.61567in" version="1.1" style="shape-rendering:geometricPrecision; text-rendering:geometricPrecision; image-rendering:optimizeQuality; fill-rule:evenodd; clip-rule:evenodd"
viewBox="0 0 3622.28 1615.67"
 xmlns:xlink="http://www.w3.org/1999/xlink"
 xmlns:xodm="http://www.corel.com/coreldraw/odm/2003">
 <defs>
  <style type="text/css">
   <![CDATA[
    .fil1 {fill:#166CB4}
    .fil2 {fill:#4B4B4D;fill-rule:nonzero}
    .fil0 {fill:#166CB4;fill-rule:nonzero}
   ]]>
  </style>
 </defs>
 <g id="Layer_x0020_1">
  <metadata id="CorelCorpID_0Corel-Layer"/>
  <g id="_2034058872928">
   <g>
    <path class="fil0" d="M242.45 596.15c139.49,0 231.65,-69.74 231.65,-173.53 0,-92.99 -63.1,-149.45 -198.44,-186.82 -86.35,-24.91 -110.43,-42.35 -110.43,-70.57 0,-28.23 29.89,-45.67 77.22,-45.67 53.97,0 114.58,20.76 154.43,51.48l62.27 -99.63c-60.61,-44.83 -137.83,-71.41 -221.69,-71.41 -134.51,0 -213.39,68.91 -213.39,166.89 0,94.65 60.61,148.62 188.48,182.67 87.18,24.07 117.9,43.17 117.9,73.89 0,32.38 -33.21,50.65 -91.33,50.65 -63.1,0 -120.39,-19.1 -177.68,-58.95l-61.44 102.96c65.59,49.82 152.77,78.05 242.45,78.05z"/>
    <polygon class="fil0" points="1546.64,351.21 1287.59,7.47 1172.17,7.47 1172.17,588.68 1309.17,588.68 1309.17,245.77 1567.4,588.68 1683.64,588.68 1683.64,7.47 1546.64,7.47 "/>
    <polygon class="fil0" points="1949.23,588.68 1949.23,7.47 1806.42,7.47 1806.42,588.68 "/>
    <polygon class="fil0" points="2570.19,588.68 2382.55,292.26 2563.55,7.47 2397.49,7.47 2260.49,231.65 2214.83,231.65 2214.83,7.47 2072.01,7.47 2072.01,588.68 2214.83,588.68 2214.83,358.69 2260.49,358.69 2402.47,588.68 "/>
    <polygon class="fil0" points="2781.82,351.21 3015.96,351.21 3015.96,239.13 2781.82,239.13 2781.82,121.22 3037.55,121.22 3037.55,7.47 2642.33,7.47 2642.33,588.68 3047.51,588.68 3047.51,473.27 2781.82,473.27 "/>
    <polygon class="fil0" points="3141.55,7.47 3141.55,138.66 3310.09,138.66 3310.09,588.68 3452.91,588.68 3452.91,138.66 3622.28,138.66 3622.28,7.47 "/>
    <path class="fil1" d="M1091.14 588.67l-222.53 -581.23 -152.78 0 -225.02 581.23 149.46 0 34.04 -136.77 118.74 59.16 116.24 -59.16 34.87 136.77 146.97 0zm-211.73 -239.72l-86.35 59.15 -88.02 -59.15 88.02 -196.19 86.35 196.19z"/>
   </g>
   <path class="fil0" d="M602.85 1034.63l163.57 0 0 75.56c-38.19,22.42 -82.2,33.21 -126.2,33.21 -109.6,0 -177.68,-71.41 -177.68,-176.02 0,-102.96 68.91,-176.02 171.04,-176.02 54.8,0 111.26,19.93 151.11,58.12l76.39 -93.82c-65.59,-59.78 -146.13,-89.67 -234.14,-89.67 -181,0 -306.38,127.86 -306.38,301.39 0,177.68 125.37,301.4 313.02,301.4 94.65,0 187.65,-31.55 253.24,-93.82l0 -249.09 -283.96 0 0 108.77zm871.7 223.35l-128.7 -209.23c70.57,-30.72 110.43,-92.17 110.43,-175.19 0,-117.9 -88.01,-196.78 -222.52,-196.78l-244.11 0 0 581.21 142.81 0 0 -187.65 77.22 0 109.6 187.65 155.27 0zm-161.08 -379.45c0,53.14 -33.21,83.86 -93.82,83.86l-89.67 0 0 -168.55 89.67 0c60.61,0 93.82,31.55 93.82,84.69zm515.5 390.24c180.17,0 309.7,-127.04 309.7,-301.4 0,-174.36 -129.52,-301.39 -309.7,-301.39 -178.52,0 -309.7,127.03 -309.7,301.39 0,174.36 131.19,301.4 309.7,301.4zm0 -130.36c-95.48,0 -163.57,-70.57 -163.57,-171.04 0,-100.46 68.09,-171.04 163.57,-171.04 96.31,0 164.4,70.57 164.4,171.04 0,100.46 -68.09,171.04 -164.4,171.04zm649.18 129.53c153.61,0 249.09,-88.84 249.09,-239.13l0 -352.04 -142.81 0 0 340.42c0,78.88 -37.36,120.39 -106.28,120.39 -69.74,0 -106.28,-41.51 -106.28,-120.39l0 -340.42 -142.81 0 0 352.04c0,150.28 94.65,239.13 249.09,239.13zm366.88 -591.17l0 581.21 142.81 0 0 -164.4 88.84 0c140.32,0 225.01,-82.2 225.01,-208.4 0,-128.7 -84.69,-208.41 -225.01,-208.41l-231.65 0zm140.32 298.91l0 -177.68 76.39 0c60.61,0 96.32,32.38 96.32,88.84 0,55.63 -35.7,88.84 -96.32,88.84l-76.39 0z"/>
  </g>
  <path class="fil2" d="M262.28 1615.67c22.01,0 41.25,-9.19 54.29,-24.15 2.56,-2.56 2.14,-5.56 -0.85,-7.91l-3.63 -2.99c-2.99,-2.35 -5.77,-1.71 -8.55,1.28 -10.26,11.11 -24.36,17.95 -40.82,17.95 -30.99,0 -55.14,-23.51 -55.14,-56.21 0,-32.7 24.15,-56.21 55.14,-56.21 16.46,0 30.35,6.84 40.82,17.95 2.78,2.99 5.56,3.63 8.55,1.28l3.63 -2.99c2.99,-2.35 3.42,-5.34 0.85,-8.12 -13.04,-14.75 -32.28,-23.94 -54.29,-23.94 -40.39,0 -72.24,30.78 -72.24,72.03 0,41.25 31.85,72.02 72.24,72.02zm146.13 0c32.7,0 56.85,-24.36 56.85,-56 0,-31.63 -24.15,-56 -56.85,-56 -32.7,0 -56.85,24.37 -56.85,56 0,31.63 24.15,56 56.85,56zm0 -15.17c-23.3,0 -39.75,-17.31 -39.75,-40.82 0,-23.51 16.67,-40.82 39.75,-40.82 23.3,0 39.75,17.31 39.75,40.82 0,23.51 -16.46,40.82 -39.75,40.82zm227.57 -96.82c-17.95,0 -31.63,8.33 -38.9,21.37 -6.63,-13.25 -19.45,-21.37 -37.19,-21.37 -15.6,0 -27.79,6.2 -35.27,16.46l0 -8.76c0,-3.85 -2.14,-6.2 -5.77,-6.2l-4.28 0c-3.63,0 -5.77,2.35 -5.77,6.2l0 95.54c0,3.63 2.14,6.2 5.77,6.2l5.34 0c3.85,0 5.77,-2.56 5.77,-6.2l0 -57.28c0,-18.81 13.04,-30.99 30.99,-30.99 17.95,0 28.43,12.19 28.43,30.99l0 57.28c0,3.63 2.13,6.2 5.77,6.2l5.56 0c3.63,0 5.56,-2.56 5.56,-6.2l0 -57.28c0,-18.81 13.04,-30.99 30.99,-30.99 17.95,0 28.43,12.19 28.43,30.99l0 57.28c0,3.63 1.93,6.2 5.56,6.2l5.56 0c3.63,0 5.77,-2.56 5.77,-6.2l0 -58.78c0,-26.07 -15.82,-44.46 -42.32,-44.46zm219.45 0c-17.95,0 -31.63,8.33 -38.9,21.37 -6.63,-13.25 -19.45,-21.37 -37.19,-21.37 -15.6,0 -27.79,6.2 -35.27,16.46l0 -8.76c0,-3.85 -2.14,-6.2 -5.77,-6.2l-4.28 0c-3.63,0 -5.77,2.35 -5.77,6.2l0 95.54c0,3.63 2.14,6.2 5.77,6.2l5.34 0c3.85,0 5.77,-2.56 5.77,-6.2l0 -57.28c0,-18.81 13.04,-30.99 30.99,-30.99 17.95,0 28.43,12.19 28.43,30.99l0 57.28c0,3.63 2.13,6.2 5.77,6.2l5.56 0c3.63,0 5.56,-2.56 5.56,-6.2l0 -57.28c0,-18.81 13.04,-30.99 30.99,-30.99 17.95,0 28.43,12.19 28.43,30.99l0 57.28c0,3.63 1.93,6.2 5.56,6.2l5.56 0c3.63,0 5.77,-2.56 5.77,-6.2l0 -58.78c0,-26.07 -15.82,-44.46 -42.32,-44.46zm101.25 -18.17c7.27,0 13.25,-5.77 13.25,-13.25 0,-7.27 -5.98,-13.25 -13.25,-13.25 -7.27,0 -13.25,5.98 -13.25,13.25 0,7.48 5.98,13.25 13.25,13.25zm-2.78 127.59l5.35 0c3.63,0 5.77,-2.56 5.77,-6.2l0 -95.54c0,-3.85 -2.14,-6.2 -5.77,-6.2l-5.35 0c-3.63,0 -5.77,2.35 -5.77,6.2l0 95.54c0,3.63 2.14,6.2 5.77,6.2zm121.13 -11.54l-1.28 -2.35c-1.93,-3.2 -4.28,-4.7 -8.55,-2.14 -3.63,2.14 -6.84,3.63 -11.11,3.63 -10.26,0 -16.88,-5.98 -16.88,-19.87l0 -61.56 27.14 0c3.85,0 6.2,-2.14 6.2,-5.77l0 -2.56c0,-3.63 -2.35,-5.77 -6.2,-5.77l-27.14 0 0 -31.42c0,-4.49 -1.93,-7.06 -6.63,-5.77l-4.49 1.07c-3.85,1.07 -5.77,2.99 -5.77,6.2l0 29.92 -11.97 0c-3.63,0 -5.98,2.14 -5.98,5.77l0 2.56c0,3.63 2.35,5.77 5.98,5.77l11.97 0 0 62.2c0,22.65 13.25,34.19 32.06,34.19 8.12,0 14.32,-2.13 19.66,-5.77 2.35,-1.5 5.35,-4.49 2.99,-8.33zm43.12 -37.19l82.5 0c4.28,0 7.27,-2.78 7.27,-6.84 0,-15.17 -5.56,-29.28 -16.03,-39.54 -9.19,-8.98 -22.01,-14.32 -37.19,-14.32 -30.78,0 -53.86,24.15 -53.86,56.43 0,35.26 27.36,55.57 56.64,55.57 12.82,0 30.99,-4.06 43.82,-16.46 2.14,-2.14 3.63,-5.13 0.43,-8.55l-2.14 -1.93c-2.57,-2.78 -5.35,-3.2 -9.19,0 -11.54,9.62 -23.51,12.19 -32.91,12.19 -19.45,0 -37.4,-13.04 -39.33,-36.55zm36.55 -45.95c10.9,0 19.88,3.63 26.07,10.47 5.13,5.13 8.55,12.61 9.83,21.37l-72.24 0c2.78,-19.45 16.88,-31.85 36.33,-31.85zm190.81 -57.71l-4.49 1.07c-3.85,1.07 -5.56,2.99 -5.56,6.2l0 51.3c-9.41,-9.62 -22.66,-15.6 -38.26,-15.6 -32.06,0 -54.07,24.79 -54.07,56 0,30.99 22.01,56 54.07,56 16.24,0 29.5,-6.84 38.69,-16.88l0 8.12c0,3.63 2.14,6.2 5.77,6.2l4.92 0c3.63,0 5.77,-2.56 5.77,-6.2l0 -140.42c0,-4.49 -1.92,-7.05 -6.84,-5.77zm-46.59 139.78c-23.72,0 -38.69,-18.59 -38.69,-40.82 0,-22.23 14.96,-40.82 38.69,-40.82 20.52,0 38.26,13.47 38.26,40.82 0,27.15 -17.52,40.82 -38.26,40.82zm235.84 1.07l-1.28 -2.35c-1.93,-3.2 -4.28,-4.7 -8.55,-2.14 -3.63,2.14 -6.84,3.63 -11.11,3.63 -10.26,0 -16.88,-5.98 -16.88,-19.87l0 -61.56 27.14 0c3.85,0 6.2,-2.14 6.2,-5.77l0 -2.56c0,-3.63 -2.35,-5.77 -6.2,-5.77l-27.14 0 0 -31.42c0,-4.49 -1.93,-7.06 -6.63,-5.77l-4.49 1.07c-3.85,1.07 -5.77,2.99 -5.77,6.2l0 29.92 -11.97 0c-3.63,0 -5.98,2.14 -5.98,5.77l0 2.56c0,3.63 2.35,5.77 5.98,5.77l11.97 0 0 62.2c0,22.65 13.25,34.19 32.06,34.19 8.12,0 14.32,-2.13 19.66,-5.77 2.35,-1.5 5.35,-4.49 2.99,-8.33zm82.44 14.1c32.7,0 56.85,-24.36 56.85,-56 0,-31.63 -24.15,-56 -56.85,-56 -32.7,0 -56.85,24.37 -56.85,56 0,31.63 24.15,56 56.85,56zm0 -15.17c-23.3,0 -39.75,-17.31 -39.75,-40.82 0,-23.51 16.67,-40.82 39.75,-40.82 23.3,0 39.75,17.31 39.75,40.82 0,23.51 -16.46,40.82 -39.75,40.82zm212.55 -96.82c-13.68,0 -25.86,2.78 -40.82,13.25 -2.99,2.14 -4.49,5.77 -1.71,9.4l1.28 1.71c2.14,2.78 4.7,4.06 8.12,1.5 10.47,-7.91 22.23,-11.11 32.28,-11.11 17.52,0 29.28,10.26 29.28,25.86l0 8.55c-8.98,-4.28 -19.66,-7.69 -32.27,-7.69 -27.15,0 -45.31,14.32 -45.31,35.69 0,20.94 16.67,34.83 41.46,34.83 14.32,0 27.79,-6.2 36.76,-16.67l0 7.91c0,3.63 1.92,6.2 5.77,6.2l4.27 0c3.85,0 5.56,-2.14 5.56,-6.2l0 -59.42c0,-28.21 -16.46,-43.82 -44.67,-43.82zm-5.77 97.46c-15.81,0 -26.5,-7.91 -26.5,-20.09 0,-13.04 11.54,-22.02 29.07,-22.02 13.04,0 25.01,4.92 31.85,8.34l0 6.84c0,16.67 -17.31,26.93 -34.41,26.93zm226.65 -97.46c-15.6,0 -28.85,5.98 -38.26,15.6l0 -52.79c0,-4.49 -1.93,-7.05 -6.63,-5.77l-4.49 1.07c-3.85,1.07 -5.77,2.99 -5.77,6.2l0 138.93c0,3.63 2.14,6.2 5.77,6.2l4.7 0c3.63,0 5.77,-2.56 5.77,-6.2l0 -7.91c9.19,10.26 22.44,16.67 38.9,16.67 32.06,0 54.07,-25 54.07,-56 0,-31.2 -22.02,-56 -54.07,-56zm-1.92 96.82c-20.52,0 -37.4,-13.68 -38.04,-40.82 -0.64,-27.35 17.74,-40.82 38.04,-40.82 23.94,0 38.69,18.59 38.69,40.82 0,22.23 -14.75,40.82 -38.69,40.82zm109.8 -36.12l82.5 0c4.28,0 7.27,-2.78 7.27,-6.84 0,-15.17 -5.56,-29.28 -16.03,-39.54 -9.19,-8.98 -22.01,-14.32 -37.19,-14.32 -30.78,0 -53.86,24.15 -53.86,56.43 0,35.26 27.36,55.57 56.64,55.57 12.82,0 30.99,-4.06 43.82,-16.46 2.14,-2.14 3.63,-5.13 0.43,-8.55l-2.14 -1.93c-2.57,-2.78 -5.35,-3.2 -9.19,0 -11.54,9.62 -23.51,12.19 -32.91,12.19 -19.45,0 -37.4,-13.04 -39.33,-36.55zm36.55 -45.95c10.9,0 19.88,3.63 26.07,10.47 5.13,5.13 8.55,12.61 9.83,21.37l-72.24 0c2.78,-19.45 16.88,-31.85 36.33,-31.85zm152.76 83.14l-1.28 -2.35c-1.93,-3.2 -4.28,-4.7 -8.55,-2.14 -3.63,2.14 -6.84,3.63 -11.11,3.63 -10.26,0 -16.88,-5.98 -16.88,-19.87l0 -61.56 27.14 0c3.85,0 6.2,-2.14 6.2,-5.77l0 -2.56c0,-3.63 -2.35,-5.77 -6.2,-5.77l-27.14 0 0 -31.42c0,-4.49 -1.93,-7.06 -6.63,-5.77l-4.49 1.07c-3.85,1.07 -5.77,2.99 -5.77,6.2l0 29.92 -11.97 0c-3.63,0 -5.98,2.14 -5.98,5.77l0 2.56c0,3.63 2.35,5.77 5.98,5.77l11.97 0 0 62.2c0,22.65 13.25,34.19 32.06,34.19 8.12,0 14.32,-2.13 19.66,-5.77 2.35,-1.5 5.35,-4.49 2.99,-8.33zm93.35 0l-1.28 -2.35c-1.93,-3.2 -4.28,-4.7 -8.55,-2.14 -3.63,2.14 -6.84,3.63 -11.11,3.63 -10.26,0 -16.88,-5.98 -16.88,-19.87l0 -61.56 27.14 0c3.85,0 6.2,-2.14 6.2,-5.77l0 -2.56c0,-3.63 -2.35,-5.77 -6.2,-5.77l-27.14 0 0 -31.42c0,-4.49 -1.93,-7.06 -6.63,-5.77l-4.49 1.07c-3.85,1.07 -5.77,2.99 -5.77,6.2l0 29.92 -11.97 0c-3.63,0 -5.98,2.14 -5.98,5.77l0 2.56c0,3.63 2.35,5.77 5.98,5.77l11.97 0 0 62.2c0,22.65 13.25,34.19 32.06,34.19 8.12,0 14.32,-2.13 19.66,-5.77 2.35,-1.5 5.35,-4.49 2.99,-8.33zm43.12 -37.19l82.5 0c4.28,0 7.27,-2.78 7.27,-6.84 0,-15.17 -5.56,-29.28 -16.03,-39.54 -9.19,-8.98 -22.01,-14.32 -37.19,-14.32 -30.78,0 -53.86,24.15 -53.86,56.43 0,35.26 27.36,55.57 56.64,55.57 12.82,0 30.99,-4.06 43.82,-16.46 2.14,-2.14 3.63,-5.13 0.43,-8.55l-2.14 -1.93c-2.57,-2.78 -5.35,-3.2 -9.19,0 -11.54,9.62 -23.51,12.19 -32.91,12.19 -19.45,0 -37.4,-13.04 -39.33,-36.55zm36.55 -45.95c10.9,0 19.88,3.63 26.07,10.47 5.13,5.13 8.55,12.61 9.83,21.37l-72.24 0c2.78,-19.45 16.88,-31.85 36.33,-31.85zm150.63 -13.46c-3.63,-0.85 -5.98,-1.28 -10.9,-1.28 -12.83,0 -22.02,6.41 -27.79,16.67l0 -8.98c0,-3.85 -2.14,-6.2 -5.77,-6.2l-4.28 0c-3.63,0 -5.77,2.35 -5.77,6.2l0 95.54c0,3.63 2.14,6.2 5.77,6.2l5.34 0c3.85,0 5.77,-2.56 5.77,-6.2l0 -54.93c0,-19.24 9.4,-33.34 25.22,-33.34 2.56,0 4.91,0.43 7.48,1.28 3.2,0.85 6.41,0.43 7.69,-3.85l0.85 -3.42c1.5,-5.13 -0.64,-6.84 -3.63,-7.69zm164.25 -40.82c-4.7,-2.56 -10.9,-3.85 -17.31,-3.85 -17.95,0 -36.55,11.11 -36.55,37.4l0 7.48 -11.75 0c-3.85,0 -6.2,2.14 -6.2,5.77l0 2.56c0,3.63 2.35,5.77 6.2,5.77l11.75 0 0 87.63c0,3.63 2.14,6.2 5.77,6.2l5.34 0c3.85,0 5.77,-2.56 5.77,-6.2l0 -87.63 27.15 0c3.63,0 5.98,-2.14 5.98,-5.77l0 -2.56c0,-3.63 -2.35,-5.77 -5.98,-5.77l-27.15 0 0 -7.48c0,-16.03 9.41,-22.87 20.3,-22.87 3.85,0 6.84,0.64 10.47,2.57 2.78,1.28 5.98,1.92 8.34,-2.57l1.07 -2.56c2.14,-4.49 -0.43,-6.63 -3.2,-8.12zm115.36 41.04l-5.56 0c-3.63,0 -5.56,2.35 -5.56,6.2l0 58.35c0,18.81 -11.76,30.99 -29.92,30.99 -17.1,0 -28.43,-11.97 -28.43,-29.71l0 -59.63c0,-3.85 -1.93,-6.2 -5.56,-6.2l-5.56 0c-3.63,0 -5.77,2.35 -5.77,6.2l0 60.06c0,26.5 16.89,44.24 42.32,44.24 15.39,0 26.72,-5.98 33.98,-15.6l0 6.84c0,3.63 2.13,6.2 5.77,6.2l4.28 0c3.63,0 5.77,-2.56 5.77,-6.2l0 -95.54c0,-3.85 -2.14,-6.2 -5.77,-6.2zm115.57 96.39l-1.28 -2.35c-1.93,-3.2 -4.28,-4.7 -8.55,-2.14 -3.63,2.14 -6.84,3.63 -11.11,3.63 -10.26,0 -16.88,-5.98 -16.88,-19.87l0 -61.56 27.14 0c3.85,0 6.2,-2.14 6.2,-5.77l0 -2.56c0,-3.63 -2.35,-5.77 -6.2,-5.77l-27.14 0 0 -31.42c0,-4.49 -1.93,-7.06 -6.63,-5.77l-4.49 1.07c-3.85,1.07 -5.77,2.99 -5.77,6.2l0 29.92 -11.97 0c-3.63,0 -5.98,2.14 -5.98,5.77l0 2.56c0,3.63 2.35,5.77 5.98,5.77l11.97 0 0 62.2c0,22.65 13.25,34.19 32.06,34.19 8.12,0 14.32,-2.13 19.66,-5.77 2.35,-1.5 5.35,-4.49 2.99,-8.33zm119.85 -96.39l-5.56 0c-3.63,0 -5.56,2.35 -5.56,6.2l0 58.35c0,18.81 -11.76,30.99 -29.92,30.99 -17.1,0 -28.43,-11.97 -28.43,-29.71l0 -59.63c0,-3.85 -1.93,-6.2 -5.56,-6.2l-5.56 0c-3.63,0 -5.77,2.35 -5.77,6.2l0 60.06c0,26.5 16.89,44.24 42.32,44.24 15.39,0 26.72,-5.98 33.98,-15.6l0 6.84c0,3.63 2.13,6.2 5.77,6.2l4.28 0c3.63,0 5.77,-2.56 5.77,-6.2l0 -95.54c0,-3.85 -2.14,-6.2 -5.77,-6.2zm111.72 -0.21c-3.63,-0.85 -5.98,-1.28 -10.9,-1.28 -12.83,0 -22.02,6.41 -27.79,16.67l0 -8.98c0,-3.85 -2.14,-6.2 -5.77,-6.2l-4.28 0c-3.63,0 -5.77,2.35 -5.77,6.2l0 95.54c0,3.63 2.14,6.2 5.77,6.2l5.34 0c3.85,0 5.77,-2.56 5.77,-6.2l0 -54.93c0,-19.24 9.4,-33.34 25.22,-33.34 2.56,0 4.91,0.43 7.48,1.28 3.2,0.85 6.41,0.43 7.69,-3.85l0.85 -3.42c1.5,-5.13 -0.64,-6.84 -3.63,-7.69zm44.19 59.42l82.5 0c4.28,0 7.27,-2.78 7.27,-6.84 0,-15.17 -5.56,-29.28 -16.03,-39.54 -9.19,-8.98 -22.01,-14.32 -37.19,-14.32 -30.78,0 -53.86,24.15 -53.86,56.43 0,35.26 27.36,55.57 56.64,55.57 12.82,0 30.99,-4.06 43.82,-16.46 2.14,-2.14 3.63,-5.13 0.43,-8.55l-2.14 -1.93c-2.57,-2.78 -5.35,-3.2 -9.19,0 -11.54,9.62 -23.51,12.19 -32.91,12.19 -19.45,0 -37.4,-13.04 -39.33,-36.55zm36.55 -45.95c10.9,0 19.88,3.63 26.07,10.47 5.13,5.13 8.55,12.61 9.83,21.37l-72.24 0c2.78,-19.45 16.88,-31.85 36.33,-31.85z"/>
 </g>
</svg>
