<?xml version="1.0" encoding="UTF-8"?>
<!DOCTYPE svg PUBLIC "-//W3C//DTD SVG 1.1//EN" "http://www.w3.org/Graphics/SVG/1.1/DTD/svg11.dtd">
<!-- Creator: CorelDRAW 2019 (64-Bit) -->
<svg xmlns="http://www.w3.org/2000/svg" xml:space="preserve" width="8.26772in" height="8.26772in" version="1.1" style="shape-rendering:geometricPrecision; text-rendering:geometricPrecision; image-rendering:optimizeQuality; fill-rule:evenodd; clip-rule:evenodd"
viewBox="0 0 8267.72 8267.72"
 xmlns:xlink="http://www.w3.org/1999/xlink"
 xmlns:xodm="http://www.corel.com/coreldraw/odm/2003">
 <defs>
  <style type="text/css">
   <![CDATA[
    .str0 {stroke:#9D231F;stroke-width:11.81;stroke-miterlimit:2.61313}
    .str1 {stroke:#9D231F;stroke-width:7.43;stroke-miterlimit:2.61313}
    .fil2 {fill:none;fill-rule:nonzero}
    .fil0 {fill:#9D231F}
    .fil1 {fill:#9D231F;fill-rule:nonzero}
   ]]>
  </style>
 </defs>
 <g id="Layer_x0020_1">
  <metadata id="CorelCorpID_0Corel-Layer"/>
  <g id="_1868104098192">
   <path class="fil0" d="M1694.72 3395.5l-711.15 790.69 191.82 0 88.89 -102.93 0 341.54 -318.14 0 0 84.21 1487.8 0 0 -84.21 -276.04 0 0 -187.15 -61.82 -35.69 61.82 -39.16 0 -74.86 91.24 91.22 189.48 0 -293.57 -293.57 0 -349.72 -108.79 0 0 182.46 -341.54 -322.82zm-112.29 673.72l257.33 0 0 98.25 -257.33 0 0 -98.25zm0 177.79l257.33 0 0 98.25 -257.33 0 0 -98.25z"/>
   <path class="fil1" d="M2902.38 4313.13l-133.76 0 -23.4 54.53c-5.82,13.39 -8.69,23.4 -8.69,30.09 0,5.22 2.52,9.83 7.47,13.83 5.04,4.01 15.83,6.61 32.54,7.83l0 9.4 -108.81 0 0 -9.4c14.44,-2.61 23.75,-5.91 28.01,-10 8.7,-8.09 18.26,-24.7 28.78,-49.66l121.59 -284.31 8.87 0 120.29 287.36c9.65,23.13 18.43,38.09 26.35,44.96 7.91,6.87 18.96,10.8 33.05,11.66l0 9.4 -136.38 0 0 -9.4c13.74,-0.69 23.05,-3.04 27.92,-6.96 4.87,-3.83 7.31,-8.61 7.31,-14.26 0,-7.48 -3.48,-19.22 -10.27,-35.39l-20.87 -49.66zm-7.13 -18.87l-58.62 -139.6 -60.09 139.6 118.71 0zm391.08 134.55l-133.5 -290.75 0 230.91c0,21.22 2.26,34.45 6.87,39.75 6.26,7.13 16.27,10.7 29.84,10.7l12.18 0 0 9.4 -120.2 0 0 -9.4 12.17 0c14.61,0 24.97,-4.43 31.14,-13.3 3.74,-5.39 5.57,-17.83 5.57,-37.14l0 -225.78c0,-15.31 -1.65,-26.36 -5.04,-33.14 -2.44,-4.95 -6.79,-9.04 -13.14,-12.35 -6.43,-3.31 -16.61,-4.96 -30.7,-4.96l0 -9.47 97.85 0 125.33 270.4 123.33 -270.4 97.84 0 0 9.47 -12.01 0c-14.78,0 -25.21,4.44 -31.31,13.23 -3.74,5.48 -5.65,17.83 -5.65,37.22l0 225.78c0,21.22 2.44,34.45 7.22,39.75 6.26,7.13 16.17,10.7 29.74,10.7l12.01 0 0 9.4 -146.81 0 0 -9.4 12.26 0c14.78,0 25.14,-4.43 31.14,-13.3 3.74,-5.39 5.56,-17.83 5.56,-37.14l0 -230.91 -133.25 290.75 -8.44 0zm521.55 -115.67l-133.77 0 -23.4 54.53c-5.82,13.39 -8.69,23.4 -8.69,30.09 0,5.22 2.52,9.83 7.48,13.83 5.04,4.01 15.83,6.61 32.53,7.83l0 9.4 -108.8 0 0 -9.4c14.44,-2.61 23.74,-5.91 28,-10 8.7,-8.09 18.26,-24.7 28.79,-49.66l121.59 -284.31 8.87 0 120.28 287.36c9.65,23.13 18.43,38.09 26.35,44.96 7.92,6.87 18.96,10.8 33.06,11.66l0 9.4 -136.37 0 0 -9.4c13.74,-0.69 23.04,-3.04 27.91,-6.96 4.87,-3.83 7.31,-8.61 7.31,-14.26 0,-7.48 -3.48,-19.22 -10.27,-35.39l-20.87 -49.66zm-7.13 -18.87l-58.62 -139.6 -60.1 139.6 118.72 0zm530.24 134.55l-92.28 0 -116.98 -161.52c-8.61,0.26 -15.65,0.44 -21.13,0.44 -2.17,0 -4.53,0 -7.13,-0.09 -2.52,-0.09 -5.13,-0.17 -7.92,-0.35l0 100.37c0,21.74 2.44,35.23 7.13,40.53 6.53,7.48 16.17,11.22 29.05,11.22l13.57 0 0 9.4 -148.03 0 0 -9.4 12.96 0c14.61,0 25.04,-4.78 31.31,-14.26 3.57,-5.3 5.39,-17.83 5.39,-37.48l0 -223.26c0,-21.74 -2.44,-35.22 -7.13,-40.44 -6.62,-7.48 -16.53,-11.22 -29.57,-11.22l-12.96 0 0 -9.47 125.85 0c36.7,0 63.75,2.69 81.15,8.09 17.39,5.31 32.18,15.13 44.35,29.48 12.09,14.44 18.17,31.49 18.17,51.4 0,21.22 -6.87,39.66 -20.78,55.31 -13.83,15.57 -35.22,26.61 -64.27,33.05l71.32 99.15c16.26,22.79 30.35,37.93 42.01,45.4 11.74,7.39 27.05,12.18 45.92,14.26l0 9.4zm-245.44 -177.6c3.31,0 6.09,0 8.44,0.09 2.35,0.08 4.35,0.17 5.83,0.17 32.96,0 57.83,-7.13 74.54,-21.4 16.78,-14.26 25.13,-32.44 25.13,-54.53 0,-21.57 -6.78,-39.14 -20.26,-52.62 -13.48,-13.48 -31.4,-20.26 -53.67,-20.26 -9.82,0 -23.13,1.65 -40.01,4.87l0 143.68zm644.61 1.3c24,5.04 41.93,13.22 53.84,24.44 16.44,15.65 24.69,34.7 24.69,57.31 0,17.13 -5.48,33.56 -16.34,49.31 -10.87,15.74 -25.75,27.14 -44.71,34.35 -18.96,7.22 -47.84,10.87 -86.71,10.87l-163.07 0 0 -9.4 12.96 0c14.44,0 24.79,-4.61 31.05,-13.82 3.91,-5.92 5.91,-18.53 5.91,-37.93l0 -223.26c0,-21.4 -2.44,-34.88 -7.4,-40.44 -6.61,-7.48 -16.52,-11.22 -29.57,-11.22l-12.96 0 0 -9.47 149.24 0c27.93,0 50.28,2.09 67.06,6.18 25.49,6.08 44.97,16.87 58.36,32.44 13.39,15.56 20.09,33.4 20.09,53.66 0,17.31 -5.22,32.79 -15.74,46.53 -10.52,13.65 -26.09,23.74 -46.7,30.44zm-133.5 -13.83c6.35,1.22 13.48,2.09 21.57,2.7 8.09,0.61 16.96,0.87 26.62,0.87 24.79,0 43.48,-2.61 55.93,-8 12.52,-5.31 22.09,-13.57 28.7,-24.62 6.6,-10.96 9.91,-23.04 9.91,-36.17 0,-20.19 -8.26,-37.41 -24.7,-51.67 -16.53,-14.26 -40.53,-21.39 -72.1,-21.39 -17.05,0 -32.27,1.82 -45.92,5.57l0 132.71zm0 165.17c19.74,4.61 39.22,6.87 58.36,6.87 30.79,0 54.19,-6.96 70.36,-20.79 16.09,-13.83 24.17,-30.96 24.17,-51.31 0,-13.39 -3.65,-26.35 -10.96,-38.7 -7.3,-12.43 -19.22,-22.17 -35.65,-29.31 -16.44,-7.13 -36.88,-10.69 -61.15,-10.69 -10.52,0 -19.57,0.17 -27.05,0.43 -7.48,0.35 -13.48,0.96 -18.09,1.82l0 141.68zm521.8 -311.11l0 -9.47 122.37 0 0 9.47 -13.04 0c-13.57,0 -24,5.66 -31.31,17.05 -3.56,5.3 -5.39,17.48 -5.39,36.7l0 140.11c0,34.7 -3.39,61.57 -10.26,80.62 -6.87,19.14 -20.44,35.57 -40.53,49.23 -20.19,13.66 -47.58,20.52 -82.19,20.52 -37.76,0 -66.36,-6.52 -85.85,-19.65 -19.56,-13.05 -33.39,-30.62 -41.57,-52.7 -5.39,-15.13 -8.17,-43.48 -8.17,-85.15l0 -135.07c0,-21.22 -2.88,-35.13 -8.79,-41.74 -5.82,-6.61 -15.31,-9.92 -28.35,-9.92l-13.05 0 0 -9.47 149.33 0 0 9.47 -13.22 0c-14.27,0 -24.53,4.44 -30.61,13.48 -4.26,6.09 -6.35,18.87 -6.35,38.18l0 150.64c0,13.39 1.22,28.78 3.65,46.09 2.52,17.31 6.96,30.88 13.39,40.53 6.43,9.65 15.74,17.66 27.92,23.93 12.18,6.35 27.05,9.47 44.7,9.47 22.62,0 42.8,-4.95 60.62,-14.78 17.83,-9.82 30.09,-22.44 36.62,-37.83 6.52,-15.4 9.82,-41.4 9.82,-78.1l0 -139.94c0,-21.57 -2.44,-35.05 -7.13,-40.44 -6.7,-7.48 -16.52,-11.22 -29.57,-11.22l-13.05 0zm321.33 326.67l0 9.4 -148.11 0 0 -9.4 12.26 0c14.27,0 24.61,-4.17 31.05,-12.52 4.09,-5.39 6.18,-18.53 6.18,-39.23l0 -223.26c0,-17.48 -1.13,-29.05 -3.31,-34.61 -1.74,-4.26 -5.22,-7.91 -10.44,-10.96 -7.47,-4.09 -15.3,-6.09 -23.48,-6.09l-12.26 0 0 -9.47 148.11 0 0 9.47 -12.53 0c-14.09,0 -24.35,4.18 -30.79,12.44 -4.26,5.48 -6.43,18.53 -6.43,39.22l0 223.26c0,17.48 1.13,29.05 3.3,34.62 1.74,4.26 5.31,7.91 10.7,10.96 7.3,4.09 15.05,6.17 23.22,6.17l12.53 0zm344.11 -86.19l8.44 1.83 -29.57 93.76 -267.53 0 0 -9.4 13.05 0c14.61,0 25.05,-4.78 31.31,-14.26 3.56,-5.48 5.3,-18.09 5.3,-37.74l0 -223c0,-21.57 -2.34,-35.05 -7.13,-40.44 -6.61,-7.48 -16.44,-11.22 -29.48,-11.22l-13.05 0 0 -9.47 156.46 0 0 9.47c-18.35,-0.17 -31.22,1.48 -38.62,5.05 -7.39,3.57 -12.43,8.09 -15.13,13.57 -2.69,5.39 -4.08,18.43 -4.08,38.96l0 217.09c0,14.09 1.39,23.74 4.08,29.04 2,3.57 5.13,6.18 9.39,7.92 4.27,1.65 17.48,2.52 39.75,2.52l25.22 0c26.53,0 45.14,-1.91 55.84,-5.83 10.69,-3.91 20.43,-10.87 29.3,-20.78 8.79,-9.91 17.66,-25.66 26.44,-47.06zm60.94 95.59l0 -9.4 12.96 0c14.61,0 24.96,-4.69 31.05,-14.09 3.73,-5.56 5.65,-18.17 5.65,-37.65l0 -223.26c0,-21.57 -2.44,-35.05 -7.13,-40.44 -6.61,-7.48 -16.52,-11.22 -29.57,-11.22l-12.96 0 0 -9.47 140.64 0c51.57,0 90.89,5.91 117.85,17.57 26.87,11.73 48.53,31.31 64.96,58.62 16.35,27.39 24.61,58.96 24.61,94.8 0,48.09 -14.61,88.27 -43.84,120.54 -32.78,36.01 -82.79,54.02 -149.85,54.02l-154.37 0zm98.54 -24.96c21.57,4.78 39.66,7.14 54.27,7.14 39.4,0 72.1,-13.83 98.11,-41.58 26.01,-27.65 39.05,-65.22 39.05,-112.63 0,-47.66 -13.04,-85.32 -39.05,-112.8 -26.01,-27.57 -59.32,-41.31 -100.11,-41.31 -15.31,0 -32.7,2.44 -52.27,7.39l0 293.8zm410.74 -301.7l0 136.54 75.93 0c19.74,0 32.87,-2.96 39.48,-8.87 8.87,-7.82 13.74,-21.57 14.78,-41.31l9.39 0 0 120.28 -9.39 0c-2.34,-16.78 -4.78,-27.57 -7.13,-32.35 -3.04,-5.92 -8.09,-10.61 -15.05,-14.01 -6.96,-3.39 -17.65,-5.14 -32.09,-5.14l-75.93 0 0 113.94c0,15.3 0.69,24.61 2,27.91 1.4,3.31 3.74,5.91 7.13,7.91 3.39,1.92 9.92,2.87 19.39,2.87l58.62 0c19.48,0 33.75,-1.3 42.54,-4.07 8.87,-2.7 17.31,-8.01 25.48,-16.01 10.53,-10.52 21.31,-26.44 32.35,-47.66l10.17 0 -29.74 86.63 -266.31 0 0 -9.4 12.26 0c8.09,0 15.83,-2 23.13,-5.91 5.48,-2.7 9.13,-6.78 11.14,-12.18 1.91,-5.47 2.87,-16.61 2.87,-33.39l0 -224.48c0,-21.92 -2.18,-35.4 -6.61,-40.54 -6.09,-6.78 -16.27,-10.18 -30.53,-10.18l-12.26 0 0 -9.47 266.31 0 3.83 75.66 -10 0c-3.56,-18.17 -7.48,-30.61 -11.83,-37.39 -4.35,-6.78 -10.69,-12.01 -19.22,-15.57 -6.78,-2.52 -18.78,-3.83 -35.92,-3.83l-94.8 0zm594.69 326.67l-92.28 0 -116.98 -161.52c-8.61,0.26 -15.65,0.44 -21.14,0.44 -2.17,0 -4.52,0 -7.13,-0.09 -2.53,-0.09 -5.13,-0.17 -7.92,-0.35l0 100.37c0,21.74 2.43,35.23 7.13,40.53 6.52,7.48 16.17,11.22 29.05,11.22l13.57 0 0 9.4 -148.03 0 0 -9.4 12.96 0c14.61,0 25.04,-4.78 31.31,-14.26 3.57,-5.3 5.39,-17.83 5.39,-37.48l0 -223.26c0,-21.74 -2.44,-35.22 -7.13,-40.44 -6.61,-7.48 -16.52,-11.22 -29.57,-11.22l-12.96 0 0 -9.47 125.85 0c36.7,0 63.75,2.69 81.15,8.09 17.39,5.31 32.17,15.13 44.35,29.48 12.09,14.44 18.18,31.49 18.18,51.4 0,21.22 -6.87,39.66 -20.78,55.31 -13.83,15.57 -35.23,26.61 -64.27,33.05l71.32 99.15c16.26,22.79 30.35,37.93 42,45.4 11.74,7.39 27.05,12.18 45.93,14.26l0 9.4zm-245.44 -177.6c3.31,0 6.09,0 8.44,0.09 2.35,0.08 4.35,0.17 5.82,0.17 32.96,0 57.84,-7.13 74.54,-21.4 16.78,-14.26 25.13,-32.44 25.13,-54.53 0,-21.57 -6.78,-39.14 -20.26,-52.62 -13.48,-13.48 -31.39,-20.26 -53.66,-20.26 -9.83,0 -23.13,1.65 -40.01,4.87l0 143.68zm512.41 -175.77l0 119.5 -9.39 0c-3.14,-22.96 -8.61,-41.22 -16.44,-54.79 -7.92,-13.65 -19.23,-24.44 -33.83,-32.35 -14.61,-8 -29.66,-12 -45.32,-12 -17.65,0 -32.26,5.39 -43.83,16.17 -11.57,10.79 -17.31,23.05 -17.31,36.79 0,10.52 3.65,20.18 10.96,28.79 10.52,12.78 35.58,29.75 75.15,50.96 32.27,17.31 54.36,30.62 66.1,39.92 11.83,9.22 20.97,20.19 27.31,32.7 6.35,12.61 9.57,25.74 9.57,39.49 0,26.18 -10.18,48.7 -30.44,67.67 -20.35,18.96 -46.44,28.44 -78.36,28.44 -10.09,0 -19.49,-0.78 -28.36,-2.35 -5.22,-0.78 -16.17,-3.92 -32.7,-9.22 -16.52,-5.39 -27.05,-8.09 -31.49,-8.09 -4.26,0 -7.57,1.3 -10.09,3.83 -2.43,2.52 -4.26,7.83 -5.48,15.83l-9.39 0 0 -118.46 9.39 0c4.44,24.79 10.44,43.31 17.92,55.66 7.48,12.26 18.87,22.52 34.27,30.7 15.3,8.09 32.18,12.18 50.53,12.18 21.22,0 38,-5.57 50.35,-16.79 12.27,-11.22 18.44,-24.44 18.44,-39.74 0,-8.53 -2.35,-17.05 -6.96,-25.74 -4.7,-8.7 -12,-16.7 -21.83,-24.19 -6.61,-5.13 -24.7,-15.92 -54.28,-32.53 -29.57,-16.52 -50.53,-29.74 -63.05,-39.57 -12.53,-9.91 -21.92,-20.78 -28.44,-32.61 -6.43,-11.91 -9.65,-25.05 -9.65,-39.31 0,-24.79 9.48,-46.09 28.53,-64.01 19.05,-17.92 43.22,-26.87 72.62,-26.87 18.36,0 37.84,4.44 58.36,13.48 9.48,4.26 16.27,6.35 20.09,6.35 4.44,0 8.09,-1.3 10.87,-3.91 2.78,-2.69 5.04,-8 6.79,-15.92l9.39 0z"/>
   <path class="fil1" d="M5127.07 4817.72l17.08 -165.32c0.69,-6.35 1.04,-11.19 1.04,-14.63 0,-5.64 -1.6,-9.94 -4.84,-12.88 -3.2,-2.89 -9.04,-4.44 -17.37,-4.64l1.6 -5.44 74.29 0 -1.6 5.44c-9.94,-0.11 -16.78,1.65 -20.41,5.34 -3.65,3.65 -6.15,12.58 -7.54,26.81l-10.99 107.1 75.35 -116.3c0.09,-1.94 0.15,-3.64 0.15,-4.99 0,-5.44 -1.6,-9.64 -4.8,-12.59 -3.24,-2.89 -10.18,-4.74 -20.76,-5.39l1.15 -5.44 80.28 0 -1.59 5.44c-9.23,0.1 -15.48,0.85 -18.72,2.34 -2.34,1.05 -4.29,2.8 -5.94,5.2 -1.6,2.34 -2.91,6.44 -3.85,12.18 -0.3,1.65 -1.5,12.98 -3.6,33.96 -2.1,20.96 -5.24,49.48 -9.44,85.58l62.76 -95.38c6.84,-10.43 11.13,-17.77 12.89,-21.96 1.74,-4.19 2.59,-7.74 2.59,-10.68 0,-2.7 -1.15,-5.15 -3.49,-7.24 -2.34,-2.1 -6.35,-3.45 -11.98,-3.99l1.15 -5.44 58.82 0 -1.45 5.44c-5.19,0.4 -9.79,1.65 -13.78,3.79 -3.99,2.15 -8.69,6.24 -14.18,12.28 -3.09,3.5 -9.54,12.78 -19.28,27.81l-99.67 153.59 -5.39 0 16.08 -153.59 -99.61 153.59 -4.94 0zm219.74 -59.72c-0.7,4.89 -1.05,8.94 -1.05,12.19 0,8.63 3.1,16.03 9.24,22.17 6.14,6.09 13.58,9.14 22.37,9.14 7.04,0 13.79,-1.45 20.27,-4.35 6.49,-2.85 16.13,-9.24 28.91,-19.07l3.04 4.24c-23.12,22.91 -45.13,34.35 -66.11,34.35 -14.23,0 -24.97,-4.49 -32.2,-13.43 -7.19,-8.99 -10.78,-18.87 -10.78,-29.71 0,-14.53 4.44,-29.41 13.43,-44.64 8.99,-15.18 20.22,-27.01 33.81,-35.44 13.53,-8.44 27.5,-12.64 41.84,-12.64 10.33,0 17.97,2.11 22.97,6.3 4.94,4.2 7.44,9.14 7.44,14.88 0,8.15 -3.19,15.88 -9.63,23.27 -8.49,9.68 -20.97,17.47 -37.45,23.41 -10.93,3.99 -26.31,7.14 -46.09,9.34zm1 -7.14c14.43,-1.64 26.21,-4.49 35.24,-8.49 12.04,-5.33 21.03,-11.78 27.02,-19.22 5.99,-7.48 8.99,-14.57 8.99,-21.31 0,-4.1 -1.3,-7.39 -3.9,-9.94 -2.55,-2.55 -6.24,-3.8 -11.03,-3.8 -9.94,0 -20.48,5.29 -31.66,15.88 -11.19,10.58 -19.37,26.2 -24.67,46.88zm260.14 -145.7l-28.81 101.06c9.39,-9.74 17.52,-16.43 24.51,-20.03 7,-3.59 14.29,-5.39 21.87,-5.39 10.74,0 19.52,3.55 26.31,10.64 6.84,7.15 10.24,16.78 10.24,29.01 0,15.68 -4.44,31.31 -13.43,46.89 -8.99,15.53 -20.22,27.66 -33.8,36.35 -13.54,8.64 -26.92,12.99 -40.1,12.99 -14.73,0 -29.81,-5.49 -45.34,-16.53l44.48 -153.13c3.4,-11.79 5.09,-18.72 5.09,-20.78 0,-2.55 -0.74,-4.44 -2.3,-5.7 -2.24,-1.79 -5.59,-2.64 -9.98,-2.64 -2.05,0 -5.14,0.35 -9.34,1l0 -5.54 50.58 -8.19zm-56.57 196.57c9.73,5.39 18.32,8.09 25.71,8.09 8.59,0 17.48,-3.15 26.72,-9.44 9.23,-6.29 17.22,-16.93 23.96,-31.86 6.79,-14.88 10.19,-29.96 10.19,-45.19 0,-8.99 -2.2,-15.98 -6.65,-21.07 -4.44,-5.04 -9.69,-7.59 -15.73,-7.59 -9.08,0 -17.97,3.64 -26.61,10.88 -8.69,7.29 -14.88,17.38 -18.57,30.35l-19.02 65.81zm263.48 -117.43l-25.47 87.18c-3.79,12.98 -5.69,21.17 -5.69,24.57 0,1.74 0.35,3.04 0.94,3.89 0.65,0.8 1.5,1.25 2.61,1.25 1.65,0 3.44,-0.75 5.44,-2.3 2,-1.49 7.04,-7.54 15.18,-18.02l4.34 3.35c-7.69,12.18 -15.57,21.17 -23.66,26.91 -5.39,3.69 -10.54,5.55 -15.53,5.55 -3.8,0 -6.74,-1.05 -8.89,-3.2 -2.14,-2.15 -3.24,-4.94 -3.24,-8.34 0,-3.34 0.65,-7.69 1.9,-13.18 1.6,-7.19 6,-22.93 13.33,-47.09 -16.57,27.21 -30.46,45.98 -41.65,56.32 -11.13,10.33 -21.52,15.48 -31.06,15.48 -4.49,0 -8.29,-1.56 -11.43,-4.65 -3.1,-3.14 -4.65,-7.09 -4.65,-11.88 0,-7.29 2.15,-18.52 6.39,-33.66l12.73 -45.18c3.14,-10.83 4.69,-17.53 4.69,-20.17 0,-1.2 -0.4,-2.2 -1.24,-3 -0.8,-0.84 -1.7,-1.24 -2.69,-1.24 -2.05,0 -4.1,0.75 -6.14,2.2 -2.05,1.45 -6.69,6.89 -13.88,16.23l-4.55 -3.2c7.29,-11.33 15.08,-19.67 23.27,-25.02 6.24,-4.19 11.98,-6.3 17.23,-6.3 3.64,0 6.58,1.15 8.88,3.4 2.25,2.3 3.4,5.24 3.4,8.89 0,5.24 -1.95,14.67 -5.84,28.21l-13.73 47.23c-3.8,12.89 -5.69,21.02 -5.69,24.46 0,1.85 0.59,3.35 1.8,4.45 1.24,1.15 2.85,1.69 4.89,1.69 3.24,0 7.44,-1.6 12.58,-4.84 5.19,-3.2 12.08,-10.33 20.72,-21.42 8.64,-11.08 15.73,-21.47 21.37,-31.16 5.6,-9.68 11.59,-25.16 17.87,-46.28l3.25 -11.13 22.22 0zm78.34 -61.56c4.09,0 7.54,1.4 10.38,4.25 2.8,2.79 4.25,6.24 4.25,10.38 0,3.99 -1.45,7.39 -4.35,10.29 -2.85,2.89 -6.3,4.29 -10.28,4.29 -4,0 -7.44,-1.4 -10.34,-4.29 -2.85,-2.9 -4.3,-6.3 -4.3,-10.29 0,-4.15 1.4,-7.59 4.25,-10.38 2.8,-2.85 6.29,-4.25 10.39,-4.25zm1.9 58.06l-28.96 102.52c-1.95,6.94 -2.95,11.08 -2.95,12.43 0,1.6 0.45,2.85 1.4,3.85 0.94,0.95 2.04,1.45 3.29,1.45 1.45,0 3.19,-0.8 5.24,-2.35 5.6,-4.39 11.19,-10.63 16.83,-18.73l5.15 3.35c-6.65,10.14 -14.43,18.67 -23.42,25.61 -6.64,5.2 -12.98,7.74 -19.02,7.74 -4,0 -7.24,-1.2 -9.79,-3.55 -2.54,-2.4 -3.79,-5.39 -3.79,-9.04 0,-3.6 1.2,-9.58 3.65,-17.97l19.02 -65.56c3.09,-10.68 4.69,-17.43 4.69,-20.17 0,-2.14 -0.75,-3.89 -2.3,-5.24 -1.49,-1.4 -3.59,-2.04 -6.19,-2.04 -2.15,0 -6.59,0.5 -13.33,1.6l0 -5.7 50.48 -8.19zm105.95 -75.64l-50.03 174.06c-2.46,8.68 -3.65,14.03 -3.65,15.97 0,1.44 0.46,2.65 1.4,3.65 0.9,0.94 2.05,1.45 3.44,1.45 1.85,0 3.84,-0.8 5.99,-2.5 5.04,-3.99 10.39,-10.18 15.93,-18.57l4.39 4.54c-9.28,13.08 -17.78,22.17 -25.61,27.36 -5.74,3.69 -11.19,5.55 -16.37,5.55 -3.7,0 -6.8,-1.25 -9.29,-3.8 -2.5,-2.55 -3.74,-5.44 -3.74,-8.79 0,-3.5 1.6,-10.69 4.7,-21.62l39.64 -137.21c3.24,-11.23 4.84,-17.68 4.84,-19.33 0,-2.34 -0.95,-4.24 -2.79,-5.79 -1.85,-1.49 -4.74,-2.24 -8.64,-2.24 -2.24,0 -5.65,0.35 -10.23,1l0 -5.39 50.03 -8.34zm158.77 0l-50.33 172.61c-2.69,9.38 -4.09,15.52 -4.09,18.42 0,1 0.45,1.9 1.25,2.8 0.85,0.84 1.69,1.3 2.54,1.3 1.3,0 2.8,-0.65 4.55,-1.9 3.34,-2.34 8.88,-8.19 16.68,-17.53l4.99 3.05c-7.04,9.73 -14.13,17.67 -21.27,23.72 -7.19,6.04 -13.88,9.04 -20.12,9.04 -3.34,0 -6.04,-1.15 -8.18,-3.5 -2.15,-2.34 -3.26,-5.65 -3.26,-9.93 0,-5.59 1.5,-13.04 4.4,-22.37l5.69 -18.17c-14.13,21.87 -27.01,36.95 -38.59,45.33 -7.99,5.79 -15.68,8.64 -22.97,8.64 -7.39,0 -13.88,-3.3 -19.37,-9.84 -5.55,-6.59 -8.3,-15.53 -8.3,-26.87 0,-14.53 4.64,-30.05 13.93,-46.53 9.24,-16.48 21.47,-29.86 36.7,-40.2 11.98,-8.29 23.01,-12.44 33.06,-12.44 5.29,0 9.78,1.06 13.63,3.2 3.8,2.15 7.54,5.7 11.24,10.69l14.33 -50.93c1.1,-3.59 1.94,-6.44 2.65,-8.59 1.15,-3.94 1.75,-7.13 1.75,-9.69 0,-2.05 -0.75,-3.74 -2.2,-5.09 -2.05,-1.69 -4.69,-2.49 -7.89,-2.49 -2.25,0 -5.94,0.35 -11.14,1l0 -5.39 50.33 -8.34zm-54.28 103.85c0,-6.24 -1.8,-11.28 -5.39,-15.07 -3.59,-3.8 -8.19,-5.69 -13.78,-5.69 -12.28,0 -25.07,10.13 -38.39,30.41 -13.29,20.33 -19.98,39.7 -19.98,58.22 0,7.35 1.65,12.93 4.84,16.78 3.25,3.85 7.09,5.79 11.59,5.79 10.13,0 22.86,-10.98 38.14,-32.96 15.33,-21.92 22.97,-41.09 22.97,-57.47zm208.22 -24.71l-2.6 9.64 -21.37 0 -16.08 63.96c-7.13,28.16 -14.33,49.98 -21.51,65.36 -10.24,21.77 -21.27,36.75 -33.06,45.04 -8.99,6.35 -17.98,9.54 -26.92,9.54 -5.83,0 -10.83,-1.75 -14.93,-5.3 -3.04,-2.39 -4.54,-5.59 -4.54,-9.48 0,-3.09 1.25,-5.84 3.75,-8.14 2.5,-2.25 5.54,-3.39 9.13,-3.39 2.65,0 4.85,0.8 6.65,2.44 1.8,1.7 2.69,3.59 2.69,5.74 0,2.15 -1,4.14 -3.04,6 -1.55,1.34 -2.34,2.39 -2.34,3.04 0,0.9 0.34,1.59 1.04,2.05 0.85,0.7 2.2,1.05 4.1,1.05 4.19,0 8.58,-1.35 13.23,-3.94 4.59,-2.65 8.74,-6.59 12.33,-11.79 3.65,-5.24 7.04,-12.78 10.24,-22.62 1.4,-4.09 5.04,-17.57 10.98,-40.5l25.46 -99.06 -25.46 0 2.05 -9.64c8.09,0 13.73,-0.55 16.98,-1.7 3.19,-1.09 6.14,-3.24 8.83,-6.44 2.7,-3.15 6.19,-9.09 10.48,-17.78 5.74,-11.68 11.24,-20.76 16.53,-27.21 7.19,-8.64 14.78,-15.18 22.71,-19.52 7.94,-4.35 15.44,-6.49 22.47,-6.49 7.4,0 13.39,1.89 17.83,5.65 4.5,3.75 6.74,7.84 6.74,12.19 0,3.44 -1.1,6.29 -3.34,8.63 -2.25,2.35 -5.14,3.54 -8.64,3.54 -3.05,0 -5.49,-0.9 -7.39,-2.64 -1.9,-1.75 -2.85,-3.85 -2.85,-6.3 0,-1.55 0.65,-3.49 1.9,-5.79 1.25,-2.3 1.89,-3.85 1.89,-4.59 0,-1.4 -0.45,-2.4 -1.3,-3.1 -1.3,-0.95 -3.15,-1.45 -5.59,-1.45 -6.14,0 -11.63,1.95 -16.52,5.85 -6.54,5.19 -12.39,13.28 -17.53,24.32 -2.64,5.74 -7.49,20.02 -14.48,42.83l21.47 0zm138.01 0l-25.47 87.18c-3.8,12.98 -5.69,21.17 -5.69,24.57 0,1.74 0.35,3.04 0.94,3.89 0.65,0.8 1.5,1.25 2.6,1.25 1.65,0 3.44,-0.75 5.44,-2.3 2,-1.49 7.04,-7.54 15.18,-18.02l4.34 3.35c-7.69,12.18 -15.57,21.17 -23.67,26.91 -5.39,3.69 -10.54,5.55 -15.53,5.55 -3.79,0 -6.74,-1.05 -8.89,-3.2 -2.15,-2.15 -3.24,-4.94 -3.24,-8.34 0,-3.34 0.65,-7.69 1.9,-13.18 1.59,-7.19 5.99,-22.93 13.33,-47.09 -16.58,27.21 -30.46,45.98 -41.65,56.32 -11.14,10.33 -21.52,15.48 -31.06,15.48 -4.5,0 -8.29,-1.56 -11.43,-4.65 -3.1,-3.14 -4.65,-7.09 -4.65,-11.88 0,-7.29 2.15,-18.52 6.39,-33.66l12.74 -45.18c3.14,-10.83 4.69,-17.53 4.69,-20.17 0,-1.2 -0.4,-2.2 -1.25,-3 -0.8,-0.84 -1.69,-1.24 -2.69,-1.24 -2.04,0 -4.09,0.75 -6.14,2.2 -2.05,1.45 -6.69,6.89 -13.88,16.23l-4.54 -3.2c7.29,-11.33 15.07,-19.67 23.27,-25.02 6.24,-4.19 11.98,-6.3 17.23,-6.3 3.64,0 6.59,1.15 8.88,3.4 2.24,2.3 3.4,5.24 3.4,8.89 0,5.24 -1.94,14.67 -5.84,28.21l-13.73 47.23c-3.8,12.89 -5.7,21.02 -5.7,24.46 0,1.85 0.6,3.35 1.8,4.45 1.25,1.15 2.85,1.69 4.89,1.69 3.25,0 7.44,-1.6 12.58,-4.84 5.19,-3.2 12.09,-10.33 20.72,-21.42 8.64,-11.08 15.73,-21.47 21.37,-31.16 5.59,-9.68 11.59,-25.16 17.87,-46.28l3.24 -11.13 22.23 0zm89.17 -39.8l-11.43 39.8 22.97 0 -2.5 9.24 -22.82 0 -25.17 86.28c-2.7,9.29 -4.1,15.28 -4.1,17.97 0,1.7 0.41,2.95 1.2,3.85 0.75,0.85 1.7,1.3 2.74,1.3 2.44,0 5.69,-1.7 9.69,-5.15 2.34,-1.94 7.54,-7.94 15.63,-17.97l4.84 3.65c-8.98,13.08 -17.48,22.32 -25.46,27.66 -5.44,3.69 -10.98,5.55 -16.52,5.55 -4.3,0 -7.79,-1.35 -10.54,-4 -2.75,-2.69 -4.09,-6.14 -4.09,-10.33 0,-5.24 1.55,-13.28 4.69,-24.11l24.42 -84.68 -22.07 0 1.45 -5.74c10.74,-2.9 19.67,-7.29 26.76,-13.08 7.13,-5.79 15.07,-15.88 23.87,-30.21l6.44 0zm148.94 39.8l-25.46 87.18c-3.8,12.98 -5.7,21.17 -5.7,24.57 0,1.74 0.35,3.04 0.95,3.89 0.65,0.8 1.5,1.25 2.6,1.25 1.65,0 3.44,-0.75 5.43,-2.3 2,-1.49 7.04,-7.54 15.19,-18.02l4.33 3.35c-7.69,12.18 -15.57,21.17 -23.66,26.91 -5.39,3.69 -10.54,5.55 -15.53,5.55 -3.8,0 -6.74,-1.05 -8.89,-3.2 -2.15,-2.15 -3.25,-4.94 -3.25,-8.34 0,-3.34 0.65,-7.69 1.9,-13.18 1.6,-7.19 6,-22.93 13.33,-47.09 -16.57,27.21 -30.45,45.98 -41.65,56.32 -11.13,10.33 -21.51,15.48 -31.06,15.48 -4.5,0 -8.29,-1.56 -11.43,-4.65 -3.1,-3.14 -4.65,-7.09 -4.65,-11.88 0,-7.29 2.15,-18.52 6.39,-33.66l12.73 -45.18c3.14,-10.83 4.69,-17.53 4.69,-20.17 0,-1.2 -0.4,-2.2 -1.25,-3 -0.8,-0.84 -1.7,-1.24 -2.69,-1.24 -2.05,0 -4.1,0.75 -6.14,2.2 -2.05,1.45 -6.69,6.89 -13.88,16.23l-4.55 -3.2c7.29,-11.33 15.08,-19.67 23.27,-25.02 6.24,-4.19 11.98,-6.3 17.22,-6.3 3.64,0 6.59,1.15 8.88,3.4 2.25,2.3 3.4,5.24 3.4,8.89 0,5.24 -1.94,14.67 -5.84,28.21l-13.73 47.23c-3.79,12.89 -5.69,21.02 -5.69,24.46 0,1.85 0.59,3.35 1.8,4.45 1.25,1.15 2.85,1.69 4.89,1.69 3.24,0 7.44,-1.6 12.58,-4.84 5.19,-3.2 12.09,-10.33 20.73,-21.42 8.64,-11.08 15.72,-21.47 21.36,-31.16 5.6,-9.68 11.59,-25.16 17.88,-46.28l3.24 -11.13 22.22 0zm26.96 4.69l50.48 -8.19 -21.07 71.06c17.08,-29.16 32.61,-49.53 46.53,-61.11 7.89,-6.64 14.33,-9.94 19.33,-9.94 3.2,0 5.74,0.95 7.59,2.85 1.85,1.9 2.8,4.65 2.8,8.24 0,6.44 -1.65,12.58 -4.99,18.42 -2.35,4.4 -5.69,6.59 -10.09,6.59 -2.24,0 -4.19,-0.7 -5.79,-2.2 -1.59,-1.45 -2.59,-3.69 -2.99,-6.7 -0.2,-1.89 -0.65,-3.09 -1.3,-3.69 -0.8,-0.76 -1.7,-1.15 -2.8,-1.15 -1.65,0 -3.2,0.4 -4.7,1.15 -2.49,1.39 -6.39,5.19 -11.54,11.43 -8.09,9.54 -16.87,21.93 -26.31,37.15 -4.09,6.44 -7.63,13.69 -10.54,21.77 -4.09,11.14 -6.44,17.83 -7.04,20.08l-4.69 18.42 -22.37 0 27.06 -90.82c3.15,-10.54 4.69,-18.08 4.69,-22.57 0,-1.74 -0.75,-3.19 -2.2,-4.34 -1.94,-1.59 -4.55,-2.34 -7.74,-2.34 -2.04,0 -5.84,0.45 -11.28,1.3l-1.05 -5.39zm128.07 69c-0.7,4.89 -1.05,8.94 -1.05,12.19 0,8.63 3.1,16.03 9.24,22.17 6.14,6.09 13.57,9.14 22.37,9.14 7.04,0 13.78,-1.45 20.27,-4.35 6.49,-2.85 16.13,-9.24 28.91,-19.07l3.05 4.24c-23.12,22.91 -45.13,34.35 -66.11,34.35 -14.23,0 -24.97,-4.49 -32.2,-13.43 -7.19,-8.99 -10.79,-18.87 -10.79,-29.71 0,-14.53 4.44,-29.41 13.43,-44.64 8.99,-15.18 20.22,-27.01 33.81,-35.44 13.53,-8.44 27.5,-12.64 41.84,-12.64 10.33,0 17.97,2.11 22.97,6.3 4.94,4.2 7.44,9.14 7.44,14.88 0,8.15 -3.2,15.88 -9.64,23.27 -8.49,9.68 -20.97,17.47 -37.45,23.41 -10.93,3.99 -26.31,7.14 -46.09,9.34zm1 -7.14c14.43,-1.64 26.21,-4.49 35.25,-8.49 12.04,-5.33 21.02,-11.78 27.02,-19.22 5.99,-7.48 8.98,-14.57 8.98,-21.31 0,-4.1 -1.3,-7.39 -3.9,-9.94 -2.55,-2.55 -6.24,-3.8 -11.03,-3.8 -9.94,0 -20.48,5.29 -31.66,15.88 -11.19,10.58 -19.37,26.2 -24.67,46.88zm207.51 -70.06l-8.93 44.89 -5.39 0c-0.5,-13.08 -3.3,-22.57 -8.34,-28.51 -5.09,-5.94 -11.38,-8.94 -18.87,-8.94 -6.04,0 -10.89,1.65 -14.43,4.99 -3.55,3.3 -5.34,7.29 -5.34,11.98 0,3.2 0.7,6.29 2.15,9.19 1.4,2.94 4.5,7.04 9.29,12.33 12.68,13.83 20.87,24.27 24.57,31.26 3.69,7.04 5.54,13.69 5.54,19.92 0,10.14 -4.19,19.13 -12.63,26.96 -8.44,7.89 -19.08,11.79 -31.96,11.79 -7.04,0 -15.13,-1.65 -24.32,-4.95 -3.2,-1.19 -5.69,-1.75 -7.44,-1.75 -4.39,0 -7.69,2.2 -9.94,6.7l-5.44 0 8.94 -47.39 5.39 0c0.6,14.83 3.69,25.31 9.24,31.46 5.54,6.14 13.19,9.24 22.82,9.24 7.39,0 13.28,-2.1 17.63,-6.24 4.34,-4.15 6.49,-9.24 6.49,-15.28 0,-3.9 -0.75,-7.54 -2.3,-10.84 -2.74,-5.84 -8.49,-13.93 -17.22,-24.26 -8.69,-10.34 -14.33,-18.13 -16.83,-23.27 -2.45,-5.2 -3.69,-10.34 -3.69,-15.53 0,-9.44 3.45,-17.43 10.29,-23.96 6.89,-6.54 15.72,-9.8 26.56,-9.8 3.14,0 5.94,0.25 8.49,0.71 1.35,0.29 4.55,1.4 9.58,3.29 5,1.9 8.34,2.85 10.04,2.85 4.14,0 7.69,-2.3 10.48,-6.85l5.59 0zm35.31 106.2c4.19,0 7.74,1.4 10.58,4.3 2.9,2.89 4.34,6.34 4.34,10.43 0,4.15 -1.44,7.59 -4.39,10.49 -2.94,2.89 -6.44,4.29 -10.53,4.29 -4.1,0 -7.6,-1.4 -10.44,-4.29 -2.89,-2.9 -4.35,-6.34 -4.35,-10.49 0,-4.09 1.46,-7.54 4.35,-10.43 2.85,-2.9 6.35,-4.3 10.44,-4.3zm77.44 0c4.19,0 7.74,1.4 10.59,4.3 2.9,2.89 4.34,6.34 4.34,10.43 0,4.15 -1.44,7.59 -4.39,10.49 -2.94,2.89 -6.44,4.29 -10.54,4.29 -4.09,0 -7.59,-1.4 -10.44,-4.29 -2.89,-2.9 -4.35,-6.34 -4.35,-10.49 0,-4.09 1.45,-7.54 4.35,-10.43 2.85,-2.9 6.35,-4.3 10.44,-4.3zm77.44 0c4.2,0 7.74,1.4 10.59,4.3 2.89,2.89 4.34,6.34 4.34,10.43 0,4.15 -1.45,7.59 -4.4,10.49 -2.94,2.89 -6.44,4.29 -10.53,4.29 -4.09,0 -7.59,-1.4 -10.44,-4.29 -2.9,-2.9 -4.35,-6.34 -4.35,-10.49 0,-4.09 1.45,-7.54 4.35,-10.43 2.85,-2.9 6.34,-4.3 10.44,-4.3z"/>
   <line class="fil2 str0" x1="2663.63" y1="4509" x2="7259.22" y2= "4509" />
   <path class="fil1" d="M7241.01 4039.22l0 -36.79 -13.74 0 0 -4.93 33.06 0 0 4.93 -13.8 0 0 36.79 -5.52 0zm22.77 0l0 -41.72 8.31 0 9.87 29.54c0.91,2.74 1.58,4.81 1.99,6.17 0.47,-1.51 1.22,-3.74 2.22,-6.69l9.99 -29.02 7.43 0 0 41.72 -5.31 0 0 -34.91 -12.13 34.91 -4.98 0 -12.06 -35.51 0 35.51 -5.32 0z"/>
   <path class="fil2 str1" d="M7265.42 3967.81c27.91,0 50.54,22.64 50.54,50.55 0,27.91 -22.64,50.56 -50.54,50.56 -27.91,0 -50.56,-22.64 -50.56,-50.56 0,-27.91 22.65,-50.55 50.56,-50.55z"/>
  </g>
 </g>
</svg>
