<?xml version="1.0" encoding="UTF-8"?>
<!DOCTYPE svg PUBLIC "-//W3C//DTD SVG 1.1//EN" "http://www.w3.org/Graphics/SVG/1.1/DTD/svg11.dtd">
<!-- Creator: CorelDRAW 2019 (64-Bit) -->
<svg xmlns="http://www.w3.org/2000/svg" xml:space="preserve" width="8.26772in" height="8.26772in" version="1.1" style="shape-rendering:geometricPrecision; text-rendering:geometricPrecision; image-rendering:optimizeQuality; fill-rule:evenodd; clip-rule:evenodd"
viewBox="0 0 8267.72 8267.72"
 xmlns:xlink="http://www.w3.org/1999/xlink"
 xmlns:xodm="http://www.corel.com/coreldraw/odm/2003">
 <defs>
  <style type="text/css">
   <![CDATA[
    .str0 {stroke:#35302F;stroke-width:13.89;stroke-miterlimit:10}
    .fil1 {fill:#FEFEFE;fill-rule:nonzero}
    .fil0 {fill:#9E284E;fill-rule:nonzero}
   ]]>
  </style>
 </defs>
 <g id="Layer_x0020_1">
  <metadata id="CorelCorpID_0Corel-Layer"/>
  <g id="_2689599138960">
   <polygon class="fil0 str0" points="7895.05,5502.54 367.06,5502.54 367.06,2770.79 7895.05,2770.79 "/>
   <polygon class="fil1" points="2739.48,4917.08 2179.17,4917.08 1839.11,4324.07 2399.19,4324.07 "/>
   <polygon class="fil1" points="1837.18,3356.22 2117.92,3839.19 1497.51,4917.11 938.52,4917.11 "/>
   <path class="fil1" d="M4460.98 3902.77c-12.15,-19.53 -26.67,-33.93 -43.56,-43.17 -16.91,-9.23 -38.02,-13.86 -63.37,-13.86 -28.52,0 -50.3,6.47 -65.35,19.41 -15.05,12.94 -22.57,29.18 -22.57,48.71 0,32.75 24.02,55.98 72.08,69.7l67.33 19.8c54.38,15.84 94.38,37.9 120,66.14 25.61,28.26 38.42,61.92 38.42,100.99 0,24.83 -4.89,47.92 -14.65,69.31 -9.78,21.39 -23.76,39.88 -41.98,55.45 -18.22,15.58 -40.27,27.86 -66.13,36.83 -25.88,8.97 -54.66,13.46 -86.34,13.46 -63.9,0 -114.33,-14.26 -151.29,-42.77 -36.96,-28.52 -59.15,-69.7 -66.54,-123.57l98.22 -18.22c5.81,35.38 18.88,61.66 39.21,78.81 20.32,17.17 47.13,25.74 80.39,25.74 34.32,0 60.72,-8.31 79.21,-24.95 18.48,-16.63 27.72,-38.14 27.72,-64.56 0,-14.26 -2.37,-26.4 -7.13,-36.43 -4.76,-10.03 -11.49,-18.88 -20.2,-26.54 -8.71,-7.65 -19.01,-14.12 -30.89,-19.41 -11.88,-5.28 -24.69,-10.03 -38.41,-14.26l-64.96 -19.01c-46.47,-13.72 -80.79,-32.87 -102.97,-57.43 -22.18,-24.56 -33.26,-54.26 -33.26,-89.11 0,-21.65 4.48,-41.58 13.46,-59.8 8.97,-18.22 21.78,-33.78 38.42,-46.73 16.63,-12.94 36.43,-23.1 59.41,-30.5 22.97,-7.39 48.71,-11.09 77.23,-11.09 48.58,0 88.18,8.85 118.81,26.54 30.62,17.7 53.59,41.58 68.92,71.68l-79.21 38.81zm-518.02 -127.53l100.59 0 0 560.01 -100.59 0 0 -560.01zm-408.72 266.94l-188.52 -266.94 115.64 0 131.49 193.27 132.28 -193.27 114.06 0 -190.89 267.73 206.74 292.28 -115.65 0 -148.91 -215.45 -150.5 215.45 -116.43 0 210.69 -293.07zm-643.96 87.92l201.98 0 -99.01 -191.69 -102.97 191.69zm242.38 79.21l-284.36 0 -68.91 125.94 -107.72 0 322.38 -580.6 316.04 580.6 -109.31 0 -68.12 -125.94z"/>
   <path class="fil1" d="M6811.89 3775.24l100.59 0 0 224.95 257.43 -224.95 128.32 0 -295.45 254.26 303.37 305.75 -133.07 0 -240.8 -245.55 -19.8 17.43 0 228.12 -100.59 0 0 -560.01zm-613.07 189.31l0 370.7 -100.59 0 0 -575.85 480 389.71 0 -373.87 100.59 0 0 579.02 -480 -389.7zm-600.4 165.54l201.98 0 -99.01 -191.69 -102.97 191.69zm242.38 79.21l-284.36 0 -68.91 125.94 -107.72 0 322.38 -580.6 316.04 580.6 -109.3 0 -68.12 -125.94zm-687.53 45.15c36.96,0 66.54,-6.85 88.71,-20.59 22.18,-13.72 33.27,-34.58 33.27,-62.57 0,-28.52 -11.09,-49.5 -33.27,-62.97 -22.18,-13.47 -51.76,-20.2 -88.71,-20.2l-75.24 0 0 166.34 75.24 0zm-35.64 -240c33.26,0 58.48,-7.13 75.65,-21.39 17.15,-14.26 25.74,-34.06 25.74,-59.41 0,-25.35 -8.59,-45.15 -25.74,-59.41 -17.17,-14.26 -42.12,-21.39 -74.85,-21.39l-40.39 0 0 161.59 39.6 0zm-140.2 -239.21l134.66 0c68.12,0 119.33,14 153.66,41.98 34.32,27.99 51.49,65.22 51.49,111.68 0,20.07 -5.42,39.74 -16.24,59.01 -10.83,19.28 -25.48,34.99 -43.96,47.13 35.67,10.57 64.38,28.12 86.15,52.67 21.77,24.56 32.66,53.46 32.66,86.74 0,21.12 -4.22,41.46 -12.65,60.99 -8.44,19.54 -21.75,36.71 -39.93,51.48 -18.18,14.79 -41.5,26.54 -69.95,35.25 -28.46,8.71 -62.72,13.07 -102.78,13.07l-173.12 0 0 -560.01z"/>
   <polygon class="fil0" points="7895.05,5502.54 367.06,5502.54 367.06,2770.79 7895.05,2770.79 "/>
   <polygon class="fil1" points="2739.48,4917.08 2179.17,4917.08 1839.11,4324.07 2399.19,4324.07 "/>
   <polygon class="fil1" points="1837.18,3356.22 2117.92,3839.19 1497.51,4917.11 938.52,4917.11 "/>
   <path class="fil1" d="M4460.98 3902.77c-12.15,-19.53 -26.67,-33.93 -43.56,-43.17 -16.91,-9.23 -38.02,-13.86 -63.37,-13.86 -28.52,0 -50.3,6.47 -65.35,19.41 -15.05,12.94 -22.57,29.18 -22.57,48.71 0,32.75 24.02,55.98 72.08,69.7l67.33 19.8c54.38,15.84 94.38,37.9 120,66.14 25.61,28.26 38.42,61.92 38.42,100.99 0,24.83 -4.89,47.92 -14.65,69.31 -9.78,21.39 -23.76,39.88 -41.98,55.45 -18.22,15.58 -40.27,27.86 -66.13,36.83 -25.88,8.97 -54.66,13.46 -86.34,13.46 -63.9,0 -114.33,-14.26 -151.29,-42.77 -36.96,-28.52 -59.15,-69.7 -66.54,-123.57l98.22 -18.22c5.81,35.38 18.88,61.66 39.21,78.81 20.32,17.17 47.13,25.74 80.39,25.74 34.32,0 60.72,-8.31 79.21,-24.95 18.48,-16.63 27.72,-38.14 27.72,-64.56 0,-14.26 -2.37,-26.4 -7.13,-36.43 -4.76,-10.03 -11.49,-18.88 -20.2,-26.54 -8.71,-7.65 -19.01,-14.12 -30.89,-19.41 -11.88,-5.28 -24.69,-10.03 -38.41,-14.26l-64.96 -19.01c-46.47,-13.72 -80.79,-32.87 -102.97,-57.43 -22.18,-24.56 -33.26,-54.26 -33.26,-89.11 0,-21.65 4.48,-41.58 13.46,-59.8 8.97,-18.22 21.78,-33.78 38.42,-46.73 16.63,-12.94 36.43,-23.1 59.41,-30.5 22.97,-7.39 48.71,-11.09 77.23,-11.09 48.58,0 88.18,8.85 118.81,26.54 30.62,17.7 53.59,41.58 68.92,71.68l-79.21 38.81zm-518.02 -127.53l100.59 0 0 560.01 -100.59 0 0 -560.01zm-408.72 266.94l-188.52 -266.94 115.64 0 131.49 193.27 132.28 -193.27 114.06 0 -190.89 267.73 206.74 292.28 -115.65 0 -148.91 -215.45 -150.5 215.45 -116.43 0 210.69 -293.07zm-643.96 87.92l201.98 0 -99.01 -191.69 -102.97 191.69zm242.38 79.21l-284.36 0 -68.91 125.94 -107.72 0 322.38 -580.6 316.04 580.6 -109.31 0 -68.12 -125.94z"/>
   <path class="fil1" d="M6811.89 3775.24l100.59 0 0 224.95 257.43 -224.95 128.32 0 -295.45 254.26 303.37 305.75 -133.07 0 -240.8 -245.55 -19.8 17.43 0 228.12 -100.59 0 0 -560.01zm-613.07 189.31l0 370.7 -100.59 0 0 -575.85 480 389.71 0 -373.87 100.59 0 0 579.02 -480 -389.7zm-600.4 165.54l201.98 0 -99.01 -191.69 -102.97 191.69zm242.38 79.21l-284.36 0 -68.91 125.94 -107.72 0 322.38 -580.6 316.04 580.6 -109.3 0 -68.12 -125.94zm-687.53 45.15c36.96,0 66.54,-6.85 88.71,-20.59 22.18,-13.72 33.27,-34.58 33.27,-62.57 0,-28.52 -11.09,-49.5 -33.27,-62.97 -22.18,-13.47 -51.76,-20.2 -88.71,-20.2l-75.24 0 0 166.34 75.24 0zm-35.64 -240c33.26,0 58.48,-7.13 75.65,-21.39 17.15,-14.26 25.74,-34.06 25.74,-59.41 0,-25.35 -8.59,-45.15 -25.74,-59.41 -17.17,-14.26 -42.12,-21.39 -74.85,-21.39l-40.39 0 0 161.59 39.6 0zm-140.2 -239.21l134.66 0c68.12,0 119.33,14 153.66,41.98 34.32,27.99 51.49,65.22 51.49,111.68 0,20.07 -5.42,39.74 -16.24,59.01 -10.83,19.28 -25.48,34.99 -43.96,47.13 35.67,10.57 64.38,28.12 86.15,52.67 21.77,24.56 32.66,53.46 32.66,86.74 0,21.12 -4.22,41.46 -12.65,60.99 -8.44,19.54 -21.75,36.71 -39.93,51.48 -18.18,14.79 -41.5,26.54 -69.95,35.25 -28.46,8.71 -62.72,13.07 -102.78,13.07l-173.12 0 0 -560.01z"/>
  </g>
 </g>
</svg>
