<?xml version="1.0" encoding="UTF-8"?><svg id="Layer_2" xmlns="http://www.w3.org/2000/svg" xmlns:xlink="http://www.w3.org/1999/xlink" viewBox="0 0 168.06 124.23"><defs><style>.cls-1{fill:#fd7748;}.cls-1,.cls-2,.cls-3,.cls-4,.cls-5,.cls-6,.cls-7,.cls-8,.cls-9,.cls-10,.cls-11,.cls-12,.cls-13{stroke-width:0px;}.cls-1,.cls-3,.cls-4,.cls-5,.cls-6,.cls-7,.cls-8,.cls-13{fill-rule:evenodd;}.cls-14{clip-path:url(#clippath);}.cls-2{fill:url(#linear-gradient);}.cls-3{fill:#5bf8aa;}.cls-4{fill:#793bdf;}.cls-5{fill:#fc6654;}.cls-6{fill:#fc893a;}.cls-7{fill:#3eedbf;}.cls-15{clip-path:url(#clippath-1);}.cls-16{clip-path:url(#clippath-4);}.cls-17{clip-path:url(#clippath-3);}.cls-18{clip-path:url(#clippath-2);}.cls-8{fill:#894bf2;}.cls-9{clip-rule:evenodd;fill:none;}.cls-10{fill:url(#linear-gradient-4);}.cls-11{fill:url(#linear-gradient-2);}.cls-12{fill:url(#linear-gradient-3);}.cls-13{fill:#3becc1;}</style><clipPath id="clippath"><path class="cls-9" d="M117.88,101.91l40.4-21.18c-.76-1.9-1.84-3.65-3.04-5.3-4.02-5.51-10.01-8.08-16.78-8.08-8.8,0-16.02,4.15-19.87,12.13-3.3,6.85-3.46,15.35-.72,22.44M89,66.72l11.6-4.9c-.7-.29-1.54-.6-1.86-.75-1.05-.49-3.35-1.35-4.38-1.88-.53.55-1.01,1.23-1.42,1.83-.6.87-1.16,1.78-1.79,2.63-.66.89-1.51,2.13-2.14,3.07ZM86.52,23.57c-1.32.98-2.6,2.13-3.82,3.21-1.68,1.5-3.34,3.03-5.03,4.51-1.55,1.36-3.18,2.74-4.88,3.9-1.07.73-2.73,1.75-4.07,1.68l-.35-.02-.22-.27c-1.26-1.59-1.06-3.11.03-4.72.56-.82,1.27-1.59,1.95-2.31.87-.93,1.76-1.84,2.62-2.78,2.35-2.57,4.63-5.2,6.88-7.85.91-1.07,1.94-2.28,3.05-3.15.89-.7,1.79-1.13,2.91-1.29,1.19-.17,2.51-.02,3.7.13,1.93.24,3.85.52,5.78.73,1.36.15,4.39.43,5.52,1.02l1.3.68-1.3.69c-1.85.98-2.87,2.18-4.01,3.88-.54.81-1.02,1.71-1.51,2.55-.42.71-1.03,1.79-1.65,2.33l-.39.35-6.53-3.27ZM109.66,1.48c1.88-1.34,4.16-1.78,6.41-1.29,1.97.43,3.86,1.57,5.03,3.23,1.37,1.93,1.88,4.24,1.38,6.56-.42,1.98-1.58,3.85-3.24,5.02-1.96,1.38-4.28,2.04-6.65,1.5-2.03-.47-3.78-1.75-4.97-3.45-1.18-1.69-1.79-3.79-1.55-5.85.28-2.39,1.63-4.34,3.57-5.72ZM119.57,31.89c3.17-2.78,6.11-5.86,9.12-8.8.88-.86,1.68-1.8,2.71-2.5,1.26-.86,2.66-1.12,3.85.02,1.23,1.19,1.12,2.62.29,3.99-.33.55-.74,1.05-1.15,1.53-.32.37-.67.75-.96,1.14-2.51,3.44-5.16,6.77-7.8,10.11-.91,1.15-1.78,2.34-2.71,3.47-.64.77-1.4,1.61-2.3,2.06-.93.46-1.87.45-2.84.13-1.22-.4-2.48-1.25-3.52-1.99-3.46-2.47-6.87-5.04-10.17-7.72-1.79-1.45-3.91-3.06-5.15-5.02-1.49-2.37-1.34-4.76-.03-7.2,1.24-2.31,4.29-3.75,6.87-3.49,3.48.34,6.39,4.12,8.28,6.75,1.12,1.56,2.16,3.17,3.26,4.74.62.87,1.42,2,2.26,2.79ZM56.66,70.24c1.47,1.48,1.67,3.24.11,4.8l-.62.62-.02.02c-1.66,1.47-3.4,1.46-5.02-.15h0c-5.32-5.53-11.11-8.18-18.77-8.18-14.26,0-24.07,10.74-24.07,24.79s9.77,24.55,24.07,24.55c7.66,0,13.45-2.65,18.77-8.17h0c1.61-1.62,3.36-1.64,5.02-.16h.02s.62.63.62.63c1.56,1.56,1.36,3.32-.11,4.8-6.48,7.04-14.81,10.44-24.32,10.44C13.91,124.23,0,110.45,0,92.01s13.91-32.22,32.34-32.22c9.51,0,17.84,3.4,24.32,10.44ZM121.45,108.26c4.44,5.69,10.84,8.43,18.09,8.43s14.78-3.38,20.11-8.54c1.62-1.57,3.35-1.41,4.99-.04l.72.6c1.67,1.39,1.29,3.42-.05,4.84-6.4,6.8-16.24,10.68-25.52,10.68-8.19,0-16.23-2.88-22.25-8.49-6.64-6.19-9.73-14.62-9.73-23.61,0-8.49,2.76-16.81,8.62-23.06,5.77-6.15,13.62-9.27,22.03-9.27s16.55,3.4,22.19,10.12c1.68,2,3.05,4.07,4.21,6.41,1.09,2.19,1.97,4.5,2.92,6.76l.27.65-46.61,24.52ZM87.86,42.42c2.06-1.21,4.32-1.37,6.58-.7.95.28,2.16,1.05,3,1.58,1.35.86,2.68,1.79,3.98,2.72,2.25,1.61,4.43,3.29,6.66,4.94,2.55,1.89,5.44,3.49,7.74,5.69,2.37,2.27,3.62,4.99,1.38,7.88-1.29,1.67-4.39,2.5-6.34,3.24-9.34,3.55-18.7,7.06-28.08,10.49-1.52.55-2.7,1.81-3.67,3.06-1.27,1.62-2.35,3.42-3.55,5.1l-12.56,17.6c-1.34,1.88-3.83,3.69-5.94,1.64-1.03-1-1.29-2.18-.88-3.52.29-.95.84-1.69,1.19-2.58v-.03s4.88-9.62,4.88-9.62v-.02c.93-1.59,1.61-3.29,2.54-4.87.44-.75.69-1.54,1.08-2.32.4-.81.91-1.53,1.33-2.32.46-.84.69-1.75,1.18-2.6,1.91-3.36,3.65-6.89,5.39-10.34,1.85-3.69,3.68-7.41,5.61-11.07,1.93-3.67,4.99-11.91,8.46-13.95Z"/></clipPath><clipPath id="clippath-1"><path class="cls-9" d="M161.53,26.58c-2.63.86-7.51,4.37-9.62,6.75-8.13,9.16-1.74,15.16-1.79,20.17-.07,5.96-6.32,12.98-9.69,16.33-1.76,1.91-4.46,3.94-6.64,5.56-1.83,1.36-5.49,4.01-6.68,5.65-2.86,2.2-8.34,12.32-10.84,16.88-1.66,3.03-3.32,6.13-5.36,8.4-.9,1-2.25,2.51-2.97,3.86-1.79,3.33-2.08,9.04,3.27,3.27,1.97-2.13,1.86-1.47,4.76-1.69,2.97-.22,6.85-3.45,7.88-5.37,1.67-1.78,3.39-5.67,4.73-8.43,1.59-3.29,2.85-5.89,4.72-8.7,3.12-4.68,8.12-9.7,12.8-13.23,2.05-1.9,9.85-7.49,13.04-10.13,1.17-.97,3.42-2.68,4.19-3.77.99-.55,3.32-3.2,4.43-4.39,1.35-1.45,2.8-3,4.39-4.46,3.85-3.54,6.13-4.77,12.45-4.63v-13.46c-1.61.5-4.71,4.76-7.45,2.84l-.8-.64c-1.16-1-.54-.72-1.04-1.26-.4-.44-.34-.15-.76-.51-1.8-1.53.49-3.67.62-3.88.39-.64.22-.8.79-1.3.03-.03.08-.06.11-.09.3-.25.39-.29.7-.54.22-.17.48-.39.7-.58,1.36-1.17,2.12-1.07,3.93-1.8.82-.33,2.4-1.06,3.19-1.24V10.15c-1.03.18-2.96,1.14-4.07,1.54-1.38.51-2.94.97-4.55.99-4.28.07-4.59-3.02-3.17-7.02.84-1.97,1.99-3.65,3.13-4.93.68-.76,1.1-1.19,1.88-1.91.59-.55,1.49-1.17,1.93-1.77h-20.18c.33,2.93,1.2,6.47,1.74,9.44.31,1.69.58,3.55-.06,5.07-.43,1.02-1.65,2.51-2.77,2.86-.43,1.12-4.55,1.94-6.84,4.55-1.29,1.47-2.29,6.58-8.35,9.45-3.38,1.6-4.02,1.94-6.77,4.81-.74.78-2.28,2.66-3.05,3.06-1.03,1.48-3.51,2.36-3.41,4.52,1.23.16,2.18-1.96,3.06-2.62,1.64-1.22,2.12-.47,3.61-2.37,1.25-1.59,1.14-1.79,3.1-2.77,3.54-1.78,7.89-4.05,11.06-6.6,1.22-.98,1.78-1.98,2.89-3.01.88-.82,2.49-1.66,3.55-2.44,2.47-1.81,4.37-3.63,6.18-5.78,6.33-7.53,11.85-.6,4.86,6.39-3.18,3.18-5.26,3.6-6.82,4.96"/></clipPath><linearGradient id="linear-gradient" x1="163.52" y1="34.55" x2="118.15" y2="93.05" gradientUnits="userSpaceOnUse"><stop offset="0" stop-color="#3becc1"/><stop offset=".36" stop-color="#3eedbe"/><stop offset=".7" stop-color="#4af1b6"/><stop offset="1" stop-color="#5bf8aa"/></linearGradient><clipPath id="clippath-2"><path class="cls-9" d="M146.66,116.22c.4-.11,3.06-3.54,4.46-4.81,2.21-2.02,3.21-1.66,4.53-4.98,2.53-6.38,1.17-6.35,6.65-13.13,3.61-4.47,10.51-10.54,13.84-14.88,1.41-1.83,4.08-8.48,1.25-7.85l-2.27,1.49c-.95,1.07-.91,2.58-2.04,3.35-.82.56-2.27,1-3.29,1.59-1.13.67-1.92,1.42-3.09,2.08-5.55,3.14-.77,3.96-6.97,8.53-2.53,1.87-2.91,3.92-4.43,6.04-2.22,3.11-4.21,3.67-6.68,9.13-1.11,2.47-2.15,5.03-3.47,7.21-.7,1.15-1.4,2.06-2.24,2.88-1.1,1.06-2.64,2.02-2.79,2.21-3.73,1.18-2.72,1.41-8.11,2.52-6.28,1.29-9.66,1.66-14.95,6.02l-5.78,4.97h29.09c.14-.72,2.36-5.27,2.9-6.44.5-1.09.93-2.08,1.52-3.04.67-1.08,1.38-1.7,1.86-2.88"/></clipPath><linearGradient id="linear-gradient-2" x1="155.41" y1="86.48" x2="133.06" y2="116.05" gradientUnits="userSpaceOnUse"><stop offset="0" stop-color="#f4cb06"/><stop offset="1" stop-color="#fca82b"/></linearGradient><clipPath id="clippath-3"><path class="cls-9" d="M81.23,6.13c-.89.24-2.74,1.93-3.39,2.83-3.03,4.19-.79,4.96-2.89,8.17-1.37,2.09-3.54.37-6.19,2.44-.19,3.71.13,3.57-1.1,6.34-.89,2.02-.4,1.25-2.56,2.79-.5.36-.64.33-.85,1.14-1.95,1.68-.64,1.94-3.91,2.49-1.31.22-1.63.06-2.28,1.09-.41.66-.55,1.49-1.1,2.37-1.18,1.9-3.31,3.71-5.1,4.98l-1.81,1.08c-.3.21-.2.11-.41.33-1.05-.13-3.99,1.3-4.75,2-3.22,2.98-7.84,11.96-9.19,12.48-.69,1.75-4.68,5.74-6.23,7.22-2.77,2.65-6.19,4.52-5.65,7.56.9.02.96-.4,1.5-1.18.82-1.19,2.77-3.23,3.96-3.72.32-.58.59-.56,1.45-1.1,1.59-.99,3.47-2.01,4.88-3.17,2.16-1.79,3.22-3.68,5.48-5.46,2.76-2.16,11.97-5.18,12.32-9.39,1.25-1.16.21-2.02,3.59-3.44.76-.32,1.64-1.05,2.28-1.19.88-.19,2.18.1,3.24-.04,1.42-2.42.71-4.5,5.81-4.27,1.23,0,3.12.29,3.97-.4,2.09-.96,1.67-2.94,1.52-5.8-.08-1.67-.06-1.59.39-2.8.21-.56.63-1.93.88-2.43.85-1.66,3.6-1.95,4.78-2.82.75-.55.17-.01.69-.79,1.17-1.73,1.9-6.17,1.84-7.71.41-.49.26-.26.51-1.05,1.04-3.25,2.89-5.5,6.14-5.55,2.31,0,4.24,1.35,5.92-.31,1.65-1.63.9-4.27,1.19-6.94.61-5.51,7.7-2.45,9.8-4.81h-19.16c-.07,2.66-.52,4.3-1.55,6-.61,1.01-1.9,1.69-2.88,2.32l-.74.47s-.1.06-.13.09c-.04.02-.11.07-.14.09-.03.02-.1.06-.14.09"/></clipPath><linearGradient id="linear-gradient-3" x1="71.74" y1="27.02" x2="45.2" y2="52.67" gradientUnits="userSpaceOnUse"><stop offset="0" stop-color="#fc6654"/><stop offset="1" stop-color="#fca82b"/></linearGradient><clipPath id="clippath-4"><path class="cls-9" d="M139.55,107.57c2.4-1.03,3.02-4.83,4.03-7.88,2.2-6.65,4.14-4.11,6.41-11.33,1.58-5.02,8.95-7.66,6.73-9.85-1.52-1.42-5.26,2.12-5.77,3.31-1.35,3.12-1.37,4.41-4.69,5.46-3.85,1.22-2.4,2.34-4.34,5.71-2.74,4.77-4.84,1.35-6.38,3.53-2.49.58-1.73,5.13-4.18,7.86-1.03,1.15-5.86,4.5-4.52,7.17,1.43,1.18,2.02-.52,2.63-1.31,1.94-2.53,8.59-.82,10.09-2.68"/></clipPath><linearGradient id="linear-gradient-4" x1="145.1" y1="92.64" x2="133.36" y2="101.91" xlink:href="#linear-gradient-3"/></defs><g id="Layer_1-2"><path class="cls-4" d="M117.88,101.91l40.4-21.18c-.76-1.9-1.84-3.65-3.04-5.3-4.02-5.51-10.01-8.08-16.78-8.08-8.8,0-16.02,4.15-19.87,12.13-3.3,6.85-3.46,15.35-.72,22.44M89,66.72l11.6-4.9c-.7-.29-1.54-.6-1.86-.75-1.05-.49-3.35-1.35-4.38-1.88-.53.55-1.01,1.23-1.42,1.83-.6.87-1.16,1.78-1.79,2.63-.66.89-1.51,2.13-2.14,3.07ZM86.52,23.57c-1.32.98-2.6,2.13-3.82,3.21-1.68,1.5-3.34,3.03-5.03,4.51-1.55,1.36-3.18,2.74-4.88,3.9-1.07.73-2.73,1.75-4.07,1.68l-.35-.02-.22-.27c-1.26-1.59-1.06-3.11.03-4.72.56-.82,1.27-1.59,1.95-2.31.87-.93,1.76-1.84,2.62-2.78,2.35-2.57,4.63-5.2,6.88-7.85.91-1.07,1.94-2.28,3.05-3.15.89-.7,1.79-1.13,2.91-1.29,1.19-.17,2.51-.02,3.7.13,1.93.24,3.85.52,5.78.73,1.36.15,4.39.43,5.52,1.02l1.3.68-1.3.69c-1.85.98-2.87,2.18-4.01,3.88-.54.81-1.02,1.71-1.51,2.55-.42.71-1.03,1.79-1.65,2.33l-.39.35-6.53-3.27ZM109.66,1.48c1.88-1.34,4.16-1.78,6.41-1.29,1.97.43,3.86,1.57,5.03,3.23,1.37,1.93,1.88,4.24,1.38,6.56-.42,1.98-1.58,3.85-3.24,5.02-1.96,1.38-4.28,2.04-6.65,1.5-2.03-.47-3.78-1.75-4.97-3.45-1.18-1.69-1.79-3.79-1.55-5.85.28-2.39,1.63-4.34,3.57-5.72ZM119.57,31.89c3.17-2.78,6.11-5.86,9.12-8.8.88-.86,1.68-1.8,2.71-2.5,1.26-.86,2.66-1.12,3.85.02,1.23,1.19,1.12,2.62.29,3.99-.33.55-.74,1.05-1.15,1.53-.32.37-.67.75-.96,1.14-2.51,3.44-5.16,6.77-7.8,10.11-.91,1.15-1.78,2.34-2.71,3.47-.64.77-1.4,1.61-2.3,2.06-.93.46-1.87.45-2.84.13-1.22-.4-2.48-1.25-3.52-1.99-3.46-2.47-6.87-5.04-10.17-7.72-1.79-1.45-3.91-3.06-5.15-5.02-1.49-2.37-1.34-4.76-.03-7.2,1.24-2.31,4.29-3.75,6.87-3.49,3.48.34,6.39,4.12,8.28,6.75,1.12,1.56,2.16,3.17,3.26,4.74.62.87,1.42,2,2.26,2.79ZM56.66,70.24c1.47,1.48,1.67,3.24.11,4.8l-.62.62-.02.02c-1.66,1.47-3.4,1.46-5.02-.15h0c-5.32-5.53-11.11-8.18-18.77-8.18-14.26,0-24.07,10.74-24.07,24.79s9.77,24.55,24.07,24.55c7.66,0,13.45-2.65,18.77-8.17h0c1.61-1.62,3.36-1.64,5.02-.16h.02s.62.63.62.63c1.56,1.56,1.36,3.32-.11,4.8-6.48,7.04-14.81,10.44-24.32,10.44C13.91,124.23,0,110.45,0,92.01s13.91-32.22,32.34-32.22c9.51,0,17.84,3.4,24.32,10.44ZM121.45,108.26c4.44,5.69,10.84,8.43,18.09,8.43s14.78-3.38,20.11-8.54c1.62-1.57,3.35-1.41,4.99-.04l.72.6c1.67,1.39,1.29,3.42-.05,4.84-6.4,6.8-16.24,10.68-25.52,10.68-8.19,0-16.23-2.88-22.25-8.49-6.64-6.19-9.73-14.62-9.73-23.61,0-8.49,2.76-16.81,8.62-23.06,5.77-6.15,13.62-9.27,22.03-9.27s16.55,3.4,22.19,10.12c1.68,2,3.05,4.07,4.21,6.41,1.09,2.19,1.97,4.5,2.92,6.76l.27.65-46.61,24.52ZM87.86,42.42c2.06-1.21,4.32-1.37,6.58-.7.95.28,2.16,1.05,3,1.58,1.35.86,2.68,1.79,3.98,2.72,2.25,1.61,4.43,3.29,6.66,4.94,2.55,1.89,5.44,3.49,7.74,5.69,2.37,2.27,3.62,4.99,1.38,7.88-1.29,1.67-4.39,2.5-6.34,3.24-9.34,3.55-18.7,7.06-28.08,10.49-1.52.55-2.7,1.81-3.67,3.06-1.27,1.62-2.35,3.42-3.55,5.1l-12.56,17.6c-1.34,1.88-3.83,3.69-5.94,1.64-1.03-1-1.29-2.18-.88-3.52.29-.95.84-1.69,1.19-2.58v-.03s4.88-9.62,4.88-9.62v-.02c.93-1.59,1.61-3.29,2.54-4.87.44-.75.69-1.54,1.08-2.32.4-.81.91-1.53,1.33-2.32.46-.84.69-1.75,1.18-2.6,1.91-3.36,3.65-6.89,5.39-10.34,1.85-3.69,3.68-7.41,5.61-11.07,1.93-3.67,4.99-11.91,8.46-13.95Z"/><g class="cls-14"><path class="cls-4" d="M111.01,65.67c.44-.32.9-.66,1.36-1.18.99-1.14.02-.51,1.42-1.26.52-.28.89-.69,1.47-1.02.76-.42,1-.83,1.55-1.07,1.47-.63,1.87-.78,3.22-2.01.68-.63,2.13-1.88,3.2-1.91l-.06.94c.44-.37.35.81.36-.73,0-.99-.78-.69-1.3-.54l.65-.28s.12-.07.16-.09c.04-.02.07-.09.17-.11.1-.02.12-.07.18-.12v-3.03c6.44-1.97,5.31-8.54,6.34-11.43-.02.05-.55.45.25.12.81-.33.05.41.69-.57-1.52.02-1.2-1.49.1-2.96.63-.71,1.77-1.99,2.67-2.13.77-.4,2.3-2.28,3.05-3.06,2.74-2.87,3.38-3.21,6.77-4.81,6.06-2.87,7.05-7.97,8.35-9.45,2.29-2.61,6.41-3.43,6.84-4.55.11-1-.06-.3.41-.9.04-.05.4-.36.45-.4.92-.82,1.59-1.87,1.77-3.33.11-.89-.24-2.6-.37-3.37-.09-.47-.13-1.11-.24-1.56l-.22-.6c-.15-.33-.11-.27-.26-.48-4.58-.08-8.08,3.26-10.58,6.87l-2.18,3.42c-1.84,2.97-3.81,6.38-6.17,8.84-4.27,4.46-9.42,8.66-14.91,11.24-1.28.6-2.44,1.25-3.72,2.01-2.33,1.38-4.56,3.02-6.16,5.56-1.59,2.52-2.88,5.44-4.48,7.6-4.69,6.35-9.6,6.65-9.84,3-.18-2.6,2.79-6.5,4.21-8,.35-.37.43-.39.72-.76,1.03-1.33,2.41-2.5,3.58-3.8l4.38-4.47c3.53-3.67,6.3-7.36,8.98-11.93.17-.28.4-.73.54-.98l2.86-4.7c1.01-1.54,1.4-2.06,2.48-3.5.94-1.25,1.77-2.21,2.83-3.09,1.79-1.5,5.13-4.09,4.79-7.04-.4-3.45-5.27-5.92-11.01-2.14-2.7,1.77-3.69,3.56-5.23,5.04-.34.32-.35.27-.77.71-.67.71-.85.94-1.45,1.49-.97.91-1.77,2.23-2.83,3.09l-5.03,5.31c-.31.33-.34.43-.71.76-.14.12-.6.49-.83.65-2.83,1.99-6.44,1.83-9.39,3.18-1.15.53-.85.31-1.71,1.21l-12.94,10.38c-4.14,3.59-7.28,8.9-10.04,13.94-3.87,7.06-8.56,13.61-14.01,18.86-.51.49-.9.92-1.46,1.46l-4.61,4.21c-.65.51-.99.84-1.56,1.37-1.82,1.7-4.07,2.65-6.08,4.03l-1.83,1.73s-.07.08-.1.11l-3.05,3.19.58.15s.1.02.12.03l.24,3.73c1.52,0,3.05.04,4.56,0,2.68-.06.9.96,1.95,3.04.38-.18,1.47-1.21,1.87-1.6,1.81-1.75,4.04-3.13,6.1-4.28,4.24-2.38,8.97-4.6,12.57-8.23,1.26-1.27,2.12-2.22,3.42-3.52,1.06-1.06,4.61-5.63,6.07-3.51.65.94.15,2.01.44,3,.39.69,2.16.42,2.83.43.96,0,1.92,0,2.87,0,2.8,0,15.74.19,16.67-.04,1.71-.89-1.12.94.39-.37.32-.28.36-.33,1.34-.32.03-.06.04-.14.05-.18l.45-1.08c.64-1.55.11-1.11-.35-1.76.81-.7,1.3-.02,1.79.02.44.03,1.06-.39,1.6-.55-.69,1.28-.82-.33-.83,1.88.8-.44,1.31-1.27,1.82-2.1.65-1.07,1.07-1.69,1.81-1.73"/><path class="cls-4" d="M60.22,11c-2.49,2.59-4.16,4.77-7.31,6.79-1.63,1.04-8.26,3.17-9.6,4.11-5.87,2.45-9.54,8.51-10.24,8.65-.29,1.09-.85,1.63-1.37,2.48-.49.82-.91,1.58-1.37,2.53-.59,1.21-1.92,4.19-2.14,5.62.39,1.56-2.45,7.07-2.14,8.23.51.07.13-.1,1.01-.15.01.03.03.08.03.09l1.09,2.48c.26.72-.08.17.42.94-.61,1.8-.4.82-.4,3.97,3.9,0,1.58.55,3.44,1.17l-.02,1.85c-.77.59-.5.98-1.51.64-.06.27.15.42-.03.77-.32-.24,0-.19-.45-.1-.82.17-.2.04-.53.33l.43.69c1.18-.2-.09.11.51-.35,1.17-.91.42.16,1.3-.52.53-.4,1.21-1.58,1.21-1.58.24-.28.63-.49.88-.77.68-.78,1.36-2.08,2.25-2.27,1.36-.52,5.97-9.5,9.19-12.48.76-.7,3.7-2.13,4.75-2,.21-.22.11-.12.41-.33l1.81-1.08c1.79-1.27,3.92-3.08,5.1-4.98.55-.88.69-1.71,1.1-2.37.65-1.03.98-.87,2.28-1.09,3.27-.54,1.96-.8,3.91-2.49.22-.81.35-.78.85-1.14,2.16-1.53,1.67-.76,2.56-2.79,1.23-2.77.91-2.63,1.1-6.34,2.65-2.07,4.82-.35,6.19-2.44,2.11-3.21-.13-3.98,2.89-8.17.65-.89,2.49-2.59,3.39-2.83.04-.04.11-.07.14-.09.03-.02.1-.07.14-.09.04-.02.09-.06.13-.09l.74-.47c.97-.63,2.27-1.31,2.88-2.32,1.03-1.7,1.48-3.34,1.55-6h-.26L86.22,0c-.02.05-.04.12-.06.17-1.05,2.61-12.63.87-15.85,2.2-2.03.84-4.03,2.24-5.56,3.71l-4.51,4.92Z"/><g class="cls-15"><rect class="cls-2" x="105.85" y="-2.93" width="78.74" height="122.16"/></g><g class="cls-18"><rect class="cls-11" x="111.28" y="69.94" width="68.94" height="58.64"/></g><path class="cls-4" d="M68.31,38.48c-5.09-.22-4.39,1.85-5.81,4.27-1.05.14-2.36-.15-3.24.04-.65.14-1.52.87-2.28,1.19-3.38,1.42-2.35,2.28-3.59,3.44-.35,4.21-9.56,7.23-12.32,9.39-2.26,1.77-3.32,3.67-5.48,5.46-1.4,1.16-3.28,2.19-4.88,3.17-.86.53-1.14.52-1.45,1.1-.16.79.1.18-.27.74-.28.41-.62.45-1.06.87-1.34,1.3-.69,1.25-.48,1.35,0,0-.62-.22.07-1.13l.28.62c.01.05.02.2.03.25.05.76-.31.03.07.6.26.38.05-.02.3.35l.51.93c.4-.37.73-.73,1.08-1l1.52-.6c.57,0,4.51-1.92,5.73-2.92l.34-.29c.7-.6,2.89-2.12,3.65-1.62-.24,1.82-1.45.23-4.2,3.04-.08,1.93-1.75,1.58-1.66,4.29l-.56-.33c-.75,1.56-.77,1.27-1.91,2.1l.64.53c.9.82-.72-.4.22.22.78.51.52.03.88-.39.74-.88.58-.36,1.03-.38l.66-.23s.08-.07.09-.09l1.12-1.59c.46-.59.77-.89,1.37-1.37,2.73-2.19,3.28-2.96,5.12-6.13,1.85-3.2,3.11-4.31,6.08-4.96,4.02-.87,7.33-5.17,9.98-6.5-.05-1.33.47.27,1.55-1.17,1.17-1.55,2.1-4.03,2.79-5.92,1.3-3.57,4.21-5.89,4.08-7.32"/><path class="cls-7" d="M33.06,30.56c.7-.15,4.38-6.2,10.24-8.65,1.34-.94,7.97-3.08,9.6-4.11,3.15-2.01,4.82-4.2,7.31-6.79l4.51-4.92c1.53-1.47,3.53-2.87,5.56-3.71,3.22-1.33,14.8.41,15.85-2.2.02-.05.04-.11.06-.17l.33-2.94h-38c-.24.31.12.02-.45.44-.06.04-.35.21-.38.23-.44.23-.67.29-1.12.42-4.86,2.74-13.61-2.02-18.77,7.32-1.76,3.19-2.82,6.58-4.67,9.48-3.21,5.04-4.06,4.77-6.04,7.03l-.14.2c-.72.3-1.34.91-2.07,1.39-5.81,3.86-12.35,3.68-13.29,8.34-.84,4.2,2.94,6.37,5.64,7.17,3.44,1.02,6.09,1.95,7.14,5.51.76.91.89,3.82.82,5.42-.09,1.94-.53,3.46-1.12,4.99-1.23,3.2-2.8,5.21-4.4,7.61-2.19,3.24-9.48,12.43-10.74,15.47-1.1,2.65-.67,5.58,1.07,6.67,2.1,1.31,4.31-.65,5.35-2.12,3.64-5.14,2.28-11.91,8.79-17.83,2.26-2.56,4.18-4.21,6.27-6.99,1.14-1.52,4.11-6.14,4.72-8.5,1.11-1.43,2.04-6.27,3.03-8.11.22-1.43,1.56-4.41,2.14-5.62.46-.95.88-1.71,1.37-2.53.51-.85,1.08-1.38,1.37-2.48"/><g class="cls-17"><rect class="cls-12" x="23.26" y="-3.63" width="82.71" height="75.08"/></g><path class="cls-8" d="M89.05,9.13c-3.25.05-5.1,2.3-6.14,5.55-.26.79-.1.57-.51,1.05.06,1.54-.67,5.98-1.84,7.71-.53.78.05.24-.69.79-1.18.87-3.93,1.16-4.78,2.82-.26.5-.68,1.87-.88,2.43-.45,1.2-.48,1.13-.39,2.8.92-.46,1.91-1.38,3.08-2.1,1.11-.67,2.23-1.27,3.31-1.75,4.04-1.82,9.35-4.94,10.74-10.35.65-2.53-1.02-7.32-1.88-8.95"/><path class="cls-3" d="M81.89,46.35c-1.8.63-3.1,6.53-3.93,8.32-1.46,3.12-4.21,2.48-6.05,5.84-1.81,3.31.09,4.18-4.09,8.24-.56.54-5.15,4.74-5.34,5.27-.3.85-.1.89.15,1.24,1.37,1.44,2.32-3.22,5.58-5.79,4.78-3.78,9.59-3.93,13.49-10.23,1.24-2.01,1.6-3.6,4.06-5.1.73-.44,1.29-.55,1.92-.99,6.83-1.38,3.41-5.9,7.82-10.36.42-.43.33-.28.61-.72,3.38-2.58,2.84-6.84,5.01-7.86,4.46-2.09,2.27-.22,6.87-5.57,4.56-5.3,9.25-6.68,11.64-10.03.37-.52.73-1.18.64-1.92-.15-1.32.03-.31-.27-.76-.87-.91-5.41,2.17-6.99,4.16-1.65,2.08-3.15,5.35-5.89,6.02-3.97.97-5.35-.07-8.36,3.04l-4.64,4.37c-.51.39-1.3.77-1.78,1.3l-2.04,1.16v.02c-1.25,1.43-1.68,3.75-2.65,5.05-1.86,2.51-4.91,3.79-5.76,5.31M92.34,34.81l-1.99,1.13c.5-.56,1.14-.98,1.99-1.13Z"/><path class="cls-1" d="M40.2,128.58c.14-1.05,2.69-6.3,3.24-7.33,1.27-2.39,2.68-4.22,4.17-6.12,8.98-11.46,3.62-11.4,1.44-9.22-1.91,1.91-2.35,3.78-3.63,6.77-1.74,4.04-6.13,5.89-10.18,10.01-1.06,1.08-3.96,4.4-4.18,5.89h9.15Z"/><g class="cls-16"><rect class="cls-10" x="125.5" y="77.1" width="33.43" height="35.64"/></g><path class="cls-5" d="M111.01,65.67c-6.59,7.94-5.42,11.33-9.84,13.4-3.22,1.51-3.42,3.36-5.87,5.44-1.62,1.37-5.85,3.01-5.62,5.86,1.42.14,1.88-.71,2.66-1.5l6.53-5.81c1.76-1.4,3.41-1.48,5.49-2.44,3.61-1.68,4.94-6.53,7.01-9.65,1.24-1.87,2.45-2.71,3.95-4.3,2.06-.98,3.39-2.91,3.27-5.12.91-1.51,3.55-3.34,4.6-3.38l.06-.94c-1.07.03-2.52,1.28-3.2,1.91-1.35,1.24-1.75,1.38-3.22,2.01-.55.24-.79.65-1.55,1.07-.59.33-.95.74-1.47,1.02-1.4.75-.43.12-1.42,1.26-.46.53-.92.86-1.36,1.18"/><path class="cls-5" d="M31.31,69.52c-.6,1.05-3.31,2.08-6.49,6.46-1.73,2.38-3.14,6.14-5.26,7.58-1.24.84-2.82,1.19-4.01,2.12-1.28.99-2.06,2.11-3.18,3.12-2.28,2.06-6.95,3.04-6.62,6.01,1.57.24,6.25-4.28,8.6-5.92,4.8-3.35,6.16-1.2,9.39-4.67,2.33-2.5,3.64-6.3,6.23-8.74,1.28-1.21,2.75-2.2,3.83-3.5,1.14-1.37,1.86-3.33,3.02-4.26,2.76-2.8,3.97-1.22,4.2-3.04-.77-.5-2.95,1.02-3.65,1.62l-.34.29c-1.22.99-5.16,2.92-5.73,2.92"/><path class="cls-5" d="M59.89,52.89c-2.65,1.34-5.96,5.63-9.98,6.5-2.97.65-4.24,1.76-6.08,4.96-1.83,3.17-2.38,3.94-5.12,6.13-.6.48-.91.78-1.37,1.37l-1.12,1.59s-.06.06-.09.09c-.34,1.02-1.37,2.09-2.17,2.61-.5.33-.95.35-1.54.7-.65.39-.98.36-1.13,1.14.95.54,2.81-1.57,4.18-2.35,1.82-1.04,1.41-.25,4.44-2.29,6.68-4.51,6.56-9.52,9.65-11.35,1.75-1.04,2.63-1.01,4.18-2.59,1.38-1.4,1.8-1.99,3.78-3.09,1.33-.74,3.44-1.72,3.4-3.47-.58-.25-.58-.43-1.02.05"/><path class="cls-5" d="M184.59,59.33v-1.45c-2.1.72-3.12,3.33-7.51,4.44-3.82.96-4.77,2.68-6.55,5.79-3.05,5.32-4.92,4.39-7.12,8.35-1.97,3.54-4.22,2.97-5.03,4.32.67.52,2.91-1.02,3.62-1.62.91-.77.68-.63,1.79-1.09,5.34-2.16,7.88-5.71,10.74-10.7,2.09-3.66,3.29-1.99,6.7-5.38.96-.95,1.87-2.11,3.36-2.67"/><path class="cls-13" d="M-7.64,127.82v.77H-.19c.63-.76,1.58-1.12,2.35-1.83,2.27-2.1,3.31-4.3,5.83-6.43,1.76-1.49,5.13-3.25,6.89-5.38.28-.34.75-.95.88-1.27.15-.36.21-.4.18-.93-.14-2.3-2.64.32-3.15.83-2.47,2.49-5.35,4.87-7.85,7.24-4.3,4.07-4.88,3.63-9.38,5.39-1.32.52-2.16,1.15-3.21,1.61"/><path class="cls-1" d="M51.38,25.07c-2.32.08-6.72,6.98-8.43,9.3-2.92,3.95-2.97,2.48-6.32,5.6-.57.53-.91.99-1.43,1.52-.6.59-1.24.72-1.84,1.26-1.24,1.11-1.32,2.32-2.23,3.82-.29.48-2.68,2.99-1.77,4.11.82,1.01,1.46-1.16,3.09-2.28,1.67-1.15.23-1.56,2.43-3.58,1.73-1.59,2.04-1.2,2.85-3.06.65-1.48,1.73-2.15,2.8-3.34,1.07-1.19,1.9-1.91,2.8-3.13,1.23-1.66.75-.67,2.06-2.37,1.17-1.52,2.32-1.57,2.89-3.17.85-2.4,3.07-2.36,3.11-4.68"/><path class="cls-13" d="M118.97,82.49c1.74.02,5.17-4.28,6.08-5.6,1.21-1.77,3.76-5.3,5.57-6.51,3.32-2.22,2.17-1.26,4.85-3.89.62-.61,1.24-.75,1.87-1.23,1.21-.92,1.52-2.28,2.3-3.72.83-1.53,2.33-1.95,1.98-4.24-1-.18-1.32.39-1.76,1.01-.77,1.1-.57.64-1.56,1.37-1.35,1-.12,1.57-2.59,3.62-1.56,1.3-1.82.94-2.82,3.11-.42.9-2.16,2.34-2.97,3.13l-7.15,7.86c-.49.58-.73,1.11-1.3,1.68-.82.81-2.77,2.03-2.51,3.42"/><path class="cls-13" d="M147.85,130.64c1.2-1.48,1.96-2.04,2.96-3.39,9.69-13.08,7-6.99,12.74-12.96,1.19-1.24,2.55-1.62,3.49-2.86,1.01-1.34,1.4-3.04,2.35-4.26.82-1.04,2.47-2.16,1.66-4.31-.9.02-1.29.58-1.74,1.19-.84,1.12-.6.87-1.79,1.67-.93.63-.83.83-1.29,1.97-1.1,2.75-3.8,2.87-4.91,5.26-1.1,2.37-1.48,2.06-3.07,3.67-2.11,2.13-4.25,4.6-6.41,6.97l-4.62,5.33c-.61.57-1.12.86-1.61,1.72h2.24Z"/><path class="cls-6" d="M120.77-2.93c-.46,1.72-2.28,2.91-3.84,3.72-3.76,1.96-2.53,3.32-8.06,6.98-3.52,2.33-3.97,4.76-2.23,4.09l3.87-3.48c7.92-7.36,5.53-3.81,10.32-6.57,1.37-.79,3.46-3.14,3.89-4.74h-3.95Z"/><path class="cls-1" d="M78.46,128.58c1.46-2.09,3.54-.8,3.03-7.23-.34-4.33-3.35-1.38-4.84,1.12-1.35,2.26-1.15,3.29-.81,6.11h2.63Z"/><path class="cls-1" d="M101.23,108.57c-1.87-5.92-7.01-.2-6.24,3.38.41,1.88,2.52,3.19,4.34,1.97,1.22-.82,2.57-3.23,1.9-5.35"/><path class="cls-1" d="M13.35,98.27c-1.03-2.28-3.82-.68-5.14.43-6.45,5.42-1.27,8.73,2.67,5.23.89-.79,3.24-3.93,2.46-5.66"/><path class="cls-3" d="M137.45,49.99c.93-.77,4.29-6.19,3.42-8.38-1.46-.98-5.84,3.1-6.35,3.95-.81.33-4.62,5.02-3.74,6.95,1.18,2.6,6.12-1.46,6.67-2.52"/><path class="cls-13" d="M146.25,35.84c-1.17-2.39-3.83-1.45-2.67,2.02,1.04,3.11,3.84.37,2.67-2.02"/><path class="cls-13" d="M77.72,53.86c2.3.48,3.85-2.1,2.48-3.01-.99-.66-3.07,1.25-2.48,3.01"/><path class="cls-1" d="M63.13,107.44c.14-1.05,2.69-6.3,3.24-7.33,1.27-2.39,2.68-4.22,4.17-6.12,8.98-11.46,3.62-11.4,1.44-9.22-1.91,1.91-2.35,3.78-3.63,6.77-1.74,4.04-6.13,5.89-10.18,10.01-1.06,1.08-3.96,4.4-4.18,5.89h9.15Z"/></g></g></svg>