<?xml version="1.0" encoding="UTF-8"?>
<svg id="Layer_2" data-name="Layer 2" xmlns="http://www.w3.org/2000/svg" viewBox="0 0 111.15 111.15">
  <defs>
    <style>
      .cls-1 {
        fill: #2b2a29;
      }

      .cls-1, .cls-2 {
        stroke-width: 0px;
      }

      .cls-2 {
        fill: #009fa6;
      }
    </style>
  </defs>
  <g id="Layer_1-2" data-name="Layer 1">
    <g>
      <path class="cls-1" d="M79.69,74.16c-8.26,10.73-22.27,14.42-34.36,10.09l-21.96,16.61c24.22,17.25,57.94,12.4,76.24-11.36,8.3-10.77,12.02-23.62,11.5-36.22l-25.16.32c.47,7.13-1.55,14.45-6.25,20.55h0Z"/>
      <path class="cls-1" d="M89.5,11.55C65.18-7.18,30.28-2.65,11.55,21.67c-17.02,22.09-14.84,52.91,3.93,72.41l15.66-20.33c-7.93-10.66-8.19-25.69.31-36.74,7.86-10.2,20.92-14.04,32.58-10.66l-28.29,36.73,7.48-.05L8.15,108.58l68.33-51.69-13.27-.98,38.94-30.66-.08-.11h.01s-.01,0-.01,0c-3.32-5.07-7.51-9.68-12.58-13.58h0Z"/>
      <path class="cls-2" d="M77.05,4.31l-41.3,58.75,7.48-.05L8.15,108.58l68.33-51.69-13.27-.98,38.94-30.66s-8.02-13.91-25.1-20.94h0Z"/>
    </g>
  </g>
</svg>