<?xml version="1.0" encoding="UTF-8"?>
<!DOCTYPE svg PUBLIC "-//W3C//DTD SVG 1.1//EN" "http://www.w3.org/Graphics/SVG/1.1/DTD/svg11.dtd">
<!-- Creator: CorelDRAW 2019 (64-Bit) -->
<svg xmlns="http://www.w3.org/2000/svg" xml:space="preserve" width="8.26772in" height="8.26772in" version="1.1" style="shape-rendering:geometricPrecision; text-rendering:geometricPrecision; image-rendering:optimizeQuality; fill-rule:evenodd; clip-rule:evenodd"
viewBox="0 0 8267.72 8267.72"
 xmlns:xlink="http://www.w3.org/1999/xlink"
 xmlns:xodm="http://www.corel.com/coreldraw/odm/2003">
 <defs>
  <style type="text/css">
   <![CDATA[
    .fil0 {fill:#FFED00}
    .fil1 {fill:#008DD2;fill-rule:nonzero}
   ]]>
  </style>
 </defs>
 <g id="Layer_x0020_1">
  <metadata id="CorelCorpID_0Corel-Layer"/>
  <g id="_2690574355568">
   <polygon class="fil0" points="776.56,2943.65 7485.55,2943.65 7485.55,5329.68 776.56,5329.68 "/>
   <path class="fil1" d="M6137.94 4242.82l330.97 -459.68 -316.7 -448.13 289.2 0 182.05 262.41 178.48 -262.41 277.53 0 -316 438.53 336.74 469.27 -295.69 0 -188.22 -280.85 -185.27 280.85 -293.09 0zm-516.15 -198.42l474.65 0 0 198.42 -728.84 0 0 -907.8 711.98 0 0 198.42 -457.8 0 0 153.03 403.33 0 0 191.94 -403.33 0 0 166zm-1045.27 198.42l0 -907.8 256.78 0 0 704.2 433.15 0 0 203.6 -689.94 0zm-639.35 -194.53c34.58,0 66.8,-6.04 96.62,-18.15 29.83,-12.1 55.77,-29.61 77.81,-52.52 22.05,-22.91 39.34,-50.36 51.87,-82.35 12.54,-31.98 18.81,-67.43 18.81,-106.34 0,-39.77 -6.27,-75.44 -18.81,-106.99 -12.53,-31.56 -29.82,-58.8 -51.87,-81.71 -22.04,-22.91 -47.98,-40.42 -77.81,-52.52 -29.82,-12.1 -62.04,-18.15 -96.62,-18.15 -34.59,0 -66.79,6.05 -96.62,18.15 -29.82,12.1 -55.76,29.61 -77.81,52.52 -22.05,22.91 -39.33,50.15 -51.87,81.71 -12.54,31.55 -18.8,67.22 -18.8,106.99 0,38.91 6.26,74.35 18.8,106.34 12.54,31.99 29.82,59.44 51.87,82.35 22.05,22.91 47.99,40.42 77.81,52.52 29.83,12.11 62.03,18.15 96.62,18.15zm0 212.69c-72.63,0 -139.63,-11.68 -201.01,-35.02 -61.38,-23.35 -114.78,-56.41 -160.17,-99.2 -45.39,-42.8 -80.62,-92.73 -105.69,-149.8 -25.07,-57.06 -37.61,-119.74 -37.61,-188.04 0,-68.3 12.54,-130.98 37.61,-188.05 25.07,-57.06 60.31,-106.99 105.69,-149.78 45.39,-42.8 98.78,-75.87 160.17,-99.22 61.39,-23.35 128.39,-35.01 201.01,-35.01 73.49,0 140.71,11.66 201.67,35.01 60.95,23.35 113.91,56.41 158.87,99.22 44.95,42.8 80.19,92.72 105.69,149.78 25.5,57.06 38.25,119.74 38.25,188.05 0,68.3 -12.75,131.2 -38.25,188.69 -25.51,57.49 -60.74,107.43 -105.69,149.79 -44.96,42.36 -97.91,75.21 -158.87,98.56 -60.96,23.34 -128.18,35.02 -201.67,35.02zm-1503.07 -18.16l0 -907.8 211.4 0 400.72 483.78 0 -483.78 251.59 0 0 907.8 -211.39 0 -400.72 -483.78 0 483.78 -251.6 0zm-439.63 0l0 -907.8 256.79 0 0 907.8 -256.79 0zm-575.8 0l-256.79 0 0 -907.8 711.98 0 0 198.42 -455.19 0 0 199.72 400.72 0 0 198.42 -400.72 0 0 311.24z"/>
   <path class="fil1" d="M1161.89 4947.41l0 -452.82 207.01 0c41.4,0 77.09,6.69 107.06,20.05 29.97,13.37 53.15,32.67 69.54,57.9 16.39,25.23 24.58,55.09 24.58,89.59 0,34.07 -8.19,63.61 -24.58,88.63 -16.39,25.01 -39.57,44.31 -69.54,57.89 -29.97,13.59 -65.66,20.38 -107.06,20.38l-135.85 0 56.93 -55.63 0 174.01 -128.09 0zm128.09 -160.43l-56.93 -58.87 128.08 0c26.74,0 46.69,-5.82 59.84,-17.46 13.15,-11.65 19.73,-27.82 19.73,-48.52 0,-21.13 -6.58,-37.52 -19.73,-49.16 -13.15,-11.65 -33.1,-17.46 -59.84,-17.46l-128.08 0 56.93 -58.87 0 250.35zm342.2 160.43l0 -452.82 128.09 0 0 452.82 -128.09 0zm219.3 0l0 -452.82 207 0c41.4,0 77.09,6.69 107.06,20.05 29.97,13.37 53.15,32.67 69.54,57.9 16.39,25.23 24.58,55.09 24.58,89.59 0,34.07 -8.19,63.61 -24.58,88.63 -16.39,25.01 -39.57,44.31 -69.54,57.89 -29.97,13.59 -65.66,20.38 -107.06,20.38l-135.85 0 56.93 -55.63 0 174.01 -128.08 0zm128.08 -160.43l-56.93 -58.87 128.08 0c26.74,0 46.68,-5.82 59.84,-17.46 13.15,-11.65 19.73,-27.82 19.73,-48.52 0,-21.13 -6.58,-37.52 -19.73,-49.16 -13.16,-11.65 -33.1,-17.46 -59.84,-17.46l-128.08 0 56.93 -58.87 0 250.35zm459.94 -117.09l210.24 0 0 95.74 -210.24 0 0 -95.74zm9.06 178.54l236.76 0 0 98.97 -363.56 0 0 -452.82 355.15 0 0 98.97 -228.36 0 0 254.87zm467.06 108.03c-37.09,0 -72.78,-4.63 -107.06,-13.91 -34.28,-9.28 -62.21,-21.24 -83.78,-35.91l42.05 -94.44c20.27,12.94 43.67,23.61 70.19,32.02 26.52,8.41 52.94,12.62 79.25,12.62 17.68,0 31.91,-1.62 42.69,-4.85 10.79,-3.24 18.65,-7.56 23.61,-12.94 4.96,-5.39 7.44,-11.76 7.44,-19.08 0,-10.35 -4.74,-18.54 -14.23,-24.58 -9.49,-6.04 -21.78,-11 -36.87,-14.88 -15.09,-3.88 -31.81,-7.76 -50.13,-11.65 -18.33,-3.88 -36.66,-8.84 -54.99,-14.88 -18.33,-6.04 -35.04,-13.91 -50.13,-23.61 -15.1,-9.7 -27.39,-22.43 -36.88,-38.17 -9.49,-15.74 -14.23,-35.69 -14.23,-59.84 0,-27.17 7.44,-51.75 22.32,-73.74 14.88,-22 37.2,-39.68 66.96,-53.04 29.76,-13.37 66.85,-20.06 111.27,-20.06 29.76,0 58.97,3.34 87.65,10.03 28.68,6.69 54.23,16.5 76.65,29.43l-39.46 95.09c-21.57,-11.65 -42.91,-20.38 -64.04,-26.2 -21.13,-5.82 -41.62,-8.74 -61.45,-8.74 -17.69,0 -31.92,1.83 -42.7,5.5 -10.78,3.66 -18.54,8.52 -23.29,14.56 -4.74,6.04 -7.11,12.94 -7.11,20.7 0,9.92 4.63,17.79 13.91,23.61 9.27,5.83 21.56,10.57 36.87,14.23 15.31,3.67 32.13,7.44 50.46,11.32 18.33,3.88 36.66,8.73 54.98,14.56 18.33,5.82 35.04,13.58 50.13,23.28 15.09,9.7 27.28,22.43 36.55,38.17 9.27,15.74 13.91,35.48 13.91,59.2 0,26.3 -7.44,50.56 -22.32,72.77 -14.88,22.21 -37.09,40 -66.63,53.37 -29.54,13.37 -66.74,20.06 -111.59,20.06zm583.5 0c-34.5,0 -65.33,-5.5 -92.5,-16.49 -27.17,-11 -48.63,-26.2 -64.37,-45.61 -15.74,-19.41 -23.61,-41.19 -23.61,-65.33 0,-23.72 5.28,-44.85 15.85,-63.39 10.56,-18.55 26.96,-35.58 49.17,-51.1 22.2,-15.53 50.57,-30.41 85.06,-44.64 22.86,-9.92 40.76,-18.76 53.69,-26.52 12.94,-7.76 22.1,-15.2 27.5,-22.32 5.39,-7.11 8.08,-14.33 8.08,-21.67 0,-9.06 -3.02,-16.39 -9.05,-22 -6.04,-5.61 -15.1,-8.41 -27.17,-8.41 -12.5,0 -22.32,3.23 -29.43,9.7 -7.12,6.47 -10.68,14.45 -10.68,23.94 0,5.6 1.19,11.21 3.56,16.81 2.37,5.61 7.12,12.08 14.23,19.41 7.12,7.33 17.14,16.83 30.08,28.46l238.7 212.18 -65.98 75.69 -269.11 -240c-14.66,-12.94 -26.63,-25.44 -35.9,-37.52 -9.27,-12.07 -16.17,-24.15 -20.7,-36.22 -4.53,-12.08 -6.79,-24.37 -6.79,-36.88 0,-23.28 6.26,-43.67 18.76,-61.13 12.5,-17.46 30.19,-31.05 53.05,-40.76 22.85,-9.7 49.59,-14.56 80.21,-14.56 28.03,0 52.5,4.31 73.43,12.94 20.91,8.62 37.19,21.13 48.84,37.52 11.65,16.39 17.46,35.8 17.46,58.22 0,19.84 -5.06,37.95 -15.2,54.34 -10.13,16.39 -25.66,31.48 -46.58,45.28 -20.92,13.8 -47.54,27.38 -79.89,40.76 -19.84,8.19 -35.69,16.39 -47.54,24.59 -11.87,8.19 -20.38,16.49 -25.56,24.9 -5.17,8.41 -7.76,18.01 -7.76,28.79 0,8.62 2.8,16.6 8.41,23.93 5.61,7.33 13.59,13.05 23.93,17.15 10.35,4.1 22.65,6.14 36.88,6.14 25.01,0 48.08,-6.14 69.22,-18.44 21.13,-12.29 39.35,-30.3 54.66,-54.01 15.31,-23.72 25.77,-52.4 31.38,-86.04l98.98 29.76c-9.49,44.42 -26.64,83.23 -51.43,116.44 -24.8,33.2 -55.2,59.19 -91.21,77.95 -36.01,18.76 -76.22,28.14 -120.64,28.14zm625.55 -263.28l208.94 0 0 98.98 -208.94 0 0 -98.98zm9.06 254.22l-128.09 0 0 -452.82 355.15 0 0 98.97 -227.06 0 0 353.85zm287.22 0l0 -452.82 128.09 0 0 452.82 -128.09 0zm315.68 0l0 -351.26 -139.08 0 0 -101.56 405.6 0 0 101.56 -138.44 0 0 351.26 -128.09 0zm449.59 0l0 -351.26 -139.08 0 0 -101.56 405.61 0 0 101.56 -138.43 0 0 351.26 -128.09 0zm314.39 0l0 -452.82 128.09 0 0 452.82 -128.09 0zm219.3 0l0 -452.82 105.44 0 249.7 301.45 -49.81 0 0 -301.45 125.5 0 0 452.82 -105.44 0 -249.7 -301.44 49.81 0 0 301.44 -125.5 0zm747.81 9.06c-35.8,0 -69,-5.71 -99.62,-17.15 -30.62,-11.43 -57.04,-27.7 -79.24,-48.84 -22.21,-21.13 -39.57,-46.04 -52.08,-74.72 -12.5,-28.67 -18.76,-60.26 -18.76,-94.77 0,-34.5 6.26,-66.09 18.76,-94.77 12.5,-28.68 29.97,-53.58 52.4,-74.71 22.42,-21.13 49.06,-37.41 79.89,-48.85 30.83,-11.43 64.57,-17.14 101.23,-17.14 42.7,0 80.87,7.12 114.5,21.35 33.63,14.23 61.45,34.72 83.44,61.45l-81.5 73.75c-15.52,-16.82 -32.24,-29.43 -50.13,-37.85 -17.9,-8.41 -37.85,-12.61 -59.84,-12.61 -19.41,0 -37.09,3.02 -53.05,9.06 -15.96,6.04 -29.54,14.77 -40.76,26.2 -11.21,11.43 -19.94,25.01 -26.2,40.75 -6.25,15.74 -9.38,33.53 -9.38,53.37 0,18.98 3.13,36.44 9.38,52.4 6.26,15.96 14.98,29.65 26.2,41.08 11.22,11.43 24.69,20.27 40.43,26.52 15.74,6.25 33.1,9.38 52.08,9.38 18.97,0 37.52,-3.13 55.63,-9.38 18.11,-6.25 36.44,-16.93 54.99,-32.02l71.81 89.92c-25.88,18.54 -55.85,32.78 -89.92,42.7 -34.07,9.92 -67.5,14.87 -100.27,14.87zm76.98 -74.39l0 -170.78 113.21 0 0 187.6 -113.21 -16.82zm353.85 74.39c-37.09,0 -72.78,-4.63 -107.07,-13.91 -34.28,-9.28 -62.2,-21.24 -83.77,-35.91l42.05 -94.44c20.27,12.94 43.67,23.61 70.19,32.02 26.52,8.41 52.94,12.62 79.25,12.62 17.68,0 31.91,-1.62 42.69,-4.85 10.79,-3.24 18.65,-7.56 23.61,-12.94 4.96,-5.39 7.44,-11.76 7.44,-19.08 0,-10.35 -4.74,-18.54 -14.23,-24.58 -9.49,-6.04 -21.78,-11 -36.87,-14.88 -15.09,-3.88 -31.81,-7.76 -50.13,-11.65 -18.33,-3.88 -36.66,-8.84 -54.99,-14.88 -18.33,-6.04 -35.04,-13.91 -50.13,-23.61 -15.1,-9.7 -27.39,-22.43 -36.88,-38.17 -9.48,-15.74 -14.23,-35.69 -14.23,-59.84 0,-27.17 7.44,-51.75 22.32,-73.74 14.88,-22 37.2,-39.68 66.95,-53.04 29.76,-13.37 66.85,-20.06 111.27,-20.06 29.76,0 58.97,3.34 87.65,10.03 28.68,6.69 54.23,16.5 76.65,29.43l-39.46 95.09c-21.57,-11.65 -42.91,-20.38 -64.04,-26.2 -21.13,-5.82 -41.62,-8.74 -61.45,-8.74 -17.69,0 -31.92,1.83 -42.7,5.5 -10.78,3.66 -18.54,8.52 -23.29,14.56 -4.74,6.04 -7.11,12.94 -7.11,20.7 0,9.92 4.63,17.79 13.91,23.61 9.27,5.83 21.56,10.57 36.87,14.23 15.31,3.67 32.13,7.44 50.46,11.32 18.33,3.88 36.66,8.73 54.98,14.56 18.33,5.82 35.04,13.58 50.13,23.28 15.09,9.7 27.28,22.43 36.55,38.17 9.27,15.74 13.91,35.48 13.91,59.2 0,26.3 -7.44,50.56 -22.32,72.77 -14.88,22.21 -37.08,40 -66.63,53.37 -29.54,13.37 -66.74,20.06 -111.59,20.06z"/>
  </g>
 </g>
</svg>
