<?xml version="1.0" encoding="UTF-8"?>
<!DOCTYPE svg PUBLIC "-//W3C//DTD SVG 1.1//EN" "http://www.w3.org/Graphics/SVG/1.1/DTD/svg11.dtd">
<!-- Creator: CorelDRAW 2019 (64-Bit) -->
<svg xmlns="http://www.w3.org/2000/svg" xml:space="preserve" width="8.26772in" height="8.26772in" version="1.1" style="shape-rendering:geometricPrecision; text-rendering:geometricPrecision; image-rendering:optimizeQuality; fill-rule:evenodd; clip-rule:evenodd"
viewBox="0 0 8267.72 8267.72"
 xmlns:xlink="http://www.w3.org/1999/xlink"
 xmlns:xodm="http://www.corel.com/coreldraw/odm/2003">
 <defs>
  <style type="text/css">
   <![CDATA[
    .fil0 {fill:#363B82;fill-rule:nonzero}
    .fil1 {fill:#FEFEFE;fill-rule:nonzero}
   ]]>
  </style>
 </defs>
 <g id="Layer_x0020_1">
  <metadata id="CorelCorpID_0Corel-Layer"/>
  <g id="_1868345016960">
   <path class="fil0" d="M4131.02 1602.26l0 0c1399.75,0 2534.44,1134.69 2534.44,2534.38 0,1399.75 -1134.69,2534.43 -2534.44,2534.43 -1399.71,0 -2534.37,-1134.69 -2534.37,-2534.43 0,-1399.72 1134.69,-2534.38 2534.37,-2534.38z"/>
   <path class="fil1" d="M4118.8 2894.63c-180.8,0 -294.56,102.11 -294.56,262.5 0,163.22 116.71,265.33 303.37,265.33 180.77,0 294.56,-102.1 294.56,-265.33 0,-163.22 -116.67,-262.5 -303.37,-262.5zm32.04 676.48l-58.41 0c-142.88,0 -250.76,67.13 -250.76,271.34l0 933.33c0,207.13 105.04,271.3 256.73,271.3l58.2 0c143.06,0 244.92,-70.05 244.92,-271.3l0 -933.33c0,-209.98 -98.95,-271.34 -250.72,-271.34l0.04 0zm1194.56 1073.35c-186.78,0 -314.93,-136.96 -314.93,-332.49 0,-192.43 131.44,-329.51 314.93,-329.51 183.72,0 315.03,137.08 315.03,332.45 0,189.52 -134.16,329.54 -315.03,329.54l0 0.01zm5.87 -1087.84c-478.25,0 -796.23,303.37 -796.23,755.7 0,463.77 306.19,761.28 787.42,761.28 478.29,0 793.31,-297.48 793.31,-758.3 0.09,-455.3 -311.87,-758.64 -784.5,-758.64l0 -0.04zm-1964.23 -425.85l-84.34 0c-160.4,0 -247.9,90.45 -247.9,271.22l0 872.19c0,224.5 -75.85,303.28 -253.79,303.28 -139.94,0 -253.7,-61.24 -344.24,-172.06 -8.59,-11.65 -192.24,75.84 -192.24,291.68 0,233.29 218.51,376.3 624.17,376.3 492.7,0 752.53,-248.02 752.53,-790.48l0 -880.91c-0.3,-180.55 -87.81,-271.22 -254.19,-271.22l0.01 -0.01z"/>
  </g>
 </g>
 <g id="Layer_x0020_1_0">
  <metadata id="CorelCorpID_1Corel-Layer"/>
 </g>
</svg>
