<?xml version="1.0" encoding="UTF-8"?>
<svg id="Layer_2" data-name="Layer 2" xmlns="http://www.w3.org/2000/svg" viewBox="0 0 247.74 63.51">
  <defs>
    <style>
      .cls-1 {
        fill: #243e79;
        fill-rule: evenodd;
        stroke-width: 0px;
      }
    </style>
  </defs>
  <g id="Layer_1-2" data-name="Layer 1">
    <path class="cls-1" d="M234.62,31.68c0-3.22-.26-6.15-.75-8.79-.5-2.64-1.36-4.9-2.58-6.78-1.21-1.87-2.83-3.33-4.86-4.37-2.02-1.02-4.54-1.54-7.57-1.54s-5.62.58-7.66,1.73c-2.06,1.15-3.72,2.71-4.99,4.63-1.26,1.93-2.15,4.18-2.67,6.75-.52,2.59-.78,5.31-.78,8.19,0,3.35.26,6.36.77,9.03.5,2.67,1.36,4.95,2.56,6.86,1.2,1.89,2.8,3.34,4.82,4.34,2.03.99,4.56,1.49,7.62,1.49s5.62-.57,7.66-1.71c2.05-1.14,3.73-2.69,4.99-4.65,1.26-1.96,2.15-4.24,2.67-6.85.52-2.61.78-5.39.78-8.33M247.74,31.04c0,5.08-.63,9.63-1.9,13.64-1.26,4.01-3.14,7.43-5.64,10.21-2.5,2.8-5.59,4.94-9.26,6.41-3.69,1.47-7.95,2.2-12.79,2.2s-8.94-.63-12.48-1.88c-3.56-1.25-6.52-3.14-8.9-5.71-2.36-2.56-4.14-5.81-5.33-9.76-1.18-3.95-1.78-8.63-1.78-14.03,0-4.95.63-9.42,1.9-13.38,1.25-3.96,3.14-7.33,5.64-10.12,2.49-2.78,5.58-4.92,9.26-6.4,3.69-1.49,7.97-2.23,12.84-2.23s8.74.62,12.3,1.85c3.55,1.23,6.52,3.12,8.9,5.7,2.39,2.56,4.19,5.78,5.4,9.68,1.21,3.92,1.83,8.51,1.83,13.82ZM187.88,6.18c0,.93-.03,1.7-.12,2.37-.08.65-.19,1.17-.35,1.55-.16.4-.36.7-.6.87-.22.2-.5.29-.78.29h-15.34v49.48c0,.31-.1.6-.31.86-.21.25-.55.45-1.03.61-.46.15-1.12.28-1.92.37-.81.1-1.81.15-3.01.15s-2.2-.05-3.01-.15c-.81-.1-1.46-.23-1.93-.37-.47-.16-.81-.37-1.02-.61-.21-.26-.31-.55-.31-.86V11.26h-15.34c-.3,0-.58-.1-.8-.29-.22-.18-.41-.47-.57-.87-.15-.39-.28-.9-.36-1.55-.08-.67-.11-1.44-.11-2.37s.04-1.75.11-2.41c.08-.66.21-1.2.36-1.59.16-.4.35-.68.57-.86.22-.18.5-.26.8-.26h43.22c.28,0,.54.08.78.26.24.18.44.45.6.86.16.39.27.92.35,1.59.09.66.12,1.47.12,2.41ZM138.57,44.02c0,3.24-.6,6.05-1.8,8.5-1.21,2.43-2.83,4.45-4.89,6.09-2.07,1.62-4.47,2.85-7.21,3.68-2.75.82-5.7,1.23-8.84,1.23-2.12,0-4.08-.18-5.91-.54-1.82-.35-3.42-.77-4.81-1.28-1.39-.49-2.56-1.01-3.49-1.55-.94-.55-1.6-1.04-2.02-1.44-.41-.42-.7-1.02-.88-1.8-.18-.78-.26-1.88-.26-3.33,0-.99.03-1.8.1-2.46.06-.66.16-1.2.3-1.62.15-.41.34-.7.58-.87.24-.18.52-.26.84-.26.44,0,1.06.26,1.88.79.81.52,1.84,1.1,3.11,1.73,1.26.64,2.78,1.21,4.55,1.74,1.74.53,3.78.79,6.1.79,1.53,0,2.88-.18,4.08-.54,1.21-.37,2.23-.87,3.07-1.53.84-.67,1.48-1.47,1.93-2.45.44-.97.67-2.06.67-3.26,0-1.39-.38-2.59-1.13-3.58-.76-1-1.75-1.87-2.98-2.66-1.21-.77-2.61-1.5-4.16-2.18-1.54-.68-3.14-1.39-4.79-2.15-1.65-.76-3.25-1.62-4.79-2.59-1.55-.96-2.94-2.11-4.16-3.45-1.23-1.34-2.21-2.93-2.98-4.78-.76-1.83-1.13-4.03-1.13-6.59,0-2.93.55-5.52,1.64-7.75,1.09-2.22,2.56-4.06,4.4-5.54,1.86-1.47,4.03-2.57,6.55-3.3,2.5-.73,5.18-1.09,7.99-1.09,1.45,0,2.9.11,4.35.34,1.46.21,2.82.52,4.08.89,1.26.39,2.38.81,3.36,1.28.97.49,1.62.87,1.94,1.2.31.31.52.58.63.79.12.23.21.52.29.89.08.35.13.81.16,1.37.03.55.05,1.23.05,2.06,0,.91-.02,1.68-.06,2.31-.05.63-.13,1.15-.24,1.57-.11.41-.28.71-.47.89-.21.2-.48.29-.84.29s-.9-.23-1.66-.66c-.76-.44-1.7-.92-2.8-1.46-1.11-.52-2.39-.99-3.85-1.41-1.46-.44-3.04-.65-4.79-.65-1.37,0-2.55.16-3.56.5-1,.32-1.84.79-2.52,1.38-.68.58-1.2,1.28-1.52,2.1-.34.83-.5,1.7-.5,2.61,0,1.36.37,2.54,1.12,3.53.75,1,1.75,1.89,2.99,2.67,1.25.76,2.67,1.49,4.26,2.17,1.57.68,3.19,1.41,4.84,2.15,1.65.76,3.27,1.62,4.84,2.59,1.58.97,3,2.12,4.24,3.46,1.23,1.34,2.23,2.91,2.99,4.74.76,1.81,1.13,3.95,1.13,6.41ZM88.76,39.57c0,3.76-.55,7.12-1.67,10.08-1.1,2.98-2.72,5.49-4.87,7.54-2.15,2.06-4.81,3.63-7.97,4.69-3.17,1.08-6.79,1.62-10.91,1.62-3.86,0-7.32-.48-10.38-1.44-3.07-.97-5.66-2.42-7.78-4.38-2.12-1.96-3.74-4.4-4.86-7.34-1.12-2.93-1.69-6.34-1.69-10.26V2.77c0-.31.1-.6.29-.86.18-.24.52-.45,1-.62.48-.16,1.13-.28,1.92-.37.78-.1,1.8-.15,3.03-.15s2.18.05,2.96.15c.79.09,1.43.21,1.9.37.47.16.81.37,1.02.62.21.26.31.55.31.86v36.25c0,2.45.31,4.55.91,6.35.6,1.78,1.46,3.27,2.59,4.43,1.11,1.17,2.46,2.06,4.03,2.64,1.57.58,3.32.87,5.25.87s3.71-.31,5.26-.9c1.56-.6,2.87-1.47,3.95-2.62,1.07-1.16,1.91-2.59,2.49-4.27.58-1.7.87-3.63.87-5.78V2.77c0-.31.1-.6.29-.86.18-.24.52-.45.99-.62.48-.16,1.12-.28,1.93-.37.81-.1,1.8-.15,3.01-.15s2.18.05,2.96.15c.78.09,1.41.21,1.88.37.47.16.81.37.99.62.19.26.29.55.29.86v36.8ZM25.45,45.38c0,2.79-.26,5.29-.78,7.53-.54,2.22-1.41,4.13-2.67,5.68-1.24,1.57-2.88,2.77-4.9,3.59-2.02.83-4.53,1.23-7.51,1.23-.94,0-1.88-.07-2.82-.21-.93-.15-1.8-.33-2.55-.55-.78-.21-1.46-.45-2.03-.71-.57-.24-.96-.47-1.13-.68-.2-.21-.35-.42-.49-.65-.13-.21-.23-.5-.33-.87-.09-.36-.16-.81-.19-1.36-.04-.53-.05-1.22-.05-2.04,0-1.07.01-1.99.07-2.73.05-.74.13-1.33.24-1.75.11-.44.28-.73.47-.9.21-.18.46-.26.79-.26.27,0,.62.09.99.3.38.21.81.44,1.29.67.48.22,1.03.43,1.65.64.63.21,1.38.32,2.24.32s1.6-.11,2.27-.35c.65-.24,1.18-.65,1.6-1.23.44-.58.76-1.38.97-2.36.22-.97.34-2.23.34-3.79V2.67c0-.31.09-.58.31-.83.21-.24.53-.44,1-.6.45-.14,1.1-.27,1.91-.36.82-.08,1.84-.11,3.04-.11s2.2.03,2.99.11c.8.08,1.43.21,1.91.36.5.16.84.36,1.05.6.21.24.31.52.31.83v42.71Z"/>
  </g>
</svg>