<?xml version="1.0" encoding="UTF-8"?>
<!DOCTYPE svg PUBLIC "-//W3C//DTD SVG 1.1//EN" "http://www.w3.org/Graphics/SVG/1.1/DTD/svg11.dtd">
<!-- Creator: CorelDRAW 2019 (64-Bit) -->
<svg xmlns="http://www.w3.org/2000/svg" xml:space="preserve" width="8.26772in" height="8.26772in" version="1.1" style="shape-rendering:geometricPrecision; text-rendering:geometricPrecision; image-rendering:optimizeQuality; fill-rule:evenodd; clip-rule:evenodd"
viewBox="0 0 8267.72 8267.72"
 xmlns:xlink="http://www.w3.org/1999/xlink"
 xmlns:xodm="http://www.corel.com/coreldraw/odm/2003">
 <defs>
  <style type="text/css">
   <![CDATA[
    .fil1 {fill:#FEFEFE}
    .fil2 {fill:#FFEE15}
    .fil0 {fill:#DE202A}
   ]]>
  </style>
 </defs>
 <g id="Layer_x0020_1">
  <metadata id="CorelCorpID_0Corel-Layer"/>
  <g id="_2689351803792">
   <polygon class="fil0" points="1026.86,2020.19 7235.25,2020.19 7235.25,6253.17 1026.86,6253.17 "/>
   <path class="fil1" d="M5599.18 4668.53l-242.15 0 0 -206.01c0,-42.87 -13.73,-63.91 -41.2,-63.91 -28.2,0 -42.65,21.05 -42.65,63.91l0 763.88c0,43.62 14.46,65.41 42.65,65.41 27.47,0 41.2,-21.79 41.2,-65.41l0 -237.58 242.15 0 0 239.09c0,175.18 -93.24,263.15 -280.47,263.15 -190.83,0 -286.98,-91.73 -286.98,-274.42l0 -736.07c0,-183.46 96.15,-274.43 286.98,-274.43 187.22,0 280.47,87.97 280.47,263.14l0 199.26zm539.4 -577.95l0 -80.43 35.65 0c7.17,0 12.61,0.72 16.33,2.17 3.73,1.44 6.7,3.99 8.93,7.64 2.23,3.65 3.32,7.69 3.32,12.11 0,5.7 -1.85,10.52 -5.54,14.44 -3.69,3.91 -9.38,6.38 -17.09,7.45 2.83,1.35 4.95,2.69 6.42,4 3.11,2.85 6.05,6.43 8.79,10.72l13.91 21.9 -13.29 0 -10.64 -16.74c-3.07,-4.85 -5.63,-8.54 -7.65,-11.1 -2.02,-2.57 -3.81,-4.35 -5.41,-5.37 -1.57,-1.02 -3.2,-1.73 -4.85,-2.14 -1.2,-0.24 -3.17,-0.37 -5.92,-0.37l-12.31 0 0 35.72 -10.68 0zm10.68 -44.94l22.83 0c4.87,0 8.65,-0.5 11.38,-1.52 2.73,-1 4.8,-2.6 6.21,-4.83 1.43,-2.2 2.14,-4.6 2.14,-7.2 0,-3.8 -1.37,-6.95 -4.12,-9.4 -2.75,-2.45 -7.09,-3.67 -13.02,-3.67l-25.43 0 0 26.62zm23.74 -75.96c22.27,0 42.46,9.04 57.04,23.63 14.59,14.59 23.63,34.77 23.63,57.04 0,22.24 -9.04,42.41 -23.63,57.01 -14.59,14.61 -34.77,23.66 -57.04,23.66 -22.24,0 -42.41,-9.04 -57.01,-23.63 -14.62,-14.63 -23.66,-34.8 -23.66,-57.04 0,-22.27 9.04,-42.45 23.63,-57.04 14.63,-14.59 34.8,-23.63 57.04,-23.63zm47.02 33.65c-12.02,-12.02 -28.65,-19.47 -47.02,-19.47 -18.36,0 -35.01,7.44 -47.02,19.46 -12.02,12.03 -19.46,28.66 -19.46,47.02 0,18.36 7.44,35.01 19.46,47.02 12.02,12.02 28.66,19.46 47.02,19.46 18.37,0 34.99,-7.44 47.02,-19.47 12.02,-12.01 19.47,-28.65 19.47,-47.02 0,-18.37 -7.44,-34.99 -19.47,-47.02zm313.82 -799.04c0.12,-8.19 -5.2,-14.24 -13.74,-18.58 -0.94,-0.56 -2.03,-0.98 -3.05,-1.53l-0.07 0c-1.97,-0.93 -3.93,-1.54 -6.13,-2.24 0,0 0.06,0 0.12,0 -0.12,-0.1 -0.34,-0.1 -0.5,-0.1 -1.31,-0.32 -2.62,-0.46 -3.95,-0.58 -0.79,-0.04 -1.52,-0.28 -2.42,-0.28 -1.93,0 -4,0.28 -5.91,1.08 0.1,-0.12 -7.44,-1.98 -8.72,-2.21 -2.45,-0.35 -5.06,-0.24 -7.47,-0.24 -7.16,-2.39 -8.61,-3.42 -4.44,-2.96 1.17,0 2.19,0 3.31,-0.36 5.8,-1.17 10.41,-2.49 10.56,-7.61 0.08,-5.63 -2.85,-15.23 -9.93,-18.27 -3.14,-1.29 -6.74,-1.85 -10.24,-2.72 -6.72,-1.53 -1.67,-4.11 2.76,-4.68 7.33,-0.61 10.98,-3.28 9.96,-9.17 -0.11,-0.45 -0.44,-0.75 -0.91,-1.08 2.22,-2.59 3.38,-5.43 2.5,-8.45 -0.96,-2.83 -3.8,-4.72 -7.1,-5.75 0.95,-1.54 2.13,-2.85 3.07,-4.27 -0.81,-1.68 -2.12,-3.04 -3.27,-4.59 -1.48,-0.94 -2.95,-1.85 -4.11,-3.3 -1.44,-1.76 -2.18,-3.89 -4.02,-5.53 -1.94,-2.12 -4.96,-4.51 -8.32,-4.97 -2.61,-0.46 -4.82,0.63 -6.35,2.22 -1.98,2.01 -2.55,3.77 -5.97,4.62 -1.91,0.55 -3.99,0.36 -5.81,1.04 -1.8,0.61 -2.83,1.41 -4.3,2.61 -1,1.09 -1.52,2.47 -2.83,2.57 -0.21,0.4 -0.93,0.83 -1.8,0.62 -3.67,-1.19 -7.24,-2.4 -10.68,-3.87 -2.43,0.44 -4.99,0.79 -7.38,1.13 -0.52,-0.8 -0.65,-1.56 -1.11,-2.34 -4.38,-6.4 -12.17,-14.49 -21.17,-17.45 -6.64,-2.24 -15.47,3.19 -18.61,7.71 -0.59,-0.13 -1.18,-0.13 -1.74,-0.13 -1.26,0.13 -2.43,0.35 -3.54,0.56 1.56,-1.41 2.35,-3.15 1.7,-5.76 -1.54,-5.63 -7.1,-14.48 -14.86,-16.11 -3.41,-0.79 -7.1,-0.79 -10.64,-0.85 -6.98,-0.5 -2.89,-3.91 1.27,-5.14 6.91,-2.01 9.85,-5.07 7.13,-10.61 -0.14,-0.48 -0.56,-0.79 -1.09,-0.87 1.49,-2.9 1.75,-5.96 0.07,-8.66 -0.41,-0.61 -1.22,-1.2 -1.82,-1.76 16,1.03 26.58,-7.08 25.27,-19.11 0,0 0.09,0 0.13,0 -0.2,-1.26 -0.42,-2.67 -0.85,-4.1 10.95,-5.67 14.62,-16.25 4.66,-25.06 -0.06,-0.1 -0.06,-0.1 -0.06,-0.1 -0.52,-0.39 -0.61,-0.96 -1.11,-1.31 -4.9,-4.43 -16.26,-7.63 -23.58,-5.52 -5.32,1.42 -4.1,1.19 -8.09,-0.69 -0.15,-1.42 -0.61,-2.74 -1.32,-3.94 -0.13,-0.47 -0.3,-0.67 -0.43,-1.02 -0.65,-0.75 -1.34,-1.53 -2.14,-2.23 -0.82,-0.98 -1.58,-1.99 -2.7,-2.85 -0.43,0.32 -1.01,0.23 -1.54,0.11 -0.5,-0.21 -1,-0.57 -1.52,-0.81 -0.15,-0.1 -0.21,-0.22 -0.21,-0.22 5.08,-1.06 9.12,-3.52 11.6,-7.28 11.3,-2.74 26.87,-8.97 25.03,-18.74 -1.07,-6.91 -5.67,-10.69 -11.83,-12.81 7.09,-6.28 12.13,-13.69 7.24,-21.11 -1.52,-2.44 -3.29,-4.09 -5.27,-5.52l0.3 0c0,0.11 0.16,0.11 0.16,0.11 0,0 -0.35,-0.22 -0.76,-0.55 -0.05,0 -0.14,-0.11 -0.14,-0.11 -2.02,-1.32 -4.2,-2.22 -6.56,-2.73 -0.5,-0.24 -1.2,-0.24 -1.68,-0.47 -1.9,-0.34 -3.86,-0.7 -5.92,-0.78 -0.57,-0.13 -1.22,-0.25 -1.83,-0.25 -2.41,0 -4.87,-0.04 -7.43,-0.17 -0.81,-1.67 -1.97,-3.02 -3.51,-4.21 0.14,0 0.22,0 0.28,-0.1 16.07,-8.62 -0.94,-24.38 -10.21,-35.64 4.51,0 8.89,-0.12 13.78,-1.79 4.47,-1.43 2.84,-6.73 1.12,-9.05 -0.39,-0.57 -0.82,-1.21 -1.35,-1.78 12.86,-3.76 11.41,-16.15 0.96,-24.35 0.74,-2 0.74,-3.77 0.39,-5.44 0,0 -0.16,0 -0.23,0.14 -0.08,-0.47 0,-0.87 -0.08,-1.2 -0.22,-0.69 -0.81,-1.21 -1.15,-1.89 -0.75,-1.22 -1.31,-2.56 -2.5,-3.66 -0.79,-0.77 -1.74,-1.2 -2.7,-1.86 -1.24,-0.81 -2.24,-1.66 -3.63,-2.36 -1.19,-0.45 -2.42,-0.75 -3.79,-1.19 -1.11,-0.35 -2.29,-0.91 -3.44,-1.15l-0.1 0.12c-0.71,-0.12 -1.39,-0.39 -2.04,-0.51 -0.58,-4.57 -3.22,-8.66 -8.61,-11.4 -3.66,-1.89 -7.44,-2.92 -11.47,-3.43 0.09,0 0.23,0 0.37,0 -0.28,0 -0.5,0 -0.72,0 -1.9,-0.34 -3.77,-0.45 -5.57,-0.57 -0.66,0 -1.24,-0.11 -1.98,-0.11 -2.4,-0.12 -4.8,-0.12 -7.15,-0.21 -1.3,0 -2.55,-0.12 -3.86,-0.12 2.91,-1.2 5.83,-2.35 7.3,-4.25 3.15,-3.82 5.33,-7.29 3.37,-11.93 -0.22,-0.53 -0.48,-0.93 -0.57,-1.41 0.57,-0.56 1,-1.13 1.37,-1.76 4.82,-11.95 -5.56,-20.03 -11.17,-30 -3.79,-6.73 -3.79,-15.16 -14.59,-18 -10.48,-2.92 -21.03,-2.36 -30.98,0.21 -3.43,-3.65 -7.95,-6.68 -13.12,-8.88 4.58,-4.86 8.45,-9.71 7.44,-16.91 -1.33,-8.88 -7.24,-16.71 -16.3,-22.23 -8.61,-5.24 -20.71,-10.21 -31.96,-9.06 -7.9,0.63 -12.8,5.17 -20.89,5.69 -0.81,0 -1.62,0.38 -2.58,0.5l0 -0.12c-1.15,0.21 -2.24,0.54 -3.48,0.78 -3.14,0.68 -6.27,1.54 -9.56,2.44 -5.41,1.2 -4.44,4.39 -9.29,2.75 -2.62,-0.98 -5.31,-1.55 -8.08,-2.02 -0.45,-0.1 -0.81,-0.23 -1.17,-0.23 -1,-0.1 -2.12,-0.33 -3.24,-0.44 0.67,-1.09 1.49,-2.05 2.14,-3.15 5.6,-12.54 -4.46,-24.38 -18.69,-29.56 -1.78,-10.5 -6.94,-20.77 -22.8,-22.59 -13.65,-1.65 -23.95,3.75 -27.21,12.55 -4.98,-0.8 -8.91,-0.45 -13.02,1.77 0.07,-0.11 0.21,-0.23 0.21,-0.33 -0.35,0.22 -0.65,0.33 -1.02,0.54 -0.79,-2.43 -2.46,-4.67 -4.29,-6.31 -0.82,-0.81 -1.63,-1.33 -2.35,-1.98 0.17,0 0.3,-0.12 0.43,-0.25 0.16,-0.1 0.21,-0.1 0.21,-0.22 0.29,-0.12 0.46,-0.12 0.69,-0.3 0.4,-0.22 0.87,-0.44 1.22,-0.81 0.14,0 0.14,0 0.19,0 0,0 0.26,-0.12 0.42,-0.21 1.36,-0.74 2.75,-1.53 4.07,-2.56 0.13,-0.17 0.27,-0.42 0.5,-0.5 1.38,-1.12 2.48,-2.36 2.85,-3.67 2.62,-8.07 -0.07,-15.51 -6.94,-21.78 -8.02,-7.3 -21.41,-13.31 -34.25,-13.98 -1.46,-2.73 -3.59,-5.28 -6.66,-7.4 -4.44,-2.87 -9.1,-3.89 -14.59,-2.87 -2.8,0.43 -4.81,2.53 -6.98,3.35 -4.45,-3 -8.41,-4.86 -15.93,-5.09 -7.6,-0.23 -14.9,3.09 -18.33,8.38 -4.09,6.32 -4.29,14.04 -1.38,20.7 1.38,3.06 4.31,5.65 6.71,8.28 2.7,1.57 2.27,2.57 -1.24,2.57 -1.75,1.53 -3.75,2.66 -6.07,3.5 -0.21,-0.42 -0.8,-0.95 -1.17,-1.64 -0.74,-3.08 -3.27,-5.65 -6.87,-7.06 -3.48,-2.46 -7.29,-4.56 -11.53,-5.65 6.74,-20.81 0.8,-47.57 -21.11,-56.13 -5.07,-2 -10.15,-2.4 -14.75,0.69 -4.43,2.99 -8.47,5.97 -12.35,8.93 -6.48,-6.17 -18.16,-7.96 -28.32,-5.61 -3.65,-1.8 -6.79,-3.54 -6.43,-5.8 0.81,-4.61 2.43,-9.16 2.57,-13.89 0.07,-4.23 -4.38,-8.43 -10.09,-8.59 -6.87,-0.36 -13.85,0 -19.51,3.17 -5.39,2.97 -13.69,11.5 -20.94,7.07 -4.88,-2.97 -9.85,-4.34 -16.13,-4.01 -0.72,0 -1.53,0.47 -2.33,1.04 -0.81,0.62 -1.62,1.31 -2.43,2.08l0.09 0c-1.15,1.22 -2.19,2.2 -2.63,2.08 -1.68,-0.73 -3.43,-1.64 -5.18,-2.53 -0.87,-0.42 -1.67,-0.9 -2.56,-1.33 -1.24,-0.63 -2.39,-1.33 -3.57,-1.88 -5.85,-3.06 -12.19,-5.95 -18.39,-6.51 0,0 0,0 0.06,-0.09 -0.15,0 -0.19,0.09 -0.28,0 -1.69,-0.14 -3.37,-0.14 -5.11,0.21 -12.94,1.78 -14.37,13.8 -11.04,21.66 2.05,4.8 0.74,6.6 -3.63,6.68 0,0 0,0 -0.09,0 -1.53,0.08 -3.35,0 -5.46,-0.22 -3.65,-0.45 -7.26,-0.93 -10.88,-0.68 -7.76,0.44 -13.07,2.67 -18.11,7.29 -6.22,5.76 -5.41,13.28 -2.14,20.37 -4.59,-0.34 -9.4,-0.12 -13.41,0.89 -8.4,2.18 -14.45,5.07 -16.94,10.06 -4.17,-1.11 -9.15,-0.13 -14.41,2.97 -8.52,5 -14.3,6.45 -25.32,5.22 -3.88,-0.45 -9.59,-7.76 -15.05,-9.31 -2.98,-0.91 -6.25,-1.64 -9.49,-1.13 -1.96,0.22 -3.94,0.57 -5.75,1.27 -1.02,0.18 -1.75,0.4 -2.2,0.5 -3.43,-2.61 -8.03,-3.99 -13.37,-3.87 -10.09,0.13 -19.55,2.19 -28.23,5.65 -0.17,0 -0.38,0.11 -0.51,0.22 -2.93,1.24 -5.87,2.69 -8.7,4.24 -12.33,0.95 -29,6.71 -30.16,17.67 -0.45,3.37 0.08,6.22 1.16,9.38 0.16,0.33 0.24,0.71 0.24,0.93 -0.73,0.87 -1.7,1.65 -2.27,2.54 -3.43,3.85 -5.05,7.15 -5.1,11.26 -6.73,2.91 -14.17,7.54 -16.5,12.74 -1.32,3.01 -0.44,5.52 1.68,7.62 -3.82,7.89 -1.19,15.52 9.32,21.5 6.22,3.55 15.34,3.41 24.11,2.85 0.44,1.07 1.26,2.34 2.35,3.55 0.58,0.69 0.93,0.91 1.17,1.2 -1.55,0.56 -3.22,1.03 -4.83,1.35 -3.87,0.96 -8.18,1.78 -11.76,3.09 -7.42,2.97 -9.04,7.64 -7.07,11.85 -1.81,1.08 -3.26,2.31 -4.65,3.67 -8.63,-4.09 -19.67,-6.58 -29.82,-6 -1.97,-2.55 -4.43,-4.85 -7.87,-6.55 -4.89,-2.16 -9.81,-2.62 -15.2,-1.09 -2.54,0.78 -4.24,2.96 -6.26,4.1 -4.88,-2.21 -9.06,-3.74 -16.59,-3.11 -7.59,0.65 -14.22,4.91 -16.56,10.53 -2.78,6.73 -1.5,14.37 2.69,20.7 2.03,2.84 5.4,5.09 8.24,7.31 3.09,1.18 2.85,2.14 -0.55,2.71 -1.64,1.67 -3.3,3.08 -5.28,4.23 -2.03,-2.67 -5.5,-5.5 -8.83,-7.16 -6.2,-3.33 -12.63,-5.9 -20.45,-4.93 -13.09,1.79 -18.02,12.97 -19.72,22.82 -5.91,0.57 -10.7,2.11 -14.37,4.44 -0.16,0.11 -0.43,0.18 -0.56,0.28 -2.23,1.5 -3.82,3.26 -4.98,5.26 -0.13,0.17 -0.31,0.4 -0.43,0.61 -0.94,2 -1.54,4.22 -1.54,6.78 0,0.29 0.09,0.64 0.09,0.87 0.29,2.67 0.85,5.41 2.32,8.47 4.8,9.98 13.94,19.41 24.81,26.59 -2.98,3.42 -4.75,7.21 -5.12,11.41 -6.76,-1.53 -13.2,-3.85 -18.88,2.55 -5.05,5.59 -4.61,12.74 -9.29,18.41 -6.85,8.47 -4.67,17.99 1.3,26.25 -6.18,0.45 -11.51,2.68 -15.31,9.18 -2.18,3.54 -2.92,7.87 -3.01,12.43 -1.23,0.76 -2.25,1.67 -2.89,2.73 -2.87,4.73 -0.81,8.74 3.14,11.65 -2.63,3.07 -3.29,6.39 -2.14,9.81 -3.57,2.34 -4.43,5.76 -4.8,9.29 -8.05,-6.28 -18.63,0.9 -10.73,7.76 2.91,2.43 3.79,6.82 4.52,11.07 -7.6,1.26 -14.01,3.87 -16.35,9.3 -2.54,0 -5.02,0 -7.53,0.11 -0.8,0.1 -1.67,0.1 -2.54,0.19 -1.9,0.12 -3.73,0.49 -5.54,0.83 -0.75,0.16 -1.49,0.28 -2.13,0.39 -2.33,0.67 -4.59,1.56 -6.64,3.02l-0.16 0.12c-0.48,0.26 -0.81,0.49 -0.81,0.49l0.08 -0.1 0.29 0c-2.07,1.5 -3.95,3.26 -5.56,5.63 -5.02,7.91 0.3,15.62 7.52,22.02 -6.29,2.25 -11.02,6.23 -12.33,13.3 -1.81,10.31 14.37,16.72 26.14,19.75 2.56,3.71 6.77,6.38 12.27,7.33 -0.14,0.12 -0.23,0.23 -0.35,0.34 -0.58,0.22 -1.09,0.55 -1.63,0.79 -0.51,0.1 -1.15,0.33 -1.52,0 -1.24,0.89 -2.2,2.02 -3.02,2.95 -0.7,0.7 -1.36,1.45 -1.95,2.25 -0.16,0.33 -0.46,0.66 -0.58,1.02 -0.74,1.19 -1.18,2.63 -1.31,4.15 -4.24,2.01 -2.93,2.13 -8.48,0.69 -7.67,-2.2 -19.43,1.09 -24.68,5.76 -0.53,0.46 -0.53,0.85 -0.89,1.31l-0.21 0.11c-10.35,9.07 -6.49,20.25 4.9,26.1 -0.49,1.46 -0.74,2.88 -0.95,4.3 0.06,0 0.06,0 0.06,0 -1.07,13.08 10.66,21.71 28.35,19.86 3.64,3.51 8.4,5.29 15.2,4.5 2.75,-0.34 5.76,-1.57 8.24,-2.65 0.14,0.54 0.35,1.35 0.58,2.75 0.21,1.04 -0.37,1.99 -1.02,2.93 -0.57,0.59 -1.32,1.42 -1.88,2.15 -0.9,0.91 -1.7,1.83 -2.14,2.91 -1.17,2.84 3.61,7.41 6.49,8.59 8.48,3.46 17.75,6.68 26.82,8.97 0.93,0.23 1.67,0.46 2.19,0.56 -0.08,0.24 -0.21,0.45 -0.31,0.69 -0.77,1.66 -1.99,3.44 -2.98,4.5 -3.6,3.79 -7.82,6.91 -10,11.41 -3.35,6.73 4.79,12.11 12.2,14.04 12.55,3.48 36.28,2.68 47.35,-5.83 0.24,0 0.44,0 0.65,0 -1.53,2.52 -3.13,4.97 -3.56,7.52 -4.84,-2.32 -12.11,-2.67 -16.3,0.99 -2.54,2.23 -3.28,5.19 -2.83,8.31 -0.65,0.07 -1.17,0.3 -1.56,0.65 -4.34,4.79 -2.69,8.41 3.31,11.75 3.63,2.11 6.48,6.15 -0.38,5.08 -3.58,-0.59 -7.02,-1.33 -10.71,-1.33 -7.9,0.11 -16.39,7.42 -19.66,12.62 -3,4.48 0.3,7.41 4.68,10.59 0.87,0.57 1.68,1.04 2.84,1.31 3.8,1.26 1.9,1.59 -5.85,1.14 -2.19,-0.89 -4.36,-1.98 -6.64,-2.57 -1.26,-0.34 -9.15,-1.3 -9.05,-1.3 -1.32,-1.46 -2.93,-2.46 -4.74,-3.22 -0.51,-0.19 -1.02,-0.19 -1.41,-0.3 -1.53,-0.58 -2.97,-0.91 -4.64,-1.18 -0.09,0 -0.3,-0.04 -0.45,-0.04l0.07 0.04c-2.25,-0.16 -4.52,-0.27 -6.72,-0.16 0,-0.11 0,-0.11 0,-0.11 -1.3,0 -2.4,0.11 -3.65,0.11 -10.23,0.84 -18.61,4.17 -23.36,11.46 -4.24,6.23 4.59,12.19 -0.45,18.07 -1.81,2.05 -2.33,4.18 -2.33,6.27 -2.27,1.89 -4.17,3.79 -5.26,6.12 -1.81,4.1 0.29,7.96 -1.81,12.03 -0.28,0.56 -0.35,1.04 -0.5,1.46l-0.09 0c-0.21,0.31 -0.21,0.76 -0.21,1.11 -0.59,2.11 -0.96,4.22 -1.48,6.26 -0.72,3.13 2.27,3.7 -0.72,5.54 -1.8,1.25 -3.3,2.45 -4.67,3.87 0.08,0 0.21,0 0.21,0 -0.43,0.58 -1.08,0.9 -1.6,1.48 -0.64,-0.67 -1.24,-1.35 -1.83,-1.99 -8.42,-6.89 -21.2,-5.55 -30.01,-0.22 -8.97,-2.57 -18.98,-3.18 -25.5,3.97 -5.69,6.31 -4.58,13.08 1.55,17.49 -2.26,2.32 -3.28,4.42 -2.85,7.08 0,-0.16 0,-0.27 -0.08,-0.31 0.08,0.15 0.08,0.41 0.08,0.62 -2.19,-0.31 -4.59,-0.21 -6.48,0.21 -0.76,0.12 -1.47,0.37 -2.21,0.61 -0.08,0 -0.08,0 -0.08,0 0,-0.12 0,-0.23 0,-0.35 -0.08,-0.25 -0.13,-0.35 -0.21,-0.56 0,0 0,0 0,-0.11 -0.09,-0.26 -0.12,-0.41 -0.22,-0.52 0,-0.21 0,-0.33 0.1,-0.46 -0.1,-0.57 -0.39,-1.15 -0.54,-1.66 -0.08,-0.44 -0.21,-0.79 -0.36,-1.24 -0.51,-1.22 -1.07,-2.27 -2.24,-3.09 -5.81,-3.89 -12.71,-4.97 -20.09,-3.54 -8.48,1.55 -17.39,6.33 -21.98,12.48 -2.78,-0.21 -5.57,0 -8.2,0.96 -3.69,1.17 -5.96,3.15 -6.96,6.24 -0.59,1.55 0.36,3.27 0.36,4.58 -3.75,1.2 -6.51,2.5 -9.08,6.14 -2.68,3.68 -2.32,8.45 0.96,11.77 3.72,4.08 9.91,6.69 16.3,7.3 2.91,0.34 5.96,-0.35 8.82,-0.63 2.21,-0.93 2.76,-0.34 1.67,1.42 0.73,1.3 1.03,2.62 1.09,4.11 -2.89,-0.24 -6.41,0.15 -8.93,0.96 -5.08,1.43 -9.6,3.22 -12.08,7.19 -4.01,6.61 2.19,13.4 8.67,18.26 -0.85,1.25 -1.07,2.43 -1.51,3.64 -0.07,-0.23 -0.16,-0.46 -0.16,-0.46 -0.35,0.58 -0.19,1.17 -0.42,1.77 -0.16,0.91 -0.38,1.61 -0.43,2.33 0,1.17 0.27,2.23 0.67,3.19 0.19,0.8 0.4,1.5 0.79,2.13 0.74,1.03 1.83,1.88 2.98,2.78 0.6,0.58 1.09,1.1 1.76,1.41 2.19,1.24 4.76,2.37 8.11,3 9.41,1.86 19.99,1.72 29.84,-0.19 1.33,2.76 3.37,5.09 6.24,6.98 -3.96,2.38 -8.34,4.39 -5.93,9.52 2.18,4.5 7.59,7.3 9.83,11.8 3.37,6.55 11.4,9.42 20.01,10.2 -2.33,2.87 -2.91,6.28 0.29,10.75 1.91,2.31 4.6,4.39 7.91,6.36 0.08,0.91 0.35,1.66 0.93,2.45 0.63,0.91 1.6,1.2 2.48,1.79 -0.58,0.23 -1.1,0.45 -1.69,0.78 -5.46,3.41 -11.52,8.62 -9.63,14.64 0.81,2.48 2.72,4.24 4.09,6.57 0.51,1.03 1.03,2.14 1.27,3.08 0.06,0.22 0.13,0.22 0.13,0.48 -1.53,3.99 -5.41,9.72 -2.76,13.61 3.78,5.27 8.83,7.65 16.44,8.74 -0.16,0 -1.79,1.17 -2.85,2.96 -1.61,2.68 -1.76,5.5 -0.66,8.31 0.87,2.32 2.69,3.88 4.87,4.96 -4,3.03 -6.92,6.53 -3.72,10.33 3.29,3.76 7.97,5.86 12.41,8.4 -3.85,5.15 -6.93,10.9 2.05,15.05 6.51,2.94 16.3,6.41 24.03,4.7 0.65,0 1.24,0 1.95,0 1.91,0.24 4.2,0 6.31,-0.14 5.09,4.72 13.42,6.71 22.47,3.41 5.26,-1.9 9.05,-2.36 14.83,-2.45 0,0 0.07,0 0.24,0 -0.17,2.68 0.12,5.17 1.49,7.19 1.27,1.97 3.46,2.89 5.81,2.94 3.13,4.67 8.47,7.04 15.75,6.57 -0.8,2.54 -3.35,4.73 -5.06,6.82 -4.24,5.56 -7.28,12.96 -0.92,18.25 3.5,3.04 7.89,4 12.26,4.11 3.52,9.65 15.78,15.28 27.88,10.85 2.78,0.9 5.69,1.32 8.71,1.55 7.36,8.53 24.68,12.56 35.93,6.99 9.13,-4.33 15.38,-13.39 16.42,-22.34 2.63,-1.89 3.7,-4.69 3,-7.55 1.01,-0.31 1.88,-0.66 2.69,-1.11 0.09,0 0.13,0 0.22,0l-0.09 0c1.63,-0.88 3.15,-1.89 4.16,-2.99 5.03,1.44 10.45,2.02 15.3,-0.33 3.71,-1.74 5.52,-4.27 8.95,-6.15 2.25,-1.15 4.36,-2.47 6.28,-3.88 2.1,-0.36 4.23,-0.56 5.99,-1.5 135,-66.06 221.99,-26.29 277.72,65.95l0 1836.56 242.88 0 0 -937.56c0,-112.78 135.17,-166.92 135.17,-42.85l0 980.42 234.93 0 0 -1093.2c0,-225.56 -235.65,-231.57 -374.45,-77.43l0 -597.63c17.61,-17.71 38.62,-30.05 63.66,-35.28 8.27,4.51 21.13,4.38 28.99,-0.59 2.46,0.59 5.06,0.8 7.69,0.59 3.94,2.73 8.53,3.66 12.92,3.2 -1.08,0.22 -2.43,0.34 -3.56,0.92 -5.94,2.7 -4.76,8.82 -3.31,13.1 0.87,2.56 3.59,3.89 3.52,6.68 -0.21,3.31 0,5.52 2.27,8.27 2.3,2.89 6.05,3.99 9.91,4.09 0.57,1.04 1.32,2.11 2.26,2.98 -2.05,2.91 -0.3,5.99 3.06,8.75l0.15 0c1.32,1.12 2.78,2.02 4.25,2.87 -4.19,8.68 -0.6,20.61 7.78,26.8 6.37,4.73 17.14,5.2 25.37,2.41 -3,3.65 -1.55,8.32 3.65,10.43 3.57,1.41 6.19,2.21 8.39,5.08 2.71,3.41 6.36,5.65 11.03,7.41 5.32,2.1 18.31,4.43 23.51,0.67 3.14,-2.13 4.47,-4.11 4.6,-7.3 0,-1.13 -1.67,-3.77 0.72,-4.09 0.22,0 0.34,0 0.5,-0.13 8.11,2.98 13.88,-1.65 15.05,-8.09 3.44,-0.59 6.07,-2.75 5.69,-6.63 -0.13,-1.99 -0.87,-3.99 -1.53,-5.96 -0.28,-0.81 -0.51,-1.57 -0.67,-2.45 0.3,0 0.67,0.1 1.33,0.1 1.11,0.11 2.19,0 3.06,-0.1 2.43,3.74 5.28,7.61 9.73,9.03 7.37,2.45 13.36,1.29 17.53,-2.85 2.06,0.14 4.01,-0.22 5.64,-1.76 0.64,-0.55 0.71,-1.3 1.06,-1.88 0.3,3.08 0,6.34 3.59,8.84 2.17,1.67 4.52,2.57 7.45,3.06 4.87,0.9 8.11,1.89 12.19,4.23 7.02,3.98 14.61,3.43 20.08,0 1.67,0.6 3.49,1.04 5.26,1.26 0.57,0 1.16,0.05 1.79,0.05 6.17,2.46 15.34,1.04 21.56,-0.61 8.63,-2.47 7.15,-7.65 5.11,-12.72 4.45,-1.57 8.91,-2.78 12.64,-5.54 3.51,-2.8 1.68,-6.2 -0.94,-9.3 2.17,-0.7 4.01,-1.77 5.24,-3.52 1.67,-2.23 2.05,-4.8 1.39,-7.31 -0.68,-1.55 -1.75,-2.91 -1.83,-2.91 6.73,0.12 11.63,-1.19 16.02,-5.28 3.11,-2.97 1.07,-8.39 0.69,-12.06 0,-0.13 0.1,-0.23 0.24,-0.34 0.42,-0.79 1.04,-1.67 1.67,-2.33 1.69,-2.01 3.7,-3.19 5.02,-5.3 3,-4.84 -1.01,-10.07 -5.02,-13.84 -0.28,-0.3 -0.76,-0.53 -1.11,-0.89 0.82,-0.34 1.78,-0.45 2.49,-1.06 0.66,-0.7 1,-1.39 1.26,-2.13 3.28,-1.13 6.27,-2.68 8.24,-4.32 3.78,-3.31 4.02,-6.39 2.84,-9.17 7.37,0.54 14.89,-0.94 19.23,-6.02 3.04,-3.52 8.3,-5.07 11.01,-8.82 3.28,-4.11 0,-6.35 -2.85,-8.84 2.99,-1.3 5.19,-3.08 6.94,-5.22 7.96,2.98 17.08,4.63 25.54,4.2 3.02,-0.13 5.5,-0.53 7.62,-1.31 0.78,-0.35 1.32,-0.69 1.88,-1.09 1.24,-0.56 2.27,-1.15 3.08,-1.9 0.49,-0.55 0.87,-1.13 1.18,-1.78 0.51,-0.78 0.99,-1.63 1.21,-2.53 0.13,-0.8 0.22,-1.43 0.22,-2.36 0,-0.39 0.15,-0.83 0.08,-1.43 0,0.11 -0.17,0.24 -0.3,0.35 -0.13,-1.09 0,-2.09 -0.43,-3.2 6.66,-3.24 13.34,-8.2 11.46,-14.48 -1.13,-3.76 -4.73,-5.88 -8.67,-7.89 -2.06,-1.02 -4.96,-1.86 -7.38,-2.08 0.29,-1.07 0.85,-2.24 1.67,-3.33 -0.42,-1.66 0.24,-2.02 1.84,-1.02 2.48,0.67 4.9,1.66 7.36,1.76 5.63,0.35 11.56,-1.08 15.65,-3.98 3.62,-2.41 4.94,-6.52 3.48,-9.94 -1.39,-3.39 -3.57,-4.94 -6.41,-6.66 0.28,-1.08 1.46,-2.4 1.37,-3.72 -0.21,-2.68 -1.72,-4.78 -4.66,-6.43 -2.08,-0.97 -4.38,-1.56 -6.72,-1.77 -2.71,-6.01 -9.26,-11.29 -16.17,-13.85 -5.9,-2.18 -12.17,-2.18 -17.84,0.33 -1.19,0.47 -1.99,1.39 -2.71,2.35 -0.52,0.78 -0.81,1.3 -1.09,1.97 -0.18,0.23 -0.24,0.35 -0.24,0.46 0,0 -0.08,0.12 0,0.12 -0.13,0.21 -0.35,0.5 -0.43,0.72 0,0 0,0.14 -0.07,0.26l-0.24 0.12c0,0.19 -0.04,0.19 -0.04,0.32 -0.69,-0.32 -1.25,-0.56 -1.84,-0.7 -1.53,-0.52 -3.57,-1.07 -5.61,-1.07 0.14,-0.23 0.14,-0.32 0.28,-0.56 -0.14,0.12 -0.14,0.24 -0.22,0.33 1.03,-2.35 0.65,-4.2 -0.71,-6.56 6.26,-2.82 8.59,-8.6 5.17,-14.74 -4.01,-7.05 -12.79,-7.89 -21.03,-6.93 -6.26,-5.77 -17.03,-8.6 -25.61,-3.98 -0.76,0.57 -1.51,1.02 -2.14,1.59 -0.3,-0.57 -0.79,-1.01 -1.08,-1.48 0.05,0 0.13,0 0.29,0 -0.94,-1.41 -1.93,-2.63 -3.22,-3.98 -2.19,-1.93 0.43,-1.93 0.57,-4.86 0.16,-1.86 0.21,-3.74 0.21,-5.65 0,-0.23 0.15,-0.57 0,-0.83l-0.05 0c0,-0.46 0.05,-0.8 0,-1.37 -1.03,-3.87 1.72,-6.83 1.15,-10.61 -0.44,-2.11 -1.67,-3.99 -3.2,-5.89 0.51,-1.88 0.51,-3.76 -0.57,-5.74 -3,-5.6 5.89,-9.48 3.78,-15.58 -2.55,-6.83 -9.12,-10.83 -17.58,-12.95 -1.04,-0.21 -1.97,-0.43 -3.18,-0.69 -1.88,-0.34 -3.76,-0.48 -5.72,-0.48 0,-0.11 0.07,-0.11 0.07,-0.11 -0.24,0 -0.37,0 -0.6,0 -1.17,0 -2.12,0.11 -3.31,0.22 -0.69,0.03 -1.44,0.03 -2.15,0.14 -1.7,0.48 -3.3,1.13 -4.69,2.13 0.09,-0.12 -6.94,-0.34 -7.89,-0.12 -2.24,0.23 -4.35,0.8 -6.49,1.27 -6.71,-0.7 -8.26,-1.27 -4.69,-1.66 1.02,-0.22 1.97,-0.48 2.78,-0.8 4.04,-1.99 7.09,-3.98 6.43,-7.62 7.73,-0.74 15.25,-3.46 19.73,-8.05 2.98,0 5.9,-0.35 8.67,-1.15 11.69,4.94 24.54,-0.12 28.61,-9.65 4.46,0.23 8.98,-0.62 12.65,-3.4 6.86,-5.09 4.38,-12.63 0.43,-18.26 -1.44,-2.1 -3.88,-4.52 -4.52,-6.97 7.29,0.69 12.71,-1.42 16.28,-5.98 2.42,0 4.54,-0.68 6.07,-2.64 2.61,-3.34 2.53,-8.66 1.75,-12.76 0.15,-0.18 0.45,-0.52 0.71,-0.74 0.5,0.46 0.89,0.87 1.62,1.19 2.84,1.53 5.56,2.36 9.13,2.57 5.69,0.35 9.52,1.09 14.52,3.2 8.91,3.55 17.17,2 22.78,-2.58 2.14,0.36 4.25,0.58 6.22,0.7 0.65,0 1.37,-0.12 2.04,-0.12 7.46,2 17.51,-0.85 24.3,-3.52 9.28,-3.77 6.59,-9.54 3.18,-14.96 4.73,-2.34 9.47,-4.22 13.11,-7.87 3.46,-3.54 0.74,-7.31 -2.98,-10.38 2.18,-0.98 4.09,-2.45 5.17,-4.72 1.43,-2.69 1.43,-5.65 -0.07,-8.34 -0.94,-1.76 -2.55,-3.08 -2.61,-3.08 7.8,-0.8 12.98,-2.91 17.13,-7.98 2.87,-3.87 -0.49,-9.76 -1.8,-13.69 0.07,-0.11 0.13,-0.35 0.22,-0.46 0.36,-1.15 0.72,-2.01 1.46,-3.02 1.55,-2.27 3.57,-3.93 4.52,-6.51 2.4,-5.87 -3.2,-11.28 -8.4,-15.06 -1.67,-1.07 -3.35,-1.98 -5.02,-2.6 -0.72,-0.35 -1.33,-0.46 -1.9,-0.69 -1.02,-0.24 -2.1,-0.57 -3.14,-0.79 -0.8,-0.13 -1.46,-0.13 -2.27,-0.13 -0.95,-0.06 -1.81,-0.06 -2.7,-0.06 -0.8,0 -1.52,0.19 -2.32,0.19 -0.67,0.11 -1.33,0.11 -1.92,0.22 0,0 -0.05,0.12 -0.14,0.12 -0.44,0.1 -0.94,0.21 -1.3,0.21 -0.74,-1.2 -1.54,-2.45 -2.41,-3.77 -1.91,-2.85 -5.05,-4.71 -7.85,-7.08 6.89,-2.77 14.13,-5.87 12.8,-13.06 -1.15,-5.28 -3.65,-11.18 -6.14,-16.57 4.68,1.55 9.58,2.56 14.83,1.66 2.42,-0.33 4.53,-0.98 6.52,-1.89 0.5,-0.23 0.8,-0.44 1.23,-0.76 1.3,-0.66 2.48,-1.48 3.43,-2.43 0.14,-0.12 0.38,-0.24 0.52,-0.33 -0.08,0 -0.14,0.09 -0.29,0.09 1.9,-2.1 3.13,-4.61 2.69,-7.74 -0.93,-6.95 10.45,-9.08 10.45,-16.17zm-623.67 50.26l0 0c-2.69,20.01 -17.81,53.67 -20.52,71.35 -2.63,17.81 -8.83,50.12 -18.83,52.98 -10.01,2.8 -15.25,-15.07 -26.36,-88.73 -2.2,-14.37 -5.46,-31.5 -9.83,-49.68 10.06,-3.22 19.34,-8.38 24.8,-15.12 1.68,0.28 3.36,0.65 5.08,0.86 8.34,4.65 18.15,6.53 25.21,1.15 6.27,2.03 12.74,3.5 18.98,3.19 2.5,8.48 2.65,15.56 1.48,24zm344.54 140.05l0 0c2.98,2.01 4.87,4.39 8.12,6.39 -2.85,0.69 -4.89,2.58 -8.12,3.43 -3.3,0.93 -7.51,1.77 -11.02,3.15 -1.26,-0.8 -2.65,-1.64 -4.02,-2.35 -1.18,-1.76 -2.87,-3.54 -4.91,-5.19 -5.63,-4.67 -14.81,-9.85 -23.15,-10.61 -6.44,-0.58 -12.03,5.69 -13.2,10.15 -0.52,0 -1.11,0.09 -1.62,0.24 -2.1,0.55 -3.88,1.52 -5.92,2.31 -0.22,0.14 -0.36,0.24 -0.57,0.24 -0.94,-1.14 -2.04,-2.23 -3.21,-2.8 -2.26,-1.08 -4.44,-2.1 -7.07,-2.21 -3.54,-0.25 -6.96,0.55 -10.15,1.62 -1.77,-1.18 -3.39,-2.16 -5.78,-2.96 -4.52,-1.3 -9.33,-0.1 -12.98,2.13 -2.27,1.43 -7.93,-0.93 -10.81,-0.57 -4.39,0.44 -7.02,2.56 -8.83,5.65 -0.32,0.34 -0.45,0.9 -0.45,1.3 0,0.12 0,0.35 0,0.47 0,0.12 0,0.22 0,0.35 0,0.1 0,0.21 0,0.33 0,0.13 0.13,0.25 0.13,0.25 0.32,1.4 1.1,2.71 1.9,3.95 0,0.06 0.15,0.19 0.15,0.3 0.08,0 0.08,0.14 0.08,0.14 0.14,0.21 0.31,0.42 0.52,0.65 2.67,3.64 3.81,4.34 -1.48,3.64 -5.17,-0.67 -9.55,0 -12.7,2.24 -0.86,-0.23 -1.59,-0.33 -2.38,-0.46 0,-0.11 0,-0.11 0,-0.11 -0.39,-0.1 -0.75,-0.1 -0.97,-0.22 -0.52,0 -1.17,-0.1 -1.74,-0.22 -0.96,0 -1.76,0 -2.66,0 -0.51,0 -0.93,0 -1.28,0.12 -1.09,0.1 -2,0.32 -2.93,0.66 -0.39,0.13 -0.65,0.23 -1.06,0.35 -1.15,0.52 -2.38,1.19 -3.26,2.12 -1.17,1.06 -1.48,2.38 -1.74,3.65 -0.3,1.18 -5.25,0.83 -6.66,0.96 -4.89,0.55 -8.23,2.84 -10.36,6.33 -2.41,3.81 0,8.16 3.65,11.58 -0.95,0.23 -2.04,0.23 -2.91,0.67 -0.65,-0.31 -1.4,-0.67 -2.13,-0.91 0,-0.1 0,-0.1 0,-0.1 -0.37,-0.03 -0.65,-0.15 -0.93,-0.28 -0.6,-0.22 -1.02,-0.35 -1.63,-0.46 -0.69,-0.22 -1.44,-0.31 -2.32,-0.43 -0.51,-0.14 -1.15,-0.26 -1.74,-0.26 -0.72,0 -1.39,0 -2.2,0.12 -0.6,0.14 -1.11,0.14 -1.76,0.26 0,0 -0.23,0 -0.31,0 -0.33,0 -0.71,-0.38 -1.17,-0.38 -2.9,-0.48 -5.08,-0.22 -8.03,0.59 -0.29,0.1 -0.54,0.1 -0.87,0.34 -1.59,-2.33 -4.08,-3.88 -7.87,-4.22 -2.84,-4.01 -7.87,-6.85 -14.02,-7.09 18.02,-15.74 37.87,-33.18 60.44,-52 27.39,-23 49.46,-36.39 69.09,-46.71 2.67,3.48 5.97,6.68 10.07,8.8 7.36,3.66 17.21,2.94 25.49,-0.11 0.22,0.72 0.56,1.52 0.91,2.1 1.55,2.83 4.9,3.91 5.27,7.07 0.6,3.76 1.04,6.26 4.33,9.19 3.2,2.86 7.67,3.65 12.09,3.26 0.16,0.12 0.37,0.38 0.54,0.5 -1.77,10.02 4.29,21.64 14.39,27.19 1.59,0.85 3.7,1.19 5.76,1.76 1.74,1.56 3.87,2.85 5.98,4.1zm-155.37 -154.13l0 0c0.21,0.11 0.42,0.22 0.65,0.22 1.46,2.11 3.59,3.54 6.22,4.68 0.13,0.1 0.13,0.21 0.28,0.32 -4.53,1.44 -8.26,3.65 -8.47,7.49 -0.6,-3.19 -0.87,-7.72 -0.87,-12.97 0.8,0.13 1.45,0.36 2.19,0.25zm15.3 32.45l0 0c3.41,2.64 8.73,4.29 14.41,4.73 1.1,2.56 4.15,4.55 9.35,5.2 1.97,0.25 3.86,0 5.69,-0.19 -0.65,1.22 -1.17,2.53 -1.11,4.2 0.3,4.87 5.06,8.2 9.5,11.38 -2.1,3.75 1.09,7.3 5.83,9.87l-0.07 0.11c0,0 0.16,0 0.24,0.11 0.71,0.28 1.5,0.61 2.2,0.82 0.93,1.06 2.16,1.92 3.41,2.72 -0.13,0.95 0,1.97 0,2.95 -10.52,6.46 -22.25,11.87 -39.19,19.79 -32.37,15.28 -48.33,20.14 -48.33,20.14 0,0 1.13,-13.45 22.53,-56.74 4.09,-8.27 9.58,-16.83 15.53,-25.1zm-381.89 -48.35l0 0c6.78,-3.67 6.25,-9.32 4.28,-14.96 3.09,0.23 6.16,0.23 9.43,-0.12 9.2,4.02 22.36,8.13 32.19,7.89 2.34,12.01 13.88,23.78 29.08,25.89 1.22,0.23 2.76,-0.11 4.09,0 0.52,2.5 1.11,4.86 1.55,7.54 7.35,42.71 29.97,146.69 16.17,145.72 -13.7,-1.15 -78.7,-116.3 -97.66,-164.65 -0.81,-2.01 -1.56,-4.1 -2.35,-6.23 1.09,-0.41 2.19,-0.51 3.22,-1.07zm546.24 180.08l0 0c-0.4,0.23 -0.85,0.57 -1.36,0.92 -1.33,-0.56 -2.84,-1.04 -4.24,-1.22 -0.65,-0.54 -1.52,-0.89 -2.27,-1.34 2.48,0 4.83,-0.24 7.2,-0.73 0.48,0.49 1.21,0.96 1.78,1.42 -0.33,0.44 -0.71,0.65 -1.11,0.95zm-673.28 25.57l0 0c1.33,-0.98 2.49,-1.93 3.48,-3.07 0.59,1.76 0.78,3.07 0.3,3.63 -0.3,0.34 -0.78,0.46 -1.24,0.67 -0.8,-0.44 -1.61,-0.9 -2.55,-1.24zm102.29 -152.69l0 0c-1.17,-4.5 -3.86,-8.25 -10.87,-8.06 -0.09,-0.77 0.21,-1.57 -0.3,-2.33 -2.49,-4.42 -6.57,-6.31 -11.32,-6.83 3.22,-5.29 4.75,-11.05 -0.45,-15.4 -7.3,-6.19 -14.51,-4.33 -22.54,-2.56 -3.43,-3.76 -9.64,-4.17 -16.07,-3.21 -1.77,-5.17 -4.74,-9.85 -12.53,-10.71 -7.1,-0.8 -13.54,1.42 -17.99,5.54 -4.24,-0.34 -7.67,0.96 -10.09,3.07 -0.13,-0.12 -0.4,-0.33 -0.72,-0.46 -3.09,-1.3 -5.41,-2.04 -8.9,-1.92 -0.6,0 -0.85,0.17 -1.46,0.17 -0.07,-0.13 -0.28,-0.13 -0.28,-0.13 -0.5,-0.16 -0.94,-0.28 -1.39,-0.37 -1.02,-0.25 -1.96,-0.6 -3.13,-0.69 -0.59,-0.12 -1.09,-0.12 -1.69,-0.12 -1.03,0 -1.98,0 -3.05,0.12 -0.52,0 -1.04,0.09 -1.61,0.21 -0.44,0.13 -0.89,0.13 -1.32,0.23 0,0 0,0 0,0.12 -0.95,0.22 -1.85,0.34 -2.7,0.5 -0.81,-0.5 -1.99,-0.62 -2.85,-1.06 5.11,-3.2 8.82,-7.64 7.3,-12.39 -1.31,-4.24 -4.45,-7.53 -9.86,-8.97 -0.74,-0.12 -2.55,-0.32 -4.17,-0.78 2.57,0.3 5.1,0.56 7.69,0.11 1.2,-0.24 2.4,-0.59 3.65,-0.98 4.54,5.95 11.17,10.73 19.49,12.61 16.89,3.65 39.12,-1.65 51.55,-12.34 1.1,1.62 2.28,3.15 4.03,4.34 5.61,3.91 10.87,4.86 15.68,3.43 7.52,6.11 17.81,10.22 26.12,7.86 7.31,14.04 14.75,29.54 24.5,47.7 0,0 0,0 -0.09,0 -6.22,-2.44 -10.72,-0.12 -14.61,3.3zm215.81 -64.61l0 0c2.85,0.24 5.78,0.24 8.77,0 4.11,1.78 9.2,3.66 14.47,5.11 -2.93,4.08 -5.85,8.18 -8.27,11.56 -7.59,10.62 -10.65,-2.06 -14.97,-16.68zm-292.48 194.65l0 0c-3.28,-2.78 -5.33,-1.38 -6.73,-5.3 -1.1,-2.91 5.72,-5.25 8.05,-7.15 1.17,-0.83 2.04,-1.77 2.63,-2.74 2.03,-1.19 3.64,-2.66 4.79,-4.43 3.57,-0.13 6.89,-0.87 9.87,-2.05 0.43,-0.12 0.89,-0.25 1.31,-0.34 9.34,3.87 25.13,0.72 32.43,-3.3 3.28,-1.85 6.35,-4.9 5.93,-8.13 4.23,-1.98 7.08,-4.86 6.42,-8.82 6.5,-2.91 12.39,-6.44 12.7,-12.61 0.21,-4.57 -4.04,-6.79 -9.05,-8.21 1.38,-1.2 2.91,-2.8 4.01,-4.22 11.47,-4.11 28.68,-13.34 18.52,-20.33 -2.47,-1.8 -4.02,-1.68 -5.39,-2.53 -0.06,0 -0.15,-0.1 -0.15,-0.22 0.15,-0.13 0.21,-0.13 0.39,-0.13 -0.39,-0.92 -0.81,-1.77 -1.55,-2.8 1.46,-1.31 2.57,-2.73 3.19,-4.27 1.26,-0.91 2.66,-1.78 3.35,-2.47 3.9,-3.88 4.04,-7.87 0.68,-11.27 2.12,-3.09 4.69,-7.65 5.33,-11.82 28.54,53.83 42.78,98.55 43.59,150.79 0.74,39.47 8.68,85.32 4.38,93.7 -4.25,8.39 -44.46,-27.3 -100.39,-64.14 -22.19,-14.51 -37.89,-30.69 -49,-44.94 6.16,-3.55 9.85,-8.02 4.68,-12.26zm281.1 -2.01l0 0c1.82,-49.44 13.12,-105.91 41.46,-155.79 5.85,-10.27 11.17,-20.17 16.5,-29.81 3.94,-1.07 6.79,-3.39 7.31,-7.69 0.29,-2.21 -0.21,-3.51 -0.68,-4.66 1.33,-2.4 2.43,-4.62 3.83,-6.95 3.86,-1.22 10.78,0.83 14.82,0.83 1.95,0.12 3.7,0 5.32,-0.26 3.87,0.5 7.5,0.5 11.15,-0.45 4.49,3.5 9.81,5.76 15.57,6.73 -0.21,0.8 -0.37,1.54 -0.21,2.55 0.93,6.21 7.31,9.3 13.95,11.8 -0.37,6.91 9.03,10.23 18.54,10.57 1.22,2.62 4.31,4.39 9.55,4.82 4.02,0.36 7.62,-0.54 11.17,-1.76 -4.97,41.07 -15.92,83.11 -21.98,102.35 -6.71,21.47 -17.44,42.8 -53.36,84.31 -9.95,11.37 -26.58,24.74 -42.94,36.03 -2.12,-1.53 -4.81,-2.37 -8.54,-1.74 -6.22,1.42 -7.22,6.66 -6.64,11.85 -12.04,7.42 -22.26,12.63 -27.31,13.67 -13.2,2.81 -9.52,-26.96 -7.5,-76.41zm-341.49 86.19l0 0c10.44,-6.27 16.15,-19.47 12.65,-29.67 1,-0.57 2.03,-1.09 3.12,-1.66 7.07,-1.17 12.84,-4.33 12.63,-9.87 0.05,0 0.14,0 0.14,0 6.35,2.33 12.41,4.57 17.54,6.67 26.43,10.39 43.15,36.05 59.27,60.06 -27.43,0.91 -68.99,-11.19 -107.04,-24.87 0.58,-0.33 1.19,-0.33 1.69,-0.66zm520 176.9l0 0c0,0 0,0.23 0.04,0.36 -0.29,0 -0.64,-0.13 -0.93,-0.13 0.28,0 0.52,-0.23 0.89,-0.23zm367.82 -554.76l0 0c1.82,-0.44 2.57,-2.33 4.09,-3.19 3.14,-1.75 9.29,1.56 11.46,3.19 1.31,1 0.95,2.36 0.42,3.78 -1.06,-0.1 -2.17,-0.23 -3.1,-0.1 -3.73,0.23 -6.57,1.75 -9.5,3.3 -0.67,0.11 -1.33,0.34 -1.9,0.58 -1.31,-1.03 -2.61,-1.79 -4.18,-2.46 -1.09,-1.67 -2.48,-3.3 -4.37,-4.62 -0.06,-0.1 -0.14,-0.1 -0.14,-0.1 2.41,0 4.89,0.1 7.22,-0.37zm-34.46 -2.66l0 0c0.58,0 1.13,0.21 1.31,0.56 0.06,0.35 0.35,0.57 0.42,0.91 1.49,0.63 2.8,1.19 4.16,1.88 -2.46,0 -5.11,0.12 -7.52,0.41 -0.52,-1.22 -0.93,-2.41 -1.68,-3.43 1.15,-0.22 2.11,-0.33 3.3,-0.33zm-4352.72 696.39c-46.99,0 -70.85,20.3 -70.85,60.16l0 1340.57c0,39.84 23.86,60.13 70.85,60.13l1.44 0c46.26,0 69.41,-20.29 69.41,-60.13l0 -1340.57c0,-39.85 -23.15,-60.16 -69.41,-60.16l-1.44 0zm-343.37 1345.08l0 -1193.2c0,-253.39 113.49,-379.69 339.03,-379.69 1.44,0 2.88,0 4.34,0 220.47,2.25 330.34,127.06 330.34,376.68l0 1193.19c0,113.53 -31.07,200.75 -93.24,261.65 -60.72,60.15 -139.52,90.97 -237.1,91.73 -2.17,0 -4.34,0 -5.8,0 -224.8,0 -337.57,-116.53 -337.57,-350.36zm1399.47 316.53l-250.1 0 -62.17 -498.49 -75.9 498.49 -237.83 0 146.04 -648.1 -116.39 -585.7 252.28 0 58.54 465.4 65.08 -465.4 223.36 0 -121.44 584.95 118.55 648.85zm718.54 -1235.3l-163.37 1234.55c-26.03,196.25 -63.61,277.45 -224.81,277.45l-195.18 0 0 -199.99 106.98 0.74c27.48,0.75 43.38,-33.08 35.43,-84.96 -59.98,-399.98 -100.48,-827.79 -169.88,-1227.79l253.02 0 54.21 927.04 83.13 -927.04 220.48 0zm672.26 667.65l-235.66 0 0 -405.25c0,-43.61 -20.24,-58.65 -46.98,-57.89 -27.46,1.51 -46.26,18.81 -46.26,55.65l0 975.91 -234.93 0 0 -1237.56 234.93 0 0 104.52c31.8,-34.59 54.21,-112.03 146.02,-126.32 106.26,-16.54 182.89,61.65 182.89,191.73l0 499.23zm366.49 568.41l-235.66 0 0 -1233.8 235.66 0 0 1233.8z"/>
   <path class="fil2" d="M5053.3 4002.32l0 -31.24c2.84,0.72 6.4,0.72 9.96,0.72 9.96,0 25.62,-7.81 28.46,-22.01l0 -127.76c-4.27,-17.04 -17.78,-22.71 -28.46,-22.71 -3.56,0 -7.11,0.71 -9.96,0.71l0 -27.68c14.24,1.42 27.75,8.51 38.42,17.74l0 -83.05 -27.04 -26.26 79.67 0 0 291.02 27.04 26.25 -79.68 0 0 -13.48c-11.38,9.94 -24.18,16.33 -38.42,17.75zm-219.78 1706.01l35.47 0 0 -57.85 37.29 0c40.21,0 55.8,-25.54 55.8,-51.75 0,-26.21 -15.59,-51.74 -55.8,-51.74l-72.76 0 0 161.35zm35.47 -133.78l27.57 0c16.5,0 31.19,3.62 31.19,24.18 0,20.56 -14.7,24.18 -31.19,24.18l-27.57 0 0 -48.36zm111.85 133.78l32.09 0 0 -52.65c0,-20.56 8.14,-37.52 31.63,-37.52 3.85,0 8.59,0.45 11.53,1.13l0 -29.83c-2.04,-0.68 -4.75,-1.13 -7.01,-1.13 -15.58,0 -31.4,10.17 -37.27,24.86l-0.45 0 0 -21.7 -30.51 0 0 116.83zm80.22 -58.31c0,37.06 23.73,61.47 60.33,61.47 36.83,0 60.56,-24.41 60.56,-61.47 0,-37.28 -23.73,-61.69 -60.56,-61.69 -36.61,0 -60.33,24.41 -60.33,61.69zm32.09 0c0,-18.76 6.55,-37.51 28.25,-37.51 21.92,0 28.46,18.76 28.46,37.51 0,18.54 -6.54,37.29 -28.46,37.29 -21.7,0 -28.25,-18.76 -28.25,-37.29zm219.18 -58.53l-32.09 0 0 61.24c0,23.73 -7.46,33.44 -24.86,33.44 -14.91,0 -20.56,-9.48 -20.56,-28.69l0 -65.99 -32.09 0 0 71.86c0,28.93 8.59,48.14 42.7,48.14 13.55,0 27.57,-6.33 35.69,-19.44l0.69 0 0 16.28 30.51 0 0 -116.83zm107.78 116.83l30.51 0 0 -161.35 -32.09 0 0 58.75 -0.45 0c-7.23,-11.52 -20.8,-17.4 -34.58,-17.4 -34.33,0 -51.74,29.15 -51.74,60.57 0,32.32 17.17,62.59 52.42,62.59 14.91,0 28.02,-5.43 35.47,-18.08l0.45 0 0 14.92zm-0.45 -58.76c0,19.21 -6.32,37.74 -27.57,37.74 -19.89,0 -28.25,-19.21 -28.25,-37.51 0,-19.21 7.23,-37.29 28.25,-37.29 20.8,0 27.57,18.08 27.57,37.06zm56.04 58.76l32.09 0 0 -161.35 -32.09 0 0 161.35zm163.83 -116.83l-33.22 0 -25.54 80 -0.45 0 -26.43 -80 -34.35 0 41.12 109.6c3.62,9.26 0,20.8 -11.06,21.92 -6.33,0.23 -12.66,-0.67 -18.76,-1.13l0 26.44c6.55,0.67 13.1,1.13 19.66,1.13 22.13,0 33.21,-7.69 40.22,-26.44l48.81 -131.52zm77.05 116.83l35.48 0 0 -161.35 -35.48 0 0 161.35zm63.27 0l32.09 0 0 -61.24c0,-23.73 7.46,-33.44 24.85,-33.44 14.92,0 20.57,9.48 20.57,28.69l0 65.99 32.07 0 0 -71.86c0,-28.93 -8.59,-48.14 -42.7,-48.14 -13.55,0 -27.56,6.33 -35.7,19.44l-0.67 0 0 -16.28 -30.51 0 0 116.83zm217.37 0l30.51 0 0 -161.35 -32.09 0 0 58.75 -0.45 0c-7.24,-11.52 -20.8,-17.4 -34.57,-17.4 -34.35,0 -51.74,29.15 -51.74,60.57 0,32.32 17.17,62.59 52.43,62.59 14.9,0 28.01,-5.43 35.46,-18.08l0.45 0 0 14.92zm-0.45 -58.76c0,19.21 -6.32,37.74 -27.56,37.74 -19.89,0 -28.25,-19.21 -28.25,-37.51 0,-19.21 7.23,-37.29 28.25,-37.29 20.78,0 27.56,18.08 27.56,37.06zm56.05 58.76l32.07 0 0 -116.83 -32.07 0 0 116.83zm32.07 -161.35l-32.07 0 0 26.43 32.07 0 0 -26.43zm98.07 116.15c0,7 -0.9,26.89 -25.98,26.89 -10.4,0 -19.66,-2.94 -19.66,-14.92 0,-11.75 9.04,-15.14 18.99,-17.17 9.93,-1.81 21.24,-2.04 26.65,-6.78l0 11.98zm-42.02 -35.7c1.13,-12.66 9.04,-17.63 21.25,-17.63 11.29,0 20.77,2.04 20.77,15.82 0,13.11 -18.29,12.43 -37.95,15.36 -19.89,2.71 -39.77,9.04 -39.77,35.48 0,23.96 17.62,35.03 39.77,35.03 14.24,0 29.15,-3.83 39.31,-14.46 0.23,3.85 1.13,7.69 2.26,11.3l32.54 0c-2.93,-4.74 -4.07,-15.37 -4.07,-25.99l0 -60.79c0,-28.02 -28.02,-33.22 -51.28,-33.22 -26.21,0 -53.1,9.04 -54.91,39.1l32.09 0zm98.97 80.9l32.09 0 0 -61.24c0,-23.73 7.45,-33.44 24.84,-33.44 14.92,0 20.57,9.48 20.57,28.69l0 65.99 32.09 0 0 -71.86c0,-28.93 -8.59,-48.14 -42.72,-48.14 -13.55,0 -27.56,6.33 -35.69,19.44l-0.67 0 0 -16.28 -30.51 0 0 116.83zm-1186.6 -1935.98l0 27.68c-22.76,3.55 -39.13,19.87 -38.41,84.47 0,64.58 15.65,83.04 38.41,86.58l0 31.24c-2.84,0.7 -4.98,0.7 -7.82,0.7 -46.96,0 -86.09,-51.81 -86.09,-115.7 0,-63.88 39.13,-115.69 86.09,-115.69 2.84,0 4.98,0 7.82,0.71zm-468.13 230.67l0 -26.96 0.71 0c19.21,0 34.15,-14.91 34.15,-36.2 0.71,-6.39 0.71,-18.46 0.71,-30.53 0,-9.93 0,-19.16 0,-22.7 -8.54,5.68 -24.9,10.64 -34.86,14.2l-0.71 0 0 -28.39c24.91,-7.1 36.29,-22.71 36.29,-48.27 0,-17.74 -14.95,-32.65 -32.73,-32.65 -1.43,0 -2.13,0 -3.56,0l0 -24.84c1.43,0 2.13,0 3.56,0 19.92,0 37,3.55 51.94,9.94 19.21,8.52 34.15,26.26 34.15,46.14l0 146.92c0,3.55 3.56,6.4 7.11,6.4 3.57,0 6.41,-2.14 6.41,-5.7l0 -35.48c12.81,-0.7 26.32,9.94 26.32,29.1 -0.71,22 -30.59,40.46 -54.07,40.46 -16.36,0 -31.3,-8.53 -39.13,-20.59 -9.25,9.23 -22.05,15.61 -36.29,19.17zm335.8 -161.12l0 130.61 26.32 26.26 -106 0 26.32 -26.26 0 -130.61c0,-22.72 -14.94,-41.87 -32.72,-41.87 -18.5,0 -33.44,19.16 -33.44,41.87l0 130.61 27.04 26.26 -106.72 0 27.03 -26.26 0 -171.77 -27.03 -26.97 79.68 0 0 21.29c11.38,-12.78 29.88,-21.29 49.8,-21.29 38.43,0 69.73,30.52 69.73,68.13zm-470.98 0l0.71 130.61 26.33 26.26 -106.01 0 25.61 -26.26 0 -130.61c0,-22.72 -14.95,-41.87 -32.73,-41.87 -17.79,0 -32.73,19.16 -32.73,41.87l0 130.61 26.33 26.26 -106 0 26.32 -26.26 0 -264.75 -26.32 -26.27 79.67 0 0 113.57c11.39,-12.78 29.17,-21.29 49.81,-21.29 37.7,0 69,30.52 69,68.13zm135.18 -75.24l0 24.84c-16.37,1.42 -29.89,15.61 -29.89,32.65 0,14.91 9.96,27.68 24.19,31.95 -7.81,3.54 -16.36,6.38 -26.32,6.38 -27.75,0 -50.51,-19.87 -50.51,-44.72 0,-17.74 13.51,-32.65 31.3,-40.45 12.09,-4.96 30.59,-9.94 51.22,-10.65zm0 105.76l0 28.39c-17.79,5.68 -35.57,17.04 -35.57,36.9 0,20.59 16.35,37.63 35.57,38.35l0 26.96c-6.41,1.43 -13.51,2.83 -20.63,2.83 -42.69,0 -76.84,-29.09 -76.84,-65.3 0,-36.19 34.16,-65.3 76.84,-65.3 1.42,0 4.27,0 6.4,0 4.98,-0.7 9.97,-2.12 14.24,-2.83zm-526.46 126.34l0 -1.42 1.42 1.42 -1.42 0zm0 -90.86c7.11,54.66 42.69,96.54 85.37,96.54 7.83,0 8.54,0 20.63,-0.71 31.3,-1.42 64.02,-19.88 67.58,-49.7 4.98,-29.8 -18.48,-48.25 -51.94,-45.42 11.39,8.52 14.24,18.45 12.11,34.06 -2.13,17.04 -12.81,29.82 -29.17,31.23 -27.75,-0.71 -50.51,-12.77 -51.22,-85.88 0,-73.81 30.59,-88.72 50.52,-85.89 11.38,0.71 20.63,6.39 29.17,22.72 4.27,12.07 7.11,29.11 5.69,39.03l22.78 0.72 0 -95.11 -13.52 0 -12.81 17.03c-12.8,-12.06 -32.02,-17.03 -49.8,-17.03 -42.69,0 -78.26,41.87 -85.37,96.53l0 41.87zm0 -41.87l0 41.87c-0.71,-6.38 -1.43,-13.48 -1.43,-20.58 0,-7.09 0.71,-14.19 1.43,-21.29zm0 131.31l-27.74 -24.84 -56.21 -129.89 33.44 -41.87 39.13 -26.97 -100.31 0 26.32 26.26 -52.64 67.43 0 -185.97 -79.68 0 26.32 26.27 0 264.75 -26.32 26.26 98.89 0 -19.21 -26.26 0 -60.34 14.94 -19.87 34.15 79.5 -16.36 26.96 105.29 0 0 -1.42zm-719.26 7.1l0 -26.97 0.71 0c19.21,0 34.13,-14.91 34.13,-36.21 0.72,-6.39 0.72,-18.45 0.72,-30.53 0,-9.93 0,-19.16 0,-22.7 -8.55,5.68 -24.2,10.65 -34.86,13.49l-0.71 0.7 0 -28.39c24.89,-7.1 36.99,-22.71 36.28,-48.26 0,-18.46 -14.95,-33.36 -32.74,-33.36 -1.41,0 -2.13,0 -3.54,0.7l0 -24.83c1.41,0 2.13,0 3.54,0 19.92,0 37,3.54 51.94,9.93 19.21,8.52 34.16,26.27 34.16,46.14l0 146.92c0,2.84 2.84,6.4 7.11,6.4 2.84,0 5.69,-2.84 5.69,-6.4l0 -34.78c13.52,-0.7 27.03,9.95 26.33,29.11 -0.72,22.01 -29.88,40.45 -54.08,40.45 -15.64,0 -30.59,-8.51 -37.7,-21.29 -9.96,9.23 -22.76,16.33 -36.99,19.88zm339.35 -162.55l0 130.61 26.33 26.26 -105.29 0 25.61 -26.26 0 -130.61c0,-22.72 -14.94,-41.87 -32.73,-41.87 -17.79,0 -33.43,19.16 -33.43,41.87l0 130.61 27.02 26.26 -106.7 0 27.02 -26.26 0 -171.77 -27.02 -26.97 79.67 0 0 21.29c11.37,-12.78 29.88,-21.29 49.8,-21.29 38.41,0 69.72,30.52 69.72,68.13zm41.28 -68.13l26.31 26.26 0 172.48 -26.31 26.26 105.99 0 -27.04 -26.26 0 -198.74 -78.95 0zm49.79 -81.63c19.21,0 34.86,14.19 34.86,32.65 0,17.75 -15.65,32.66 -34.86,32.66 -18.5,0 -34.15,-14.91 -34.15,-32.66 0,-18.45 15.65,-32.65 34.15,-32.65zm-430.41 75.96l0 24.83c-17.08,1.43 -29.89,15.61 -29.89,32.66 0,14.9 9.97,27.67 24.19,31.93 -7.11,3.55 -16.37,6.38 -26.32,6.38 -27.75,0 -50.52,-19.86 -50.52,-44.72 0,-17.74 13.52,-32.65 31.3,-40.45 12.09,-4.96 30.6,-9.94 51.24,-10.64zm0 105.75l0 28.39c-17.79,4.97 -34.86,16.33 -34.86,36.91 0,20.58 15.65,37.62 34.86,38.33l0 26.97c-6.41,1.41 -13.52,2.12 -20.63,2.12 -35.57,0 -65.46,-19.87 -74.7,-48.26l0 -33.36c9.24,-28.4 39.13,-48.97 74.7,-48.97 1.43,0 4.27,0 6.4,0 4.98,0 9.96,-1.42 14.24,-2.13zm-95.34 125.62l2.85 0 -2.85 -2.12 0 2.12zm0 -315.84l0 -1.43 2.85 0 -2.85 1.43zm0 -1.43l0 1.43 -30.6 24.84 0 264.74 30.6 24.14 0 2.12 -129.48 0 32.72 -26.26 0 -165.37 -66.16 191.63 -26.32 0 -66.17 -158.98 0 132.72 31.3 26.26 -110.98 0 39.84 -26.26 0 -264.74 -39.84 -26.27 92.49 0 79.67 171.78 59.76 -171.78 103.16 0zm0 242.75c-1.43,4.97 -2.14,10.65 -2.14,16.32 0,6.39 0.71,12.07 2.14,17.04l0 -33.36z"/>
  </g>
 </g>
</svg>
