<?xml version="1.0" encoding="UTF-8"?>
<!DOCTYPE svg PUBLIC "-//W3C//DTD SVG 1.1//EN" "http://www.w3.org/Graphics/SVG/1.1/DTD/svg11.dtd">
<!-- Creator: CorelDRAW 2019 (64-Bit) -->
<svg xmlns="http://www.w3.org/2000/svg" xml:space="preserve" width="8.26772in" height="8.26772in" version="1.1" style="shape-rendering:geometricPrecision; text-rendering:geometricPrecision; image-rendering:optimizeQuality; fill-rule:evenodd; clip-rule:evenodd"
viewBox="0 0 8267.72 8267.72"
 xmlns:xlink="http://www.w3.org/1999/xlink"
 xmlns:xodm="http://www.corel.com/coreldraw/odm/2003">
 <defs>
  <style type="text/css">
   <![CDATA[
    .fil5 {fill:#2A2727}
    .fil6 {fill:#292828}
    .fil4 {fill:#29282A}
    .fil1 {fill:#383582}
    .fil2 {fill:#383686}
    .fil0 {fill:#383585}
    .fil3 {fill:#383586}
   ]]>
  </style>
 </defs>
 <g id="Layer_x0020_1">
  <metadata id="CorelCorpID_0Corel-Layer"/>
  <g id="_2690574332400">
   <path class="fil0" d="M4380.53 3842.51c-3.33,2.17 -1.77,1.39 -7.28,2.17 -2.97,0.42 -5,0.45 -8.29,0.42l0.3 -246.83c4.91,-0.13 11.8,0.5 15.06,2.62 36.55,0 49.7,5.36 54.8,35.16 4.99,29.14 4.66,142.78 -0.68,172.22 -6.16,34.02 -45.49,38.08 -53.92,34.24zm-0.4 -385.64c-3.76,2.26 -9.74,1.61 -15.18,1.27l0.01 -194 15.72 0.9c23.85,-1.07 40.45,0.17 50.58,26.04 10.23,26.13 8.86,114.61 0.88,142.05 -7.4,25.42 -39.83,28.63 -52.01,23.75zm192.71 531.25c5.87,-5.79 22.05,-9.25 30.59,-14.11 76.83,-43.69 67.19,-159.13 67.03,-237.12 -0.11,-50.26 -1.3,-113.98 -23.46,-151.11 -18.27,-30.6 -42.1,-44.83 -74.87,-56.35 -9.48,-3.33 -23.09,-6.3 -30.78,-11.11 32.01,-16.39 76.71,-14.61 98.63,-63 17.19,-37.94 15.35,-98.25 11.92,-144.13 -5.18,-69.22 -25.29,-127.4 -79,-163.31 -23.05,-15.41 -29.25,-14.72 -49.13,-21.36 -6.15,-2.06 -6.41,1.52 -5.33,-4.08 -4.87,-4 -10.48,-4.27 -18.59,-5.54 -6.31,-0.99 -17.68,-2.19 -23.15,-2.45 -17.3,-0.82 -28.83,-3.28 -46.39,-3.22l-297.63 0 0 886.49c8.51,0.71 14.62,1.61 25.6,1.6 9.61,-0.01 19.21,0.04 28.81,-0.01 11.72,-0.06 16.68,1.65 27.14,1.67 47.46,0.07 93.93,0.87 140.86,-1.67 17.55,-0.94 38.13,0.01 56.02,0.01 30.01,0 145.3,-3.7 161.76,-11.2z"/>
   <path class="fil0" d="M3313.84 5060.23l-0.12 -474.46 12.45 -0.48c-0.31,-0.26 -0.81,-1.03 -0.98,-0.72l-4.42 -2.22c-2.99,-0.82 -5.69,-0.66 -8.93,-0.67 -5.88,-0 -11.79,0.09 -17.68,0.09l-235.28 -0.06c-8.77,0.01 -10.63,1.5 -17.54,1.65 0,47.14 1.6,88.93 1.6,136.01l44.8 0c0,37.78 3.42,147.07 -5.8,178.22 -6.43,21.74 -15.08,27.33 -34.2,28.44 -32.35,1.38 -34.25,-20.61 -37.47,-49.45 -3.46,-30.98 -3.64,-485.37 -0.51,-521.82 0.91,-10.65 3.22,-27.71 7.49,-35.56 3.87,-7.11 18.73,-18.79 28.65,-12.67 31,0 33.84,28.67 33.79,52.85 -0.03,10.41 1.72,15.43 1.66,27.14 -0.05,9.63 0.06,19.25 0.05,28.87 -0.02,10.46 -1.73,15.42 -1.67,27.14 0.05,9.6 0.05,19.23 0,28.83 -0.06,12.17 1.61,17.33 1.61,28.79 22.22,0 38.58,1.6 60.8,1.6l154.78 -0.44c11.48,-1.57 24.89,0.02 29.24,-2.8l-12.3 -0.25c-6.13,-144.2 9.94,-251.48 -136.67,-318.01 -11.11,-5.04 -39.53,-12.79 -46.39,-19.34 -31.11,-7.55 -66.02,-11.2 -97.91,-6.84 -8.22,1.12 -18.6,0.68 -25.61,1.59 -8.83,1.15 -16.59,1.42 -25.02,2.19 -55.72,5.07 -124.02,39.35 -158.58,84.64 -3.74,4.89 -8.05,10.21 -11.5,15.7 -31.94,50.74 -34.73,119.16 -34.82,181.2 -0.02,10.11 -1.74,13.3 -1.69,23.91l0.06 190.48c0.06,10.77 -1.57,14.52 -1.69,23.92l0.01 81.72c0.02,10.3 1.74,14.31 1.68,25.53 -0.28,48.06 6.39,125.69 23.51,165.31 25.24,58.39 86.56,108.63 148.34,122.08 34.19,7.45 76.33,11.55 109.3,1.8 4.39,-1.3 7.57,-1.1 12.34,-2.06 17.4,-3.52 41.26,-17.52 53.94,-27.66 5.31,-4.25 9.71,-7.67 14.61,-12.59 7.83,-7.85 7.79,-11.47 12.37,-14.83 6.01,4.41 15.68,39.33 16,43.2l147.69 0z"/>
   <path class="fil0" d="M5212.76 4450.64c22.81,-0.4 27.14,8.2 28.81,39.92 1.14,21.63 -0.01,46.8 -0.01,68.81l-0.06 276.88c0.02,11.03 1.67,19 1.66,31.95 -0.02,13.09 -0.43,22.88 -1.45,33.76 -1.88,19.92 -6.69,44.09 -28.52,38.25 -1.26,1.1 -0.43,1.02 -3.06,2.06 -3.72,1.47 -6.51,0.55 -10.88,-1.24 -15.38,-6.31 -17.16,-16.75 -19.35,-33.38 -4.71,-35.78 -2.03,-297.44 -2.19,-353.08 -0.09,-30.12 -7.23,-117.44 35.06,-103.94zm-34.99 712l-0.02 -159.82c4.53,2.74 12.78,11.91 15.83,17.41 16.43,4.42 38.38,55.38 147.26,54.48 11.48,-0.1 15.06,-2.76 23.83,-4.87 0.63,-5.22 -0.96,-2.12 3.62,-4.44 3,-1.52 13.79,-1.73 36.1,-16.72 14.92,-10.02 20.94,-15.71 30.72,-28.56 42.99,-56.46 30.89,-248.81 30.67,-324.72 -0.22,-77.33 0.21,-156.54 -2.77,-233.61 -1.5,-38.65 -9.58,-67.4 -27.83,-91.19 -30.6,-39.91 -66.05,-38.72 -69.87,-48.04 -24.99,-10.08 -76.85,-2.69 -99.56,4.98 -21.35,7.2 -37.71,18.02 -55.29,31.12 -6.46,4.81 -9.52,9.65 -15.3,13.51 0,-13.25 1.6,-24.73 1.6,-40l-241.62 0 0 830.48 222.63 0z"/>
   <path class="fil1" d="M2630.11 3995.79l-14.75 -0.33c-2.96,-10.17 -0.85,-558.87 -0.85,-631.4 0,-27.1 -2.16,-64.61 0.35,-90.45l15.25 -0.6c-5.61,-5.26 -13.92,-3.36 -25.6,-3.35l-211.22 0c0,12.64 -1.6,22.37 -1.6,36.8l0.06 518.5c-0.01,8.87 -1.76,28.61 -3.61,36.4 -2.39,10.09 -7.04,19.96 -19.88,18.95 -23.66,-1.87 -24.67,-29.08 -24.57,-53.8 0.11,-28.24 -1.6,-50.87 -1.6,-78.41l0 -238.42c0,-27.28 1.6,-50.22 1.6,-78.41 0,-26.79 -1.6,-50.32 -1.6,-78.41 0,-26.67 0,-53.34 0,-80.01 -13,-6.24 -96.13,-3.2 -116.81,-3.2 -40,0 -80.01,0 -120.01,0 -3.8,45.7 0.67,90.89 -1.59,132.82l-1.63 65.62c-0.07,12.44 1.68,18.81 1.63,31.98l-0 304.04c0,48.07 1.08,84.38 13.78,120.63 12.1,34.51 32.66,56.75 64.07,71.95 30.52,14.77 89.54,19.96 130.3,10.76 60.18,-13.58 66.9,-38.69 78.28,-41.73 0,39.15 -11.89,32 33.6,32 24.7,0 45.82,1.61 68.81,1.6 7.12,-0 129,1.74 134.83,-1.24 2.81,-1.44 0.96,-0.44 2.78,-2.29z"/>
   <path class="fil0" d="M6419.28 3994.61l-14.14 1.25c-2.66,-50.68 -0.22,-108.31 -0.22,-159.75l-0.02 -320.03c0,-26.7 0.36,-51.91 1.67,-78.45 1.28,-26.04 3.48,-49.84 30.79,-49.41l0.7 3.06c8.76,-1.81 21.86,-13.39 28.87,19.56 8.44,39.66 3.56,228.13 3.56,271.67 0,100.96 -1.98,203.36 1.52,304.11 0.54,15.55 -1.11,12.98 16.06,12.74 73.41,-1.01 147.14,-1.63 222.45,-1.63l0 -3.17 -16.46 0.42c-2.52,-30.88 -0.53,-71 -0.56,-102.86l0.28 -312.03c0.44,-66.24 11.67,-225.09 -34.47,-275.2 -15.25,-16.57 -33.13,-32.39 -62.34,-40.58l2.94 -2.65c-15.31,-3.79 -30.32,-8.45 -50.78,-6.17 -34.43,3.85 -62.01,7.09 -91.96,24.85 -18.53,10.99 -19.92,17.31 -33.08,26.13l0 -33.61c-25.43,-5.92 -91.12,-3.2 -118.41,-3.2 -40.54,0 -81.07,0 -121.61,0 -4.54,19.49 -1.6,65.52 -1.6,89.61 0,31.67 -1.6,58.78 -1.6,91.21l0 368.04c0,31.9 1.6,58.4 1.6,89.61 0,23.79 -2.8,72.32 1.6,91.21l233.63 0c1.19,-2.13 0.87,-1.75 1.6,-4.71z"/>
   <path class="fil0" d="M2929.33 3995.72l-13.66 -0.1c-2.67,-19.25 -0.37,-449.81 0.35,-481.08 0.6,-26.26 0.77,-52.26 1.78,-78.47 0.48,-12.31 0.9,-24.76 5.78,-34.53 3.7,-7.42 16.02,-16.65 26.57,-11.87 29.61,0 30.28,9.89 30.32,49.66l1.65 241.57c0,85.98 -2.72,173.22 -1.66,259.29 0.11,8.89 1.62,10.19 1.73,19.07 0.17,13.91 -1.15,28.54 1.54,40.07l230.08 -0.32c0.43,-0.12 0.85,-0.24 1.24,-0.39 0.37,-0.15 0.78,-0.37 1.12,-0.54 2.91,-1.52 0.85,-0.31 2.78,-2.35l-14.11 0.07c-2.7,-30.16 -0.24,-72.21 -0.24,-103.68l-0.13 -312.03c0.08,-66.47 2.83,-137.8 -5.14,-202.97 -4.59,-37.48 -16.12,-59.51 -36.59,-80.05 -30.2,-30.3 -45.98,-25.33 -54.05,-35.41l-2.23 -1.06c-4.35,-1.62 1.98,0.41 -2.37,-0.89 -2.35,-0.7 -3.11,-0.72 -6.7,-1.31 -5.04,-0.84 -6.89,-1.43 -12.8,-1.59 -25.07,-0.69 -56.17,0.17 -79.55,6.96 -15.6,4.54 -27.82,9.68 -39.41,18.2 -5.15,3.79 -11.52,8.59 -15.93,12.87 -4.57,4.44 -10.63,9.9 -15.59,13.22l0 -35.2c-13.15,-6.31 -97.31,-3.2 -118.41,-3.2 -40.54,0 -81.07,0 -121.61,0 0,20.48 -1.6,36.24 -1.6,57.6l1.51 651.35c2.06,26.11 -14.19,20.72 56.09,20.72l166.51 0.1c8.78,0.13 9.6,1.54 12.71,-3.7z"/>
   <path class="fil0" d="M4877.1 5060.23l-0.02 -728.07 -222.77 0 0 521.65c0.03,15 -1.7,23.44 -1.6,38.41 0.09,11.19 -1.19,27.46 -4.31,35.69 -5.04,13.29 -11.06,15.45 -26.6,12.31 -8.98,6.72 -21.52,-0.39 -25.97,-8.76 -10.04,-18.83 -7.66,-90.18 -7.85,-112.85 -1.35,-157.78 -1.39,-329.81 0.85,-486.45l-224.15 0c0,185.07 0.42,370.19 -0,555.26 -0.17,74.96 17.76,156.92 99.51,178.92 56.69,15.25 138.56,12.26 181.7,-35.69 4.06,-4.51 0.96,-5.43 3.98,-2.41 4.57,4.57 0.79,27.07 -0.36,32l227.6 0z"/>
   <path class="fil0" d="M1799.35 3487.27c-3.86,2 -10.98,0.41 -17.01,-0.41l0 -222.7 17.28 0.39c29.69,2.15 43.67,7.86 51.44,32.06 5.43,16.86 5.93,58.34 3.33,79.15 -0.98,7.85 1.15,9.89 1.31,18.66l-4.52 59.61c-5.5,23.16 -24.01,33.24 -51.84,33.24zm-2.93 508.53c-17.18,-0.15 -14.07,6.17 -14.02,-30.08 0.06,-41.31 -1.86,-313 0.73,-323.72l15.61 0.49c20.41,-3.76 48.18,-1.6 71.29,-1.6 28.82,0 42.51,0.05 64.97,-6.4 6.78,-9.17 34.07,-7.89 64.09,-32.54 62.28,-51.13 50.66,-157.06 50.57,-234.69 -0.09,-82.53 2.99,-172.6 -67.02,-218.25 -9.35,-6.1 -19.8,-11.76 -31.55,-16.43 -10.48,-4.17 -25.48,-6.17 -32.8,-13.34 -54.02,-11.64 -122.73,-8 -179.49,-8 -62.41,0 -124.81,0 -187.22,0l0 888.09 239.69 -0.33c0.43,-0.11 0.85,-0.23 1.24,-0.39l3.89 -2.81z"/>
   <path class="fil0" d="M5884.41 3668.09c1.93,19.08 0.84,163.74 -1.8,181.8 -2.6,17.76 -8.5,37.4 -31.86,27.82 -10.2,10.61 -20.84,-2.9 -24.59,-10.14 -4.87,-9.4 -7.67,-20.69 -8.59,-33.03 -1.84,-24.74 -3.65,-56.12 -0.53,-80.7 3.31,-26.09 10.2,-42.93 22.84,-60.28 8.06,-11.07 30.59,-32.44 45.01,-38.7l-0.48 13.22zm-52.39 -117.28l-15.7 -0.97c0,-32.61 -0.62,-65.02 0.6,-97.62 0.56,-14.93 -1.07,-31.8 3.16,-45.72 3.22,-10.57 16.19,-22.47 27.47,-16.85 26.98,0 32.01,14.43 36.19,42.7 2.88,19.47 0.28,57.36 -0.49,77.33 -1.54,39.59 -26.26,43.7 -60.8,59.22 -46.62,20.94 -127.23,49.39 -164.22,74.21 -4.36,2.93 -7.36,4.62 -11.35,7.85 -22.54,18.28 -27.01,30.07 -34.24,66.58 -4.34,21.91 -6.31,45.52 -6.21,72.19 0.03,7.93 -1.47,12.49 -1.47,17.56 0,5.19 1.5,10.98 1.45,19.18 -0.3,51.72 5.31,120.07 48.65,151.37 13.25,9.57 35.07,20.58 52.79,25.61 54.24,15.42 114.83,13.33 161.42,-21.28 12.51,-9.29 16.46,-16.83 20.34,-19.67 0,4.91 0.82,28.24 1.58,32.02 1.59,7.88 8.96,4.78 28.82,4.78l168.05 0.04c5.22,0.02 28.72,-1.07 31.96,-3.61 -16.56,-0.09 -12.21,6.38 -12.3,-41.24 -0.03,-18.67 -0.11,-37.34 -0.19,-56l-1.48 -329.63c0.17,-59.25 1.15,-152.63 -18.81,-202.4 -14.79,-36.88 -49.41,-66.64 -83.29,-83.28 -8.72,-4.29 -34.27,-11.53 -38.49,-16.75 -19.61,-10.7 -123.83,-11.65 -154.99,-7.11 -52.62,7.66 -79.45,15.32 -122.51,43.91 -35.56,23.61 -57.06,50.43 -70.23,96.18 -4.54,15.75 -11.4,73.49 -11.42,92.59l0.02 41.7c-0.04,9.17 1.48,12.17 1.64,19.16 51.02,0 123.66,-1.52 172.87,-0.05 15.56,0.46 32.54,4.57 51.15,-2.01z"/>
   <path class="fil0" d="M4980.74 3879.78c-30.01,0.42 -34.51,-19.65 -35.19,-48.44 -1.09,-46.3 -7.67,-101.39 22.76,-138.91 9,-11.09 29.94,-31.11 44.94,-37.29l-0.52 11.35c0.11,19.43 2.52,43.02 0.46,58.04 -3.89,28.31 5.39,123.93 -8.37,146.84 -5.45,9.07 -11.07,6.94 -24.06,8.4zm-22.93 -328.5l-13.12 -2.07c-0.65,-35.31 -3.84,-108.54 4.41,-141.6 6.05,-24.26 25,-21.1 25.17,-16.34 6.33,-1.44 16.19,-9.93 25.67,6.4 15.92,27.4 16.18,120.84 4.83,139.23 -9.43,15.28 -60.52,35.37 -77.51,42.51 -42.06,17.67 -128.31,48.13 -160.56,77.86 -14.89,13.72 -20.07,31.28 -25.31,54.7 -10.42,46.54 -6.94,102.26 -5.46,149.75 3.37,108.4 66.98,150.31 168.02,150.42 37,0.04 74.8,-11.65 102.07,-37.15 9.12,-8.53 2.82,-8.28 9.94,-10.86 4.94,9.35 3.2,19.83 3.2,33.61 38.85,0 78.07,-0.54 116.87,-0.06 9.73,0.12 15.51,1.71 27.13,1.67 9.33,-0.04 78.13,1.53 83.64,-1.24 2.76,-1.39 1.02,-0.5 2.78,-2.26 -15.88,-0.08 -15.39,3.41 -15.09,-12.39 1.13,-60.31 -0.21,-132.91 -0.39,-193.73 -0.21,-73.59 -0.22,-147.24 0.51,-220.82 0.57,-57.5 -0.44,-154.65 -19.44,-202.42 -10.39,-26.14 -30.54,-48 -48.6,-61.83 -10.94,-8.38 -21.22,-14.8 -34.49,-21.44 -10.96,-5.48 -29.41,-9.33 -38.23,-16.74 -21.96,-12.93 -145.84,-12.2 -189.6,-1.29 -33.72,8.41 -59.03,17.02 -88.02,36.8 -30.35,20.7 -59.94,55.33 -70.09,96.33 -11.05,44.63 -14.11,107.85 -10.22,154.59 18.15,0 34.43,1.6 54.4,1.6 51.09,0 121.31,1.26 167.49,-3.2z"/>
   <path class="fil0" d="M4047.84 4942.45c-46.34,2.08 -36.26,-65.21 -35.41,-103.02 1.06,-46.93 -0.37,-95.35 -0.56,-142.44 -0.14,-33.85 -1.35,-182.27 1.8,-211.46 2.86,-26.57 18.89,-45.26 32.52,-33.36 21.2,-4.85 24.78,13.77 27.56,36.5 1.88,15.34 2.69,349.37 1.35,394 -0.25,8.23 -3.28,38.34 -5.93,45.27 -3.78,9.87 -9.64,12.41 -21.32,14.52zm88.63 122.57c4.33,-5.07 14.41,-7.11 21.77,-9.55 157.29,-52.21 139.33,-223.68 139.33,-361.69 -0,-81.93 8.32,-175.11 -20.13,-245.59 -14.04,-34.76 -32.05,-55.87 -57.11,-75.73 -17.58,-13.93 -43.39,-27.63 -65.51,-35.3 -7.89,-2.74 -18.86,-4.11 -23.71,-9.81 -8.03,-5.45 -26.96,-6.66 -37.09,-7.77 -29.59,-3.24 -105.37,1.89 -131.01,6.14 -70.21,11.65 -126.99,55.15 -151.76,121.87 -8.37,22.54 -13.91,47.61 -17.36,73.85 -8.03,61.16 -5.27,194.18 -5.27,268.35 0,52.01 1.89,115.57 19.87,162.55 26.3,68.7 79.66,103.4 158.19,115.43 33.1,5.07 144.93,11.01 169.79,-2.76z"/>
   <path class="fil2" d="M5551.99 3995.77l-12.23 -0.69 -0.04 -883.85 -229.35 0 0 886.49c7.92,0.18 10.53,1.61 28.8,1.6l184.02 0c5.3,0 10.82,0.17 16.09,0.09 8.4,-0.13 9.02,-0.54 12.71,-3.65z"/>
   <path class="fil0" d="M3903.83 3995.79l-14.25 -0.33 -0.01 -116.15c-8.67,-0.69 -28.96,-2.84 -36.68,-4.8 -2.5,1.76 2.26,0.15 -3.75,1.76 -20.41,5.45 -24.88,-13.55 -26.56,-32.28 -0.95,-10.65 -1.84,-423.58 0.02,-439.57l15.61 1.04c15.16,0.76 26.17,-1.39 42.31,-1.39l-0.23 -116.81 -42.07 0.17 -16.05 1.03 -0.08 -114.81 -223.9 0 0 113.61c-51.57,0 -48.4,-4.48 -48.1,12.71l0.09 104.11 48.01 0 0 281.63c0,48.41 -2.79,58.67 0.01,110.4 1.01,18.75 -2.1,38.63 0.67,56.94 1.37,9.05 0.17,17.11 1.16,26.04 2.66,24.04 4.69,47.17 19.62,66.79 24.62,32.37 51.56,43.46 91.43,49.38 35.06,5.21 59.5,-0.17 83.01,3.4l98.65 0.8c5.67,-0.09 7.62,-0.11 11.09,-3.66z"/>
   <path class="fil0" d="M3617.13 5060.23c-0.17,-92.58 -2.19,-185.23 -0.63,-277.81 0.69,-41.2 -0.41,-95.69 5.61,-135.04 3.08,-20.21 13.22,-36.81 24.18,-46.29 6.54,-5.65 33.56,-23.95 47.4,-17.71 8.84,0 19.57,-2.34 28.85,-3.68 6.8,-0.98 21.67,-4.13 28.52,-4.32 -5.14,-5.8 -4.22,-2.32 -4.13,-12.68 0.71,-78.77 -1.66,-169.04 0.5,-243.35 -50.61,0 -76.44,24.13 -106.41,54 -3.27,3.26 -8.41,10.16 -12.4,11.6 0.33,-14.68 4.8,-38.11 4.8,-52.8l-238.42 0 0 728.07 222.15 0z"/>
   <path class="fil3" d="M3522.99 3995.83l-13.68 -0.24 -0.55 -722.26 14.23 -0.34c-5.73,-5.36 -15.11,-3.35 -27.2,-3.35 -52.12,0.01 -170.35,-2.2 -216.02,1.6l0 726.47c10.69,0 16.65,1.65 28.8,1.61l185.62 -0.01c9.39,0.01 21.9,1.69 28.8,-3.49z"/>
   <path class="fil3" d="M3514.99 3226.01l-6.19 -0.3 -0.05 -114.47 -230.59 0c0.17,7.6 1.62,9.6 1.6,27.2l0 89.61c19.74,0 39.47,0 59.2,0 21.69,0 39.07,1.63 59.21,1.6l113.29 -2c4.43,-1.17 0.65,0.69 3.52,-1.63z"/>
   <path class="fil4" d="M5551.99 3995.77c1.96,-0.56 3.34,2.04 3.38,-9.05 1.09,-290.91 -0.17,-584.49 -0.17,-875.48l-15.47 0 0.04 883.85 12.23 0.69z"/>
   <path class="fil5" d="M4572.84 3988.12c24.33,0 44.98,-10.87 62.77,-25.09 55.55,-44.43 50.7,-146.2 50.7,-218.13 0,-102.48 0.8,-182.03 -97.41,-214.63 -10.17,-3.37 -23.17,-8.52 -33.81,-11l6.98 -2.62c51.2,-13.92 90.07,-29.46 104.37,-94.04 1.5,-6.76 1.9,-10.59 2.98,-17.82 1.03,-6.82 0.41,-12.73 1.31,-19.49 3.05,-22.74 -0.07,-23.69 -0.49,-38.8 -1.55,-56.54 -9.93,-126.4 -49.17,-168.45 -2.85,-3.06 -2.7,-3.61 -4.92,-6.28 -4.81,-5.8 -27.7,-23.33 -34.5,-27.9 -15.39,-10.34 -38.33,-21.43 -63.25,-21.43 -1.08,5.59 -0.82,2.02 5.33,4.08 19.89,6.64 26.09,5.95 49.13,21.36 53.71,35.91 73.82,94.09 79,163.31 3.43,45.88 5.27,106.19 -11.92,144.13 -21.92,48.39 -66.61,46.62 -98.63,63 7.7,4.81 21.3,7.77 30.78,11.11 32.77,11.53 56.6,25.75 74.87,56.35 22.17,37.13 23.36,100.85 23.46,151.11 0.16,77.99 9.8,193.43 -67.03,237.12 -8.54,4.86 -24.72,8.32 -30.59,14.11z"/>
   <path class="fil6" d="M2630.11 3995.79c4.01,-7.35 1.6,-325.2 1.6,-361.3 0,-36.44 2.04,-354.31 -1.6,-361.48l-15.25 0.6c-2.52,25.84 -0.35,63.35 -0.35,90.45 0,72.54 -2.11,621.23 0.85,631.4l14.75 0.33z"/>
   <path class="fil5" d="M3218.96 3995.72c1.96,-2.59 1.6,-7.78 1.63,-10.74 0.06,-6.43 0.59,-7.74 1.13,-11.69 3.26,-23.88 -1.16,-350.99 -1.16,-399.6 0,-34.22 2.11,-67.88 1.66,-104.07l-2.58 -50.22c-4.8,-32.36 -0.78,-53.94 -17.72,-89.49 -8.26,-17.33 -16.51,-26.5 -28.94,-38.26 -9.34,-8.83 -10.59,-10.02 -22.89,-17.11 -9.23,-5.33 -27.11,-12.87 -41.39,-12.87 8.07,10.08 23.85,5.11 54.05,35.41 20.47,20.54 32,42.57 36.59,80.05 7.97,65.18 5.22,136.5 5.14,202.97l0.13 312.03c0,31.47 -2.46,73.52 0.24,103.68l14.11 -0.07z"/>
   <path class="fil6" d="M5249.56 3995.83l1.6 -25.31c-0.01,-57.66 5.85,-141.09 1.52,-193.53 -3.47,-41.91 -1.52,-170.2 -1.52,-220.91 0,-19.64 -1.65,-34.65 -1.6,-52.8 0.04,-16.14 0.09,-37.62 -2.27,-53.74 -2.64,-18.03 -3.26,-32.35 -6.66,-49.35 -11.92,-59.59 -47.6,-97.64 -102.61,-121.41 -10.47,-4.52 -30.79,-12.07 -44.19,-12.33 8.83,7.42 27.27,11.26 38.23,16.74 13.27,6.64 23.55,13.07 34.49,21.44 18.06,13.83 38.21,35.69 48.6,61.83 18.99,47.76 20,144.92 19.44,202.42 -0.73,73.58 -0.72,147.23 -0.51,220.82 0.18,60.82 1.52,133.41 0.39,193.73 -0.3,15.8 -0.79,12.31 15.09,12.39z"/>
   <path class="fil6" d="M6710.5 3465.46c-0.23,-16.61 -3.37,-30.49 -3.22,-46.98 0.35,-37.29 -5.61,-75.43 -25.87,-105.34l-25.81 -27c-19.27,-16.39 -32.03,-19.28 -55.71,-24.49l-2.94 2.65c29.22,8.19 47.09,24.01 62.34,40.58 46.14,50.11 34.91,208.97 34.47,275.2l-0.28 312.03c0.03,31.86 -1.96,71.98 0.56,102.86l16.46 -0.42 0 -529.09z"/>
   <path class="fil5" d="M5364.67 5069.83c17.76,-1.44 32.95,-7.96 45.99,-14.92 13.74,-7.33 23.64,-16.2 33.74,-27.06 21.72,-23.32 28.43,-58.13 32.87,-90.34 5.56,-40.24 5.91,-262.27 5.91,-301.32 0,-22.42 -1.6,-39.22 -1.6,-60.8 0,-41.5 0.13,-82.26 -3.06,-120.15 -2.99,-35.47 -8.63,-64.8 -32.52,-90.7 -17.09,-18.54 -55.32,-41.98 -80.7,-41.98 3.82,9.32 39.27,8.13 69.87,48.04 18.25,23.8 26.33,52.54 27.83,91.19 2.98,77.07 2.55,156.28 2.77,233.61 0.22,75.91 12.32,268.26 -30.67,324.72 -9.78,12.85 -15.8,18.54 -30.72,28.56 -22.31,14.99 -33.09,15.19 -36.1,16.72 -4.58,2.33 -2.99,-0.78 -3.62,4.44z"/>
   <path class="fil5" d="M6120.04 3995.76c4.98,0.62 3.36,-2.96 3.38,-9.04l-0.18 -430.64c0,-66.11 -1.81,-157.28 -24.51,-199.51 -12.43,-23.12 -21.78,-31.09 -37.49,-45.71 -21.17,-19.7 -70.59,-44.41 -95.75,-44.41 4.22,5.22 29.77,12.46 38.49,16.75 33.89,16.65 68.5,46.41 83.29,83.28 19.96,49.77 18.98,143.15 18.81,202.4l1.48 329.63c0.07,18.67 0.15,37.33 0.19,56 0.08,47.61 -4.26,41.15 12.3,41.24z"/>
   <path class="fil5" d="M4136.47 5065.03c27.65,0 72.8,-22.37 95.76,-41.23 29.04,-23.86 44.81,-44.15 59.9,-77.71 26.53,-59.01 21.33,-167.76 21.33,-253.89 0,-98.9 11.22,-202 -33.9,-271.73 -5.11,-7.9 -8.97,-13 -14.77,-20.43 -17.77,-22.73 -53.03,-45.99 -80.26,-57.36 -13.2,-5.52 -36.57,-15.31 -53.43,-15.31 4.85,5.7 15.81,7.07 23.71,9.81 22.13,7.67 47.93,21.37 65.51,35.3 25.06,19.87 43.07,40.97 57.11,75.73 28.46,70.48 20.13,163.65 20.13,245.59 0.01,138 17.96,309.48 -139.33,361.69 -7.36,2.44 -17.44,4.48 -21.77,9.55z"/>
   <polygon class="fil5" points="4877.1,5060.23 4892.72,5060.23 4892.72,4332.16 4877.07,4332.16 "/>
   <path class="fil5" d="M3522.99 3995.83c3.92,-5.45 1.6,-173.86 1.6,-178.93l-0.32 -540.51c-0.09,-0.4 -0.26,-0.87 -0.35,-1.21l-0.93 -2.19 -14.23 0.34 0.55 722.26 13.68 0.24z"/>
   <path class="fil5" d="M2929.33 3995.72c5.55,-2.17 3.2,-22.81 3.2,-34.8l0 -432.04c0,-25.78 -0.82,-52.86 -0.05,-78.46 0.3,-10.21 2.85,-40.74 7.71,-49.9 3.77,-7.11 6.3,-5.92 9.97,-10.85 -10.54,-4.78 -22.86,4.46 -26.57,11.87 -4.88,9.77 -5.3,22.21 -5.78,34.53 -1.01,26.2 -1.18,52.2 -1.78,78.47 -0.72,31.26 -3.03,461.83 -0.35,481.08l13.66 0.1z"/>
   <path class="fil6" d="M4621.8 4940.22c-7.75,-6.52 -11.1,-6.31 -14.63,-23.28 -1.81,-8.71 -2.52,-26.13 -2.48,-35.92l0 -548.86 -15.87 0c-2.23,156.64 -2.2,328.67 -0.85,486.45 0.19,22.67 -2.19,94.02 7.85,112.85 4.45,8.37 16.99,15.47 25.97,8.76z"/>
   <path class="fil5" d="M6419.28 3994.61c1.22,-1.99 0.65,-0.14 1.28,-3.59l0.25 -52.57c0.11,-8.63 1.48,-9.43 1.72,-17.48 2.12,-70.91 -1.65,-161.24 -1.65,-233.68 0,-27.05 -1.59,-248.6 3.28,-270.35 4.93,-22 9.55,-16.93 13.9,-25.68l-0.7 -3.06c-27.31,-0.43 -29.51,23.38 -30.79,49.41 -1.3,26.54 -1.67,51.75 -1.67,78.45l0.02 320.03c0,51.44 -2.44,109.07 0.22,159.75l14.14 -1.25z"/>
   <path class="fil5" d="M3047.75 4926.06c-4.04,-6.06 -6.63,-3.2 -11.55,-9.5 -12.94,-16.55 -9.68,-71.44 -10.85,-93.16l-1.61 -40c0,-27.74 0,-55.47 0,-83.21 0,-29.66 1.6,-54.84 1.6,-83.21 0,-29.24 -1.6,-52.86 -1.6,-81.61l0 -124.81c-0.02,-14.41 2.16,-65.89 4.86,-78.35 1.32,-6.09 3.26,-10.34 6.28,-14.52l11.03 -11.14c-9.93,-6.12 -24.78,5.57 -28.65,12.67 -4.27,7.85 -6.57,24.91 -7.49,35.56 -3.13,36.44 -2.95,490.84 0.51,521.82 3.22,28.83 5.11,50.83 37.47,49.45z"/>
   <path class="fil5" d="M4047.84 4942.45c-10.78,-12.48 -17.15,-8.37 -19.21,-47.03 -1.1,-20.59 0.01,-44.64 0.01,-65.61l-0.04 -328.07c-0.08,-20.79 1.39,-40.81 17.58,-49.57 -13.63,-11.9 -29.65,6.79 -32.52,33.36 -3.15,29.2 -1.94,177.62 -1.8,211.46 0.2,47.09 1.62,95.52 0.56,142.44 -0.85,37.81 -10.93,105.1 35.41,103.02z"/>
   <path class="fil5" d="M1935 3634.49c44.69,-3.19 100.62,-36.37 115.66,-81.79 20.02,-60.44 14.58,-120.44 14.58,-183.83 0,-69.93 -0.74,-126.56 -24.51,-173.91 -19.4,-38.64 -60.41,-62.32 -101.24,-71.57 -6.36,-1.44 -15.41,-4.01 -21.19,-4.15 7.32,7.17 22.32,9.17 32.8,13.34 11.75,4.67 22.19,10.33 31.55,16.43 70,45.65 66.93,135.72 67.02,218.25 0.08,77.63 11.7,183.56 -50.57,234.69 -30.02,24.65 -57.32,23.37 -64.09,32.54z"/>
   <path class="fil5" d="M5213.19 4940.22c-18.26,-10.41 -16.97,-26.08 -18.03,-48 -0.34,-7.04 -1.42,-6.68 -1.65,-14.35 -1.21,-40.45 2.33,-161.43 -0.18,-183.83 -5.82,-51.85 0.24,-113.11 0.23,-161.85 0,-12.63 0.71,-21.83 1.51,-32.09 4.04,-51.45 5.93,-33.87 17.69,-49.44 -42.29,-13.5 -35.15,73.82 -35.06,103.94 0.16,55.65 -2.52,317.3 2.19,353.08 2.19,16.63 3.97,27.07 19.35,33.38 4.37,1.79 7.17,2.71 10.88,1.24 2.64,-1.04 1.8,-0.96 3.06,-2.06z"/>
   <path class="fil5" d="M3617.13 5060.23c21.22,0 16.28,7.41 16.28,-52.81 0,-11.73 -0.02,-23.47 0,-35.2 0.03,-13.67 -1.7,-20.91 -1.63,-33.58 0.27,-46.35 0.19,-92.88 0.02,-139.24 -0.05,-13.16 1.7,-19.54 1.63,-31.98 -0.07,-11.74 -0.02,-23.48 -0.02,-35.22 0,-32.79 0.65,-97.67 18.23,-120.98 11.87,-15.75 26.85,-17.82 42.05,-27.83 -13.84,-6.24 -40.86,12.06 -47.4,17.71 -10.95,9.48 -21.09,26.08 -24.18,46.29 -6.01,39.35 -4.91,93.83 -5.61,135.04 -1.56,92.59 0.45,185.24 0.63,277.81z"/>
   <path class="fil5" d="M3852.89 3874.51c-4.46,-0.35 -4.57,-0.74 -8.27,-1.6 -1.22,-14.65 -6.65,-22.79 -6.37,-52.83 0.1,-11.14 -1.71,-15.54 -1.65,-27.15l0.02 -89.63c0,-21.81 1.61,-38.68 1.6,-59.2 -0.05,-79.54 0,-159.09 0,-238.63l-15.61 -1.04c-1.87,15.99 -0.97,428.92 -0.02,439.57 1.67,18.74 6.15,37.74 26.56,32.28 6,-1.61 1.25,-0 3.75,-1.76z"/>
   <path class="fil6" d="M3313.84 5060.23l15.53 0 0.04 -470.5c-1.02,-4.93 1.07,-3.16 -3.24,-4.44l-12.45 0.48 0.12 474.46z"/>
   <path class="fil6" d="M1796.42 3995.8c5.55,-2.37 3.2,-28.04 3.2,-39.69 0,-41.9 1.94,-300.41 -0.88,-313.63l-15.61 -0.49c-2.59,10.72 -0.67,282.41 -0.73,323.72 -0.06,36.26 -3.16,29.93 14.02,30.08z"/>
   <path class="fil5" d="M3326.17 4498.54c5.78,0.07 3.11,-18.58 3.15,-30.43 0.02,-6.81 1.22,-10.51 1.34,-14.5 0.13,-4.57 -1.32,-8.58 -1.34,-15.8 -0.1,-38.43 0.07,-27.14 -3.1,-64.11 -1.74,-20.32 -5.74,-38.63 -10.28,-56.93 -2.45,-9.89 -4.73,-16.54 -8.27,-25.33 -21.44,-53.31 -70.33,-94.24 -123.22,-115.21 -13.83,-5.48 -37.17,-13.98 -53.64,-15.3 6.86,6.55 35.28,14.3 46.39,19.34 146.61,66.53 130.54,173.81 136.67,318.01l12.3 0.25z"/>
   <path class="fil5" d="M3751.05 4575.38l13.57 0 0 -256.03 -17.2 0c-2.16,74.31 0.21,164.58 -0.5,243.35 -0.09,10.36 -1.01,6.88 4.13,12.68z"/>
   <path class="fil6" d="M1799.35 3487.27l0.27 -222.72 -17.28 -0.39 0 222.7c6.04,0.81 13.15,2.41 17.01,0.41z"/>
   <path class="fil5" d="M4380.53 3842.51l-0.21 -241.62c-3.26,-2.12 -10.15,-2.75 -15.06,-2.62l-0.3 246.83c3.29,0.04 5.31,0 8.29,-0.42 5.51,-0.78 3.94,0 7.28,-2.17z"/>
   <path class="fil5" d="M5850.75 3877.71c-16.34,-13.53 -15.76,-25.43 -17.13,-52.81l-1.6 -33.6c0,-13.41 0.92,-22.29 1.6,-33.6 1.21,-20.09 6.41,-42.1 15.08,-55.33 5.62,-8.57 26.55,-31.48 35.7,-34.28l0.48 -13.22c-14.42,6.26 -36.94,27.63 -45.01,38.7 -12.63,17.35 -19.53,34.19 -22.84,60.28 -3.12,24.57 -1.31,55.96 0.53,80.7 0.92,12.34 3.72,23.63 8.59,33.03 3.75,7.24 14.39,20.75 24.59,10.14z"/>
   <path class="fil5" d="M4980.74 3879.78c-6.58,-11.68 -18.06,-5.07 -19.17,-51.7 -0.19,-7.93 -1.44,-7.98 -1.69,-15.92 -0.98,-32.9 0.58,-85.36 16.65,-109.87 7.43,-11.33 25.33,-28.46 36.19,-35.8l0.52 -11.35c-15,6.19 -35.94,26.2 -44.94,37.29 -30.43,37.52 -23.85,92.61 -22.76,138.91 0.68,28.79 5.18,48.85 35.19,48.44z"/>
   <path class="fil5" d="M4380.13 3456.87l0.55 -191.83 -15.72 -0.9 -0.01 194c5.44,0.34 11.42,0.99 15.18,-1.27z"/>
   <path class="fil5" d="M5832.02 3550.81c0,-14.64 1.68,-27.75 1.66,-44.4 -0.01,-9.61 -1.61,-11.6 -1.72,-20.68 -0.22,-18.26 -0.04,-48.3 2.32,-65.02 2.5,-17.67 2.14,-21.82 13.27,-31.06 -11.28,-5.62 -24.25,6.28 -27.47,16.85 -4.23,13.91 -2.6,30.78 -3.16,45.72 -1.22,32.6 -0.6,65.01 -0.6,97.62l15.7 0.97z"/>
   <path class="fil5" d="M4957.8 3551.28c2.55,-3.02 0.25,0.84 1.71,-3.52 3.36,-9.99 2.07,-28.04 0.86,-36.93 -2.05,-14.92 -2.07,-87.73 5.45,-105.69 3,-7.17 5.12,-8.7 8.44,-13.89 -0.17,-4.76 -19.12,-7.92 -25.17,16.34 -8.25,33.06 -5.06,106.3 -4.41,141.6l13.12 2.07z"/>
   <path class="fil5" d="M5177.77 5162.64l15.79 0 0.02 -142.41c-3.06,-5.5 -11.3,-14.67 -15.83,-17.41l0.02 159.82z"/>
   <polygon class="fil6" points="3880.53,3404.07 3897.43,3404.07 3897.43,3287.25 3880.3,3287.25 "/>
   <path class="fil5" d="M3903.83 3995.79c3.33,-4.54 0.7,-41.06 2.76,-56.11 2.1,-15.28 0.44,-43.65 0.44,-60.37l-17.45 0 0.01 116.15 14.25 0.33z"/>
   <polygon class="fil5" points="3838.22,3287.42 3838.22,3173.64 3822.1,3173.64 3822.18,3288.45 "/>
   <polygon class="fil5" points="3514.99,3226.01 3524.59,3226.52 3524.59,3111.24 3508.76,3111.24 3508.8,3225.7 "/>
  </g>
 </g>
</svg>
