<?xml version="1.0" encoding="UTF-8"?>
<svg id="Layer_2" data-name="Layer 2" xmlns="http://www.w3.org/2000/svg" viewBox="0 0 114.2 112.11">
  <defs>
    <style>
      .cls-1 {
        fill: #0e61ab;
      }

      .cls-1, .cls-2 {
        fill-rule: evenodd;
        stroke-width: 0px;
      }

      .cls-2 {
        fill: #96a830;
      }
    </style>
  </defs>
  <g id="Layer_1-2" data-name="Layer 1">
    <g>
      <path class="cls-1" d="M29.63,26.11h0c.02-14.08,11.85-26.11,26.82-26.11,5.15,0,8.98,1.84,13.11,4.16,3.82,2.15,8.21,6.82,11.89,10.85l7.55,8.44h-28.48c-.49-.59-.86-.92-1.48-1.29-.89-.52-1.92-.84-3.02-.84-2.89,0-5.3,2.1-5.76,4.83h0c-.05.27-.07.55-.08.84v.1s0,30.1,0,30.1h-20.55v-31.08h0Z"/>
      <path class="cls-2" d="M88.09,28.75h0c14.08.02,26.11,11.85,26.11,26.82,0,5.15-1.84,8.98-4.16,13.11-2.15,3.82-6.82,8.21-10.85,11.89l-8.44,7.55v-28.47c.59-.49.92-.86,1.29-1.48.52-.89.84-1.92.84-3.02,0-2.89-2.1-5.3-4.83-5.76h0c-.27-.05-.55-.07-.84-.08h-.1s-30.1,0-30.1,0v-20.55h31.04s.04,0,.04,0Z"/>
      <path class="cls-1" d="M84.4,86.01h0c-.02,14.08-11.85,26.11-26.82,26.11-5.15,0-8.98-1.84-13.11-4.15-3.82-2.15-8.21-6.82-11.89-10.85l-7.55-8.44h28.48c.49.59.86.92,1.48,1.29.89.52,1.92.84,3.02.84,2.89,0,5.3-2.09,5.76-4.82h0s0-.01,0-.01c.05-.27.07-.55.08-.84v-.1s0-30.1,0-30.1h20.55v31.08h0Z"/>
      <path class="cls-2" d="M26.11,82.94h0c-14.08-.02-26.11-11.85-26.11-26.82,0-5.15,1.84-8.98,4.15-13.11,2.15-3.82,6.82-8.21,10.85-11.89l8.44-7.55v28.48c-.59.49-.92.86-1.29,1.48-.52.89-.84,1.92-.84,3.02,0,2.89,2.09,5.3,4.82,5.76h.01c.27.05.55.07.84.08h.1s30.1,0,30.1,0v20.55h-31.08Z"/>
    </g>
  </g>
</svg>