<?xml version="1.0" encoding="UTF-8"?>
<svg id="Layer_2" data-name="Layer 2" xmlns="http://www.w3.org/2000/svg" viewBox="0 0 1948 1806.04">
  <defs>
    <style>
      .cls-1 {
        fill: #1fd224;
        stroke-width: 0px;
      }
    </style>
  </defs>
  <g id="objects">
    <path class="cls-1" d="M1543.46,485.4s-197.21-81.9-425.54,95.83c-185.21,144.16-427.17,124.96-537.42-28.09-34.9,23.96-83.99,65.45-138.6,134.86-11.33,14.38-32.9,15.11-45.19,1.53l-20.88-23.06c-9.95-10.98-10.26-27.65-.68-38.97,61.56-72.69,161.79-171.98,254.42-217.23,273.3-133.52,497.21-93.24,499.88-92.77-2.13-1.33-192.78-119.61-605.43,85.65-2.56-21.16-3.47-43.47-2.56-66.89,6.41-166.18,212.43-383.73,501.16-327.09,382.33,75.02,520.84,476.23,520.84,476.23ZM1850.46,1070.73c-17.42-15.7-35.14-29.28-53.04-40.86-106.41,448.43-319.31,519.21-321.7,519.98,2.07-1.74,176.32-147.99,248.67-443.43,24.52-100.14,12.39-240.69-4.06-334.52-2.56-14.61-15.56-25.04-30.37-24.43l-31.09,1.29c-18.29.75-31.54,17.79-27.75,35.7,18.37,86.38,18.84,150.66,14.91,192.81-188.16-13.25-357.78,160.36-365.57,394.94-9.58,289.18-198.74,388.29-198.74,388.29,0,0,396.92,150.37,699.27-95.37,228.33-185.58,193.04-483.12,69.47-594.4ZM856.19,1675.37c-84.7-25-141.43-55.22-176.62-78.77,101.31-159.1,29.5-390.96-173.03-509.58-249.67-146.22-246.67-359.75-246.67-359.75,0,0-321.34,277.32-249.36,660.23,54.36,289.16,332.77,399.92,489.49,344.3,22.09-7.83,42.48-16.95,61.19-27.16-343.55-307.22-304.33-528.14-303.87-530.6.55,2.64,46.09,225.53,271.37,429.92,76.35,69.27,205.71,125.58,296.04,155.83,14.06,4.71,29.42-1.76,35.95-15.06l13.67-27.95c8.06-16.44-.6-36.21-18.16-41.41Z"/>
  </g>
</svg>