<?xml version="1.0" encoding="UTF-8"?>
<svg id="Layer_2" data-name="Layer 2" xmlns="http://www.w3.org/2000/svg" xmlns:xlink="http://www.w3.org/1999/xlink" viewBox="0 0 94.42 106.71">
  <defs>
    <style>
      .cls-1 {
        fill: none;
      }

      .cls-1, .cls-2 {
        stroke-width: 0px;
      }

      .cls-3 {
        clip-path: url(#clippath);
      }

      .cls-2 {
        fill: #e31e24;
      }
    </style>
    <clipPath id="clippath">
      <polygon class="cls-1" points="0 0 93.83 0 94.42 43.55 76.17 39.34 62.88 40.23 63.74 103.05 55.15 105.82 48.2 106.71 40.59 105.83 32.87 103.06 32.02 40.23 12.81 40.08 .61 44.91 0 0 0 0"/>
    </clipPath>
  </defs>
  <g id="Layer_1-2" data-name="Layer 1">
    <g class="cls-3">
      <g id="_2690707436544" data-name=" 2690707436544">
        <path class="cls-2" d="M46.23,11.82l1.65-3.04h-1.69l1.51-.89,1.51-.83,1.52-.77,1.52-.71,1.53-.65,1.53-.59,1.53-.53,1.54-.48,1.54-.42,1.54-.36,1.55-.3,1.55-.24,1.55-.19,1.56-.13,1.56-.07h1.56s1.56.03,1.56.03l1.57.1,1.57.15,1.57.21,1.57.26,1.57.32,1.57.37,1.57.42,1.57.48,1.57.53,1.58.58,1.58.64,1.58.69,1.58.74,1.58.79,1.58.84-1.53,3.11-1.5-.8-1.5-.75-1.5-.7-1.49-.65-1.49-.6-1.48-.55-1.48-.5-1.48-.45-1.47-.4-1.47-.35-1.47-.3-1.46-.24-1.46-.19-1.45-.14-1.45-.09-1.45-.04h-1.44s-1.44.08-1.44.08l-1.44.12-1.44.17-1.44.23-1.43.28-1.43.33-1.43.39-1.43.44-1.43.5-1.43.55-1.42.61-1.42.67-1.42.72-1.42.78-1.42.84h-1.69,0ZM47.92,11.82l-.84.51-.85-.51h1.69ZM-.25,11.85l-1.61-3.11,1.56-.84,1.55-.79,1.56-.74,1.56-.69,1.56-.64,1.56-.58,1.56-.53,1.56-.48,1.56-.42,1.56-.37,1.56-.32,1.56-.26,1.56-.21,1.56-.15,1.56-.1,1.56-.04h1.56s1.56.09,1.56.09l1.56.13,1.56.19,1.56.24,1.56.3,1.55.36,1.55.42,1.55.48,1.55.53,1.55.59,1.54.65,1.54.71,1.54.77,1.53.83,1.53.89-1.65,3.04-1.44-.84-1.44-.78-1.44-.72-1.44-.67-1.44-.61-1.44-.55-1.44-.5-1.44-.44-1.44-.39-1.44-.33-1.44-.28-1.44-.23-1.44-.17-1.44-.12-1.44-.07h-1.45s-1.45.02-1.45.02l-1.45.09-1.45.14-1.45.19-1.45.24-1.46.3-1.46.35-1.46.4-1.46.45-1.47.5-1.47.55-1.47.6-1.47.65-1.48.7-1.48.75-1.48.8h0Z"/>
        <path class="cls-2" d="M46.34,19.66l1.65-3.04h-1.69l1.51-.89,1.51-.83,1.52-.77,1.52-.71,1.52-.65,1.53-.59,1.53-.53,1.54-.48,1.54-.42,1.54-.36,1.55-.3,1.55-.24,1.55-.19,1.56-.13,1.56-.07h1.56s1.56.03,1.56.03l1.57.1,1.57.15,1.57.21,1.57.26,1.57.32,1.57.37,1.57.42,1.57.48,1.57.53,1.58.58,1.58.64,1.58.69,1.58.74,1.58.79,1.58.84-1.53,3.11-1.5-.8-1.5-.75-1.5-.7-1.49-.65-1.49-.6-1.48-.55-1.48-.5-1.48-.45-1.47-.4-1.47-.35-1.47-.3-1.46-.24-1.46-.19-1.45-.14-1.45-.09-1.45-.04h-1.44s-1.44.08-1.44.08l-1.44.12-1.44.17-1.44.23-1.43.28-1.43.33-1.43.39-1.43.44-1.43.5-1.43.55-1.42.61-1.42.67-1.42.72-1.42.78-1.42.84h-1.69ZM48.03,19.66l-.84.51-.85-.51h1.69ZM-.15,19.69l-1.61-3.11,1.56-.84,1.55-.79,1.56-.74,1.56-.69,1.56-.64,1.56-.58,1.56-.53,1.56-.48,1.56-.42,1.56-.37,1.56-.32,1.56-.26,1.56-.21,1.56-.15,1.56-.1,1.56-.04h1.56s1.56.09,1.56.09l1.56.13,1.56.19,1.56.24,1.56.3,1.55.36,1.55.42,1.55.48,1.55.53,1.55.59,1.54.65,1.54.71,1.54.77,1.53.83,1.53.89-1.65,3.04-1.44-.84-1.44-.78-1.44-.72-1.44-.67-1.44-.61-1.44-.55-1.44-.5-1.44-.44-1.44-.39-1.44-.33-1.44-.28-1.44-.23-1.44-.17-1.44-.12-1.44-.07h-1.45s-1.45.02-1.45.02l-1.45.09-1.45.14-1.45.19-1.46.24-1.46.3-1.46.35-1.46.4-1.46.45-1.47.5-1.47.55-1.47.6-1.47.65-1.48.7-1.48.75-1.48.8h0Z"/>
        <path class="cls-2" d="M46.45,27.5l1.65-3.04h-1.69l1.51-.89,1.51-.83,1.52-.77,1.52-.71,1.53-.65,1.53-.59,1.53-.53,1.54-.48,1.54-.42,1.54-.36,1.55-.3,1.55-.24,1.55-.19,1.56-.13,1.56-.07h1.56s1.56.03,1.56.03l1.57.1,1.57.15,1.57.21,1.57.26,1.57.32,1.57.37,1.57.42,1.57.48,1.57.53,1.58.58,1.58.64,1.58.69,1.58.74,1.58.79,1.58.84-1.53,3.11-1.5-.8-1.5-.75-1.5-.7-1.49-.65-1.49-.6-1.48-.55-1.48-.5-1.48-.45-1.47-.4-1.47-.35-1.46-.3-1.46-.24-1.46-.19-1.45-.14-1.45-.09-1.45-.04h-1.44s-1.44.08-1.44.08l-1.44.12-1.44.17-1.44.23-1.43.28-1.43.33-1.43.39-1.43.44-1.43.5-1.43.55-1.42.61-1.42.67-1.42.72-1.42.78-1.42.84h-1.69,0ZM48.13,27.5l-.84.51-.85-.51h1.69ZM-.04,27.53l-1.61-3.11,1.56-.84,1.55-.79,1.56-.74,1.56-.69,1.56-.64,1.56-.58,1.56-.53,1.56-.48,1.56-.42,1.56-.37,1.56-.32,1.56-.26,1.56-.21,1.56-.15,1.56-.1,1.56-.04h1.56s1.56.09,1.56.09l1.56.13,1.56.19,1.56.24,1.56.3,1.55.36,1.55.42,1.55.48,1.55.53,1.55.59,1.54.65,1.54.71,1.54.77,1.53.83,1.53.89-1.65,3.04-1.44-.84-1.44-.78-1.44-.72-1.44-.67-1.44-.61-1.44-.55-1.44-.5-1.44-.44-1.44-.39-1.44-.33-1.44-.28-1.44-.23-1.44-.17-1.44-.12-1.44-.07h-1.45s-1.45.02-1.45.02l-1.45.09-1.45.14-1.45.19-1.46.24-1.46.3-1.46.35-1.46.4-1.46.45-1.47.5-1.47.55-1.47.6-1.47.65-1.48.7-1.48.75-1.48.8h0Z"/>
        <path class="cls-2" d="M46.55,35.34l1.65-3.04h-1.69l1.51-.89,1.51-.83,1.52-.77,1.52-.71,1.53-.65,1.53-.59,1.53-.53,1.54-.48,1.54-.42,1.54-.36,1.55-.3,1.55-.24,1.55-.19,1.56-.13,1.56-.07h1.56s1.56.03,1.56.03l1.57.1,1.57.15,1.57.21,1.57.26,1.57.32,1.57.37,1.57.42,1.57.48,1.57.53,1.58.58,1.58.64,1.58.69,1.58.74,1.58.79,1.58.84-1.53,3.11-1.5-.8-1.5-.75-1.5-.7-1.49-.65-1.49-.6-1.48-.55-1.48-.5-1.48-.45-1.47-.4-1.47-.35-1.47-.3-1.46-.24-1.46-.19-1.45-.14-1.45-.09-1.45-.04h-1.44s-1.44.08-1.44.08l-1.44.12-1.44.17-1.44.23-1.43.28-1.43.33-1.43.39-1.43.44-1.43.5-1.43.55-1.42.61-1.42.67-1.42.72-1.42.78-1.42.84h-1.69,0ZM48.24,35.34l-.84.51-.85-.51h1.69ZM.07,35.37l-1.61-3.11L0,31.42l1.55-.79,1.56-.74,1.56-.69,1.56-.64,1.56-.58,1.56-.53,1.56-.48,1.56-.42,1.56-.37,1.56-.32,1.56-.26,1.56-.21,1.56-.15,1.56-.1,1.56-.04h1.56s1.56.09,1.56.09l1.56.13,1.56.19,1.56.24,1.56.3,1.55.36,1.55.42,1.55.48,1.55.53,1.55.59,1.54.65,1.54.71,1.54.77,1.53.83,1.53.89-1.65,3.04-1.44-.84-1.44-.78-1.44-.72-1.44-.67-1.44-.61-1.44-.55-1.44-.5-1.44-.44-1.44-.39-1.44-.33-1.44-.28-1.44-.23-1.44-.17-1.44-.12-1.44-.07h-1.45s-1.45.02-1.45.02l-1.45.09-1.45.14-1.45.19-1.45.24-1.46.3-1.46.35-1.46.4-1.46.45-1.47.5-1.47.55-1.47.6-1.47.65-1.48.7-1.48.75-1.48.8h0Z"/>
        <path class="cls-2" d="M46.66,43.18l1.65-3.04h-1.69l1.51-.89,1.51-.83,1.52-.77,1.52-.71,1.52-.65,1.53-.59,1.53-.53,1.54-.48,1.54-.42,1.54-.36,1.55-.3,1.55-.24,1.55-.19,1.56-.13,1.56-.07h1.56s1.56.03,1.56.03l1.57.1,1.57.15,1.57.21,1.57.26,1.57.32,1.57.37,1.57.42,1.57.48,1.57.53,1.58.58,1.58.64,1.58.69,1.58.74,1.58.79,1.58.84-1.53,3.11-1.5-.8-1.5-.75-1.5-.7-1.49-.65-1.49-.6-1.48-.55-1.48-.5-1.48-.45-1.47-.4-1.47-.35-1.47-.3-1.46-.24-1.46-.19-1.45-.14-1.45-.09-1.45-.04h-1.44s-1.44.08-1.44.08l-1.44.12-1.44.17-1.44.23-1.43.28-1.43.33-1.43.39-1.43.44-1.43.5-1.43.55-1.42.61-1.42.67-1.42.72-1.42.78-1.42.84h-1.69ZM48.35,43.18l-.84.51-.85-.51h1.69ZM.17,43.22l-1.61-3.11,1.56-.84,1.55-.79,1.56-.74,1.56-.69,1.56-.64,1.56-.58,1.56-.53,1.56-.48,1.56-.42,1.56-.37,1.56-.32,1.56-.26,1.56-.21,1.56-.15,1.56-.1,1.56-.04h1.56s1.56.09,1.56.09l1.56.13,1.56.19,1.56.24,1.56.3,1.55.36,1.55.42,1.55.48,1.55.53,1.55.59,1.54.65,1.54.71,1.54.77,1.53.83,1.53.89-1.65,3.04-1.44-.84-1.44-.78-1.44-.72-1.44-.67-1.44-.61-1.44-.55-1.44-.5-1.44-.44-1.44-.39-1.44-.33-1.44-.28-1.44-.23-1.44-.17-1.44-.12-1.44-.07h-1.45s-1.45.02-1.45.02l-1.45.09-1.45.14-1.45.19-1.46.24-1.46.3-1.46.35-1.46.4-1.46.45-1.47.5-1.47.55-1.47.6-1.47.65-1.48.7-1.48.75-1.48.8h0Z"/>
        <path class="cls-2" d="M46.77,51.03l1.65-3.04h-1.69l1.51-.89,1.51-.83,1.52-.77,1.52-.71,1.53-.65,1.53-.59,1.53-.53,1.54-.48,1.54-.42,1.54-.36,1.55-.3,1.55-.24,1.55-.19,1.56-.13,1.56-.07h1.56s1.56.03,1.56.03l1.57.1,1.57.15,1.57.21,1.57.26,1.57.32,1.57.37,1.57.42,1.57.48,1.57.53,1.58.58,1.58.64,1.58.69,1.58.74,1.58.79,1.58.84-1.53,3.11-1.5-.8-1.5-.75-1.5-.7-1.49-.65-1.49-.6-1.48-.55-1.48-.5-1.48-.45-1.47-.4-1.47-.35-1.46-.3-1.46-.24-1.46-.19-1.45-.14-1.45-.09-1.45-.04h-1.44s-1.44.08-1.44.08l-1.44.12-1.44.17-1.44.23-1.43.28-1.43.33-1.43.39-1.43.44-1.43.5-1.43.55-1.42.61-1.42.67-1.42.72-1.42.78-1.42.84h-1.69,0ZM48.45,51.03l-.84.51-.85-.51h1.69ZM.28,51.06l-1.61-3.11,1.56-.84,1.55-.79,1.56-.74,1.56-.69,1.56-.64,1.56-.58,1.56-.53,1.56-.48,1.56-.42,1.56-.37,1.56-.32,1.56-.26,1.56-.21,1.56-.15,1.56-.1,1.56-.04h1.56s1.56.09,1.56.09l1.56.13,1.56.19,1.56.24,1.56.3,1.55.36,1.55.42,1.55.48,1.55.53,1.55.59,1.54.65,1.54.71,1.54.77,1.53.83,1.53.89-1.65,3.04-1.44-.84-1.44-.78-1.44-.72-1.44-.67-1.44-.61-1.44-.55-1.44-.5-1.44-.44-1.44-.39-1.44-.33-1.44-.28-1.44-.23-1.44-.17-1.44-.12-1.44-.07h-1.45s-1.45.02-1.45.02l-1.45.09-1.45.14-1.45.19-1.46.24-1.46.3-1.46.35-1.46.4-1.46.45-1.47.5-1.47.55-1.47.6-1.47.65-1.48.7-1.48.75-1.48.8h0Z"/>
        <path class="cls-2" d="M46.88,58.87l1.65-3.04h-1.69l1.51-.89,1.51-.83,1.52-.77,1.52-.71,1.53-.65,1.53-.59,1.53-.53,1.54-.48,1.54-.42,1.54-.36,1.55-.3,1.55-.24,1.55-.19,1.56-.13,1.56-.07h1.56s1.56.03,1.56.03l1.57.1,1.57.15,1.57.21,1.57.26,1.57.32,1.57.37,1.57.42,1.57.48,1.57.53,1.58.58,1.58.64,1.58.69,1.58.74,1.58.79,1.58.84-1.53,3.11-1.5-.8-1.5-.75-1.5-.7-1.49-.65-1.49-.6-1.48-.55-1.48-.5-1.48-.45-1.47-.4-1.47-.35-1.47-.3-1.46-.24-1.46-.19-1.45-.14-1.45-.09-1.45-.04h-1.44s-1.44.08-1.44.08l-1.44.12-1.44.17-1.44.23-1.43.28-1.43.33-1.43.39-1.43.44-1.43.5-1.43.55-1.42.61-1.42.67-1.42.72-1.42.78-1.42.84h-1.69,0ZM48.56,58.87l-.84.51-.85-.51h1.69ZM.39,58.9l-1.61-3.11,1.56-.84,1.55-.79,1.56-.74,1.56-.69,1.56-.64,1.56-.58,1.56-.53,1.56-.48,1.56-.42,1.56-.37,1.56-.32,1.56-.26,1.56-.21,1.56-.15,1.56-.1,1.56-.04h1.56s1.56.09,1.56.09l1.56.13,1.56.19,1.56.24,1.56.3,1.55.36,1.55.42,1.55.48,1.55.53,1.55.59,1.54.65,1.54.71,1.54.77,1.53.83,1.53.89-1.65,3.04-1.44-.84-1.44-.78-1.44-.72-1.44-.67-1.44-.61-1.44-.55-1.44-.5-1.44-.44-1.44-.39-1.44-.33-1.44-.28-1.44-.23-1.44-.17-1.44-.12-1.44-.07h-1.45s-1.45.02-1.45.02l-1.45.09-1.45.14-1.45.19-1.45.24-1.46.3-1.46.35-1.46.4-1.46.45-1.47.5-1.47.55-1.47.6-1.47.65-1.48.7-1.48.75-1.48.8h0Z"/>
        <path class="cls-2" d="M46.98,66.71l1.65-3.04h-1.69l1.51-.89,1.51-.83,1.52-.77,1.52-.71,1.52-.65,1.53-.59,1.53-.53,1.54-.48,1.54-.42,1.54-.36,1.55-.3,1.55-.24,1.55-.19,1.56-.13,1.56-.07h1.56s1.56.03,1.56.03l1.57.1,1.57.15,1.57.21,1.57.26,1.57.32,1.57.37,1.57.42,1.57.48,1.57.53,1.58.58,1.58.64,1.58.69,1.58.74,1.58.79,1.58.84-1.53,3.11-1.5-.8-1.5-.75-1.5-.7-1.49-.65-1.49-.6-1.48-.55-1.48-.5-1.48-.45-1.47-.4-1.47-.35-1.47-.3-1.46-.24-1.46-.19-1.45-.14-1.45-.09-1.45-.04h-1.44s-1.44.08-1.44.08l-1.44.12-1.44.17-1.44.23-1.43.28-1.43.33-1.43.39-1.43.44-1.43.5-1.43.55-1.42.61-1.42.67-1.42.72-1.42.78-1.42.84h-1.69ZM48.67,66.71l-.84.51-.85-.51h1.69ZM.49,66.74l-1.61-3.11,1.56-.84,1.55-.79,1.56-.74,1.56-.69,1.56-.64,1.56-.58,1.56-.53,1.56-.48,1.56-.42,1.56-.37,1.56-.32,1.56-.26,1.56-.21,1.56-.15,1.56-.1,1.56-.04h1.56s1.56.09,1.56.09l1.56.13,1.56.19,1.56.24,1.56.3,1.55.36,1.55.42,1.55.48,1.55.53,1.55.59,1.54.65,1.54.71,1.54.77,1.53.83,1.53.89-1.65,3.04-1.44-.84-1.44-.78-1.44-.72-1.44-.67-1.44-.61-1.44-.55-1.44-.5-1.44-.44-1.44-.39-1.44-.33-1.44-.28-1.44-.23-1.44-.17-1.44-.12-1.44-.07h-1.45s-1.45.02-1.45.02l-1.45.09-1.45.14-1.45.19-1.46.24-1.46.3-1.46.35-1.46.4-1.46.45-1.47.5-1.47.55-1.47.6-1.47.65-1.48.7-1.48.75-1.48.8h0Z"/>
        <path class="cls-2" d="M47.09,74.55l1.65-3.04h-1.69l1.51-.89,1.51-.83,1.52-.77,1.52-.71,1.53-.65,1.53-.59,1.53-.53,1.54-.48,1.54-.42,1.54-.36,1.55-.3,1.55-.24,1.55-.19,1.56-.13,1.56-.07h1.56s1.56.03,1.56.03l1.57.1,1.57.15,1.57.21,1.57.26,1.57.32,1.57.37,1.57.42,1.57.48,1.57.53,1.58.58,1.58.64,1.58.69,1.58.74,1.58.79,1.58.84-1.53,3.11-1.5-.8-1.5-.75-1.5-.7-1.49-.65-1.49-.6-1.48-.55-1.48-.5-1.48-.45-1.47-.4-1.47-.35-1.46-.3-1.46-.24-1.46-.19-1.45-.14-1.45-.09-1.45-.04h-1.44s-1.44.08-1.44.08l-1.44.12-1.44.17-1.44.23-1.43.28-1.43.33-1.43.39-1.43.44-1.43.5-1.43.55-1.42.61-1.42.67-1.42.72-1.42.78-1.42.84h-1.69,0ZM48.78,74.55l-.84.51-.85-.51h1.69ZM.6,74.58l-1.61-3.11,1.56-.84,1.55-.79,1.56-.74,1.56-.69,1.56-.64,1.56-.58,1.56-.53,1.56-.48,1.56-.42,1.56-.37,1.56-.32,1.56-.26,1.56-.21,1.56-.15,1.56-.1,1.56-.04h1.56s1.56.09,1.56.09l1.56.13,1.56.19,1.56.24,1.56.3,1.55.36,1.55.42,1.55.48,1.55.53,1.55.59,1.54.65,1.54.71,1.54.77,1.53.83,1.53.89-1.65,3.04-1.44-.84-1.44-.78-1.44-.72-1.44-.67-1.44-.61-1.44-.55-1.44-.5-1.44-.44-1.44-.39-1.44-.33-1.44-.28-1.44-.23-1.44-.17-1.44-.12-1.44-.07h-1.45s-1.45.02-1.45.02l-1.45.09-1.45.14-1.45.19-1.46.24-1.46.3-1.46.35-1.46.4-1.46.45-1.47.5-1.47.55-1.47.6-1.47.65-1.48.7-1.48.75-1.48.8h0Z"/>
        <path class="cls-2" d="M47.2,82.39l1.65-3.04h-1.69l1.51-.89,1.51-.83,1.52-.77,1.52-.71,1.53-.65,1.53-.59,1.53-.53,1.54-.48,1.54-.42,1.54-.36,1.55-.3,1.55-.24,1.55-.19,1.56-.13,1.56-.07h1.56s1.56.03,1.56.03l1.57.1,1.57.15,1.57.21,1.57.26,1.57.32,1.57.37,1.57.42,1.57.48,1.57.53,1.58.58,1.58.64,1.58.69,1.58.74,1.58.79,1.58.84-1.53,3.11-1.5-.8-1.5-.75-1.5-.7-1.49-.65-1.49-.6-1.48-.55-1.48-.5-1.48-.45-1.47-.4-1.47-.35-1.47-.3-1.46-.24-1.46-.19-1.45-.14-1.45-.09-1.45-.04h-1.44s-1.44.08-1.44.08l-1.44.12-1.44.17-1.44.23-1.43.28-1.43.33-1.43.39-1.43.44-1.43.5-1.43.55-1.42.61-1.42.67-1.42.72-1.42.78-1.42.84h-1.69,0ZM48.88,82.39l-.84.51-.85-.51h1.69ZM.71,82.42l-1.61-3.11,1.56-.84,1.55-.79,1.56-.74,1.56-.69,1.56-.64,1.56-.58,1.56-.53,1.56-.48,1.56-.42,1.56-.37,1.56-.32,1.56-.26,1.56-.21,1.56-.15,1.56-.1,1.56-.04h1.56s1.56.09,1.56.09l1.56.13,1.56.19,1.56.24,1.56.3,1.55.36,1.55.42,1.55.48,1.55.53,1.55.59,1.54.65,1.54.71,1.54.77,1.53.83,1.53.89-1.65,3.04-1.44-.84-1.44-.78-1.44-.72-1.44-.67-1.44-.61-1.44-.55-1.44-.5-1.44-.44-1.44-.39-1.44-.33-1.44-.28-1.44-.23-1.44-.17-1.44-.12-1.44-.07h-1.45s-1.45.02-1.45.02l-1.45.09-1.45.14-1.45.19-1.45.24-1.46.3-1.46.35-1.46.4-1.46.45-1.47.5-1.47.55-1.47.6-1.47.65-1.48.7-1.48.75-1.48.8h0Z"/>
        <path class="cls-2" d="M47.3,90.23l1.65-3.04h-1.69l1.51-.89,1.51-.83,1.52-.77,1.52-.71,1.52-.65,1.53-.59,1.53-.53,1.54-.48,1.54-.42,1.54-.36,1.55-.3,1.55-.24,1.55-.19,1.56-.13,1.56-.07h1.56s1.56.03,1.56.03l1.57.1,1.57.15,1.57.21,1.57.26,1.57.32,1.57.37,1.57.42,1.57.48,1.57.53,1.58.58,1.58.64,1.58.69,1.58.74,1.58.79,1.58.84-1.53,3.11-1.5-.8-1.5-.75-1.5-.7-1.49-.65-1.49-.6-1.48-.55-1.48-.5-1.48-.45-1.47-.4-1.47-.35-1.47-.3-1.46-.24-1.46-.19-1.45-.14-1.45-.09-1.45-.04h-1.44s-1.44.08-1.44.08l-1.44.12-1.44.17-1.44.23-1.43.28-1.43.33-1.43.39-1.43.44-1.43.5-1.43.55-1.42.61-1.42.67-1.42.72-1.42.78-1.42.84h-1.69ZM48.99,90.23l-.84.51-.85-.51h1.69ZM.82,90.27l-1.61-3.11,1.56-.84,1.55-.79,1.56-.74,1.56-.69,1.56-.64,1.56-.58,1.56-.53,1.56-.48,1.56-.42,1.56-.37,1.56-.32,1.56-.26,1.56-.21,1.56-.15,1.56-.1,1.56-.04h1.56s1.56.09,1.56.09l1.56.13,1.56.19,1.56.24,1.56.3,1.55.36,1.55.42,1.55.48,1.55.53,1.55.59,1.54.65,1.54.71,1.54.77,1.53.83,1.53.89-1.65,3.04-1.44-.84-1.44-.78-1.44-.72-1.44-.67-1.44-.61-1.44-.55-1.44-.5-1.44-.44-1.44-.39-1.44-.33-1.44-.28-1.44-.23-1.44-.17-1.44-.12-1.44-.07h-1.45s-1.45.02-1.45.02l-1.45.09-1.45.14-1.45.19-1.46.24-1.46.3-1.46.35-1.46.4-1.46.45-1.47.5-1.47.55-1.47.6-1.47.65-1.48.7-1.48.75-1.48.8h0Z"/>
        <path class="cls-2" d="M47.41,98.07l1.65-3.04h-1.69l1.51-.89,1.51-.83,1.52-.77,1.52-.71,1.53-.65,1.53-.59,1.53-.53,1.54-.48,1.54-.42,1.54-.36,1.55-.3,1.55-.24,1.55-.19,1.56-.13,1.56-.07h1.56s1.56.03,1.56.03l1.57.1,1.57.15,1.57.21,1.57.26,1.57.32,1.57.37,1.57.42,1.57.48,1.57.53,1.58.58,1.58.64,1.58.69,1.58.74,1.58.79,1.58.84-1.53,3.11-1.5-.8-1.5-.75-1.5-.7-1.49-.65-1.49-.6-1.48-.55-1.48-.5-1.48-.45-1.47-.4-1.47-.35-1.46-.3-1.46-.24-1.46-.19-1.45-.14-1.45-.09-1.45-.04h-1.44s-1.44.08-1.44.08l-1.44.12-1.44.17-1.44.23-1.43.28-1.43.33-1.43.39-1.43.44-1.43.5-1.43.55-1.42.61-1.42.67-1.42.72-1.42.78-1.42.84h-1.69,0ZM49.1,98.07l-.84.51-.85-.51h1.69ZM.92,98.11l-1.61-3.11,1.56-.84,1.55-.79,1.56-.74,1.56-.69,1.56-.64,1.56-.58,1.56-.53,1.56-.48,1.56-.42,1.56-.37,1.56-.32,1.56-.26,1.56-.21,1.56-.15,1.56-.1,1.56-.04h1.56s1.56.09,1.56.09l1.56.13,1.56.19,1.56.24,1.56.3,1.55.36,1.55.42,1.55.48,1.55.53,1.55.59,1.54.65,1.54.71,1.54.77,1.53.83,1.53.89-1.65,3.04-1.44-.84-1.44-.78-1.44-.72-1.44-.67-1.44-.61-1.44-.55-1.44-.5-1.44-.44-1.44-.39-1.44-.33-1.44-.28-1.44-.23-1.44-.17-1.44-.12-1.44-.07h-1.45s-1.45.02-1.45.02l-1.45.09-1.45.14-1.45.19-1.46.24-1.46.3-1.46.35-1.46.4-1.46.45-1.47.5-1.47.55-1.47.6-1.47.65-1.48.7-1.48.75-1.48.8h0Z"/>
        <path class="cls-2" d="M47.52,105.92l1.65-3.04h-1.69l1.51-.89,1.51-.83,1.52-.77,1.52-.71,1.53-.65,1.53-.59,1.53-.53,1.54-.48,1.54-.42,1.55-.36,1.55-.3,1.55-.24,1.55-.19,1.56-.13,1.56-.07h1.56s1.56.03,1.56.03l1.57.1,1.57.15,1.57.21,1.57.26,1.57.32,1.57.37,1.57.42,1.57.48,1.57.53,1.58.58,1.58.64,1.58.69,1.58.74,1.58.79,1.58.84-1.53,3.11-1.5-.8-1.5-.75-1.5-.7-1.49-.65-1.49-.6-1.48-.55-1.48-.5-1.48-.45-1.47-.4-1.47-.35-1.47-.3-1.46-.24-1.46-.19-1.45-.14-1.45-.09-1.45-.04h-1.44s-1.44.08-1.44.08l-1.44.12-1.44.17-1.44.23-1.43.28-1.43.33-1.43.39-1.43.44-1.43.5-1.43.55-1.42.61-1.42.67-1.42.72-1.42.78-1.42.84h-1.69ZM49.2,105.92l-.84.51-.85-.51h1.69ZM1.03,105.95l-1.61-3.11,1.56-.84,1.55-.79,1.56-.74,1.56-.69,1.56-.64,1.56-.58,1.56-.53,1.56-.48,1.56-.42,1.56-.37,1.56-.32,1.56-.26,1.56-.21,1.56-.15,1.56-.1,1.56-.04h1.56s1.56.09,1.56.09l1.56.13,1.56.19,1.56.24,1.56.3,1.55.36,1.55.42,1.55.48,1.55.53,1.55.59,1.54.65,1.54.71,1.54.77,1.53.83,1.53.89-1.65,3.04-1.44-.84-1.44-.78-1.44-.72-1.44-.67-1.44-.61-1.44-.55-1.44-.5-1.44-.44-1.44-.39-1.44-.33-1.44-.28-1.44-.23-1.44-.17-1.44-.12-1.44-.07h-1.45s-1.45.02-1.45.02l-1.45.09-1.45.14-1.45.19-1.46.24-1.46.3-1.46.35-1.46.4-1.46.45-1.47.5-1.47.55-1.47.6-1.47.65-1.48.7-1.48.75-1.48.8h0Z"/>
        <path class="cls-2" d="M47.62,113.76l1.65-3.04h-1.69l1.51-.89,1.51-.83,1.52-.77,1.52-.71,1.52-.65,1.53-.59,1.53-.53,1.54-.48,1.54-.42,1.54-.36,1.55-.3,1.55-.24,1.55-.19,1.56-.13,1.56-.07h1.56s1.56.03,1.56.03l1.57.1,1.57.15,1.57.21,1.57.26,1.57.32,1.57.37,1.57.42,1.57.48,1.57.53,1.58.58,1.58.64,1.58.69,1.58.74,1.58.79,1.58.84-1.53,3.11-1.5-.8-1.5-.75-1.5-.7-1.49-.65-1.49-.6-1.48-.55-1.48-.5-1.48-.45-1.47-.4-1.47-.35-1.47-.3-1.46-.24-1.46-.19-1.45-.14-1.45-.09-1.45-.04h-1.44s-1.44.08-1.44.08l-1.44.12-1.44.17-1.44.23-1.43.28-1.43.33-1.43.39-1.43.44-1.43.5-1.43.55-1.42.61-1.42.67-1.42.72-1.42.78-1.42.84h-1.69ZM49.31,113.76l-.84.51-.85-.51h1.69ZM1.14,113.79l-1.61-3.11,1.56-.84,1.55-.79,1.56-.74,1.56-.69,1.56-.64,1.56-.58,1.56-.53,1.56-.48,1.56-.42,1.56-.37,1.56-.32,1.56-.26,1.56-.21,1.56-.15,1.56-.1,1.56-.04h1.56s1.56.09,1.56.09l1.56.13,1.56.19,1.56.24,1.56.3,1.55.36,1.55.42,1.55.48,1.55.53,1.55.59,1.54.65,1.54.71,1.54.77,1.53.83,1.53.89-1.65,3.04-1.44-.84-1.44-.78-1.44-.72-1.44-.67-1.44-.61-1.44-.55-1.44-.5-1.44-.44-1.44-.39-1.44-.33-1.44-.28-1.44-.23-1.44-.17-1.44-.12-1.44-.07h-1.45s-1.45.02-1.45.02l-1.45.09-1.45.14-1.45.19-1.46.24-1.46.3-1.46.35-1.46.4-1.46.45-1.47.5-1.47.55-1.47.6-1.47.65-1.48.7-1.48.75-1.48.8h0Z"/>
      </g>
    </g>
  </g>
</svg>